<svg width="229" height="154" viewBox="0 0 229 154" fill="none" xmlns="http://www.w3.org/2000/svg">
<g filter="url(#filter0_d_271_1915)">
<g clip-path="url(#clip0_271_1915)">
<rect x="9" y="9" width="61.9179" height="115.377" rx="2.8799" fill="white"/>
<rect width="61.9179" height="77.7574" transform="translate(9 9)" fill="#CDCFD5"/>
<rect x="13.3198" y="90.3574" width="53.2782" height="4.5" fill="#D9D9D9"/>
<rect x="13.3198" y="97.7373" width="25.2" height="4.5" fill="#D9D9D9"/>
<path d="M13.7726 110.117V106.566H14.2033L16.2384 109.485L15.9431 109.33H16.1695V106.566H16.6075V110.117H16.1769L14.1417 107.208L14.4371 107.363H14.2107V110.117H13.7726ZM18.4359 110.117V106.965H17.2916V106.566H20.0232V106.965H18.8789V110.117H18.4359ZM21.8565 110.066C21.6383 110.066 21.4357 110.026 21.2487 109.947C21.0617 109.869 20.9099 109.755 20.7934 109.608C20.6786 109.46 20.6171 109.283 20.6089 109.076V109.074L21.0371 109.071V109.076C21.0535 109.189 21.092 109.292 21.1527 109.384C21.2134 109.476 21.3012 109.549 21.416 109.603C21.5325 109.655 21.681 109.682 21.8615 109.682C22.0468 109.682 22.1953 109.657 22.3069 109.608C22.4201 109.557 22.5021 109.49 22.553 109.406C22.6038 109.321 22.6292 109.227 22.6292 109.125V109.121C22.6292 108.986 22.5866 108.874 22.5013 108.786C22.4176 108.696 22.2535 108.621 22.0091 108.562L21.6424 108.473C21.439 108.424 21.2667 108.36 21.1257 108.281C20.9862 108.201 20.8804 108.103 20.8082 107.986C20.736 107.87 20.6999 107.731 20.6999 107.57V107.565C20.6999 107.373 20.75 107.207 20.85 107.066C20.9518 106.923 21.0896 106.813 21.2635 106.736C21.4374 106.657 21.6351 106.618 21.8565 106.618C22.0682 106.618 22.2601 106.658 22.4324 106.738C22.6063 106.819 22.7465 106.932 22.8532 107.078C22.9598 107.222 23.0164 107.392 23.023 107.587V107.59L22.5948 107.592V107.587C22.5833 107.463 22.5439 107.357 22.4767 107.27C22.411 107.183 22.3249 107.117 22.2183 107.071C22.1116 107.025 21.9911 107.002 21.8565 107.002C21.6974 107.002 21.5637 107.028 21.4554 107.08C21.3471 107.131 21.2651 107.198 21.2093 107.28C21.1552 107.36 21.1281 107.446 21.1281 107.536V107.541C21.1281 107.619 21.1462 107.692 21.1823 107.76C21.22 107.827 21.2807 107.887 21.3644 107.939C21.448 107.992 21.5612 108.035 21.704 108.07L22.0706 108.158C22.3873 108.234 22.6309 108.343 22.8015 108.486C22.9721 108.628 23.0574 108.829 23.0574 109.086V109.091C23.0574 109.303 23.0016 109.481 22.8901 109.627C22.7785 109.772 22.6317 109.881 22.4496 109.955C22.2675 110.029 22.0698 110.066 21.8565 110.066ZM21.699 110.474V106.209H21.9943V110.474H21.699Z" fill="#378CFC"/>
<path d="M27.0246 110.117V107.058H26.9853L26.0821 107.713V107.245L27.0271 106.566H27.4676V110.117H27.0246ZM28.2649 111.02L28.479 109.62H28.9687L28.5824 111.02H28.2649ZM30.9276 110.176C30.6831 110.176 30.4698 110.134 30.2877 110.051C30.1056 109.967 29.9613 109.852 29.8546 109.706C29.7496 109.56 29.6889 109.394 29.6725 109.207L29.6701 109.177H30.0958L30.0983 109.202C30.1097 109.318 30.1508 109.421 30.2213 109.509C30.2935 109.598 30.3895 109.668 30.5092 109.719C30.6306 109.768 30.7701 109.792 30.9276 109.792C31.0834 109.792 31.2196 109.765 31.3361 109.711C31.4542 109.657 31.5461 109.582 31.6117 109.487C31.6773 109.39 31.7101 109.28 31.7101 109.155V109.15C31.7101 108.932 31.6371 108.765 31.4911 108.648C31.3467 108.53 31.1499 108.471 30.9005 108.471H30.4551V108.097H30.8808C31.0219 108.097 31.1466 108.071 31.2549 108.018C31.3631 107.964 31.4476 107.891 31.5083 107.799C31.569 107.706 31.5994 107.6 31.5994 107.482V107.477C31.5994 107.352 31.5731 107.246 31.5206 107.159C31.4681 107.072 31.391 107.006 31.2893 106.96C31.1892 106.914 31.067 106.891 30.9226 106.891C30.7832 106.891 30.6585 106.915 30.5486 106.962C30.4403 107.008 30.3534 107.075 30.2877 107.162C30.2221 107.249 30.1827 107.352 30.1696 107.472L30.1672 107.496H29.7414L29.7439 107.472C29.7636 107.278 29.8243 107.109 29.926 106.965C30.0293 106.82 30.1655 106.708 30.3345 106.628C30.5051 106.547 30.7012 106.507 30.9226 106.507C31.149 106.507 31.3459 106.546 31.5132 106.625C31.6822 106.702 31.8126 106.81 31.9045 106.948C31.998 107.084 32.0448 107.242 32.0448 107.423V107.427C32.0448 107.573 32.0128 107.703 31.9488 107.816C31.8848 107.929 31.7962 108.024 31.683 108.099C31.5698 108.175 31.4394 108.228 31.2918 108.259V108.269C31.551 108.29 31.7601 108.378 31.9193 108.532C32.0801 108.685 32.1604 108.888 32.1604 109.14V109.145C32.1604 109.342 32.1071 109.518 32.0005 109.674C31.8939 109.83 31.7478 109.953 31.5625 110.043C31.3771 110.132 31.1654 110.176 30.9276 110.176ZM34.0676 110.201C33.8051 110.201 33.5804 110.125 33.3933 109.974C33.208 109.824 33.0652 109.609 32.9651 109.332C32.8651 109.053 32.815 108.724 32.815 108.343V108.338C32.815 107.957 32.8651 107.628 32.9651 107.351C33.0652 107.074 33.208 106.86 33.3933 106.709C33.5804 106.558 33.8051 106.483 34.0676 106.483C34.3301 106.483 34.5549 106.558 34.7419 106.709C34.9289 106.86 35.0725 107.074 35.1725 107.351C35.2742 107.628 35.3251 107.957 35.3251 108.338V108.343C35.3251 108.724 35.2742 109.053 35.1725 109.332C35.0725 109.609 34.9289 109.824 34.7419 109.974C34.5549 110.125 34.3301 110.201 34.0676 110.201ZM34.0676 109.815C34.2382 109.815 34.3834 109.755 34.5032 109.635C34.6246 109.515 34.7173 109.345 34.7813 109.125C34.8469 108.906 34.8797 108.645 34.8797 108.343V108.338C34.8797 108.036 34.8469 107.776 34.7813 107.558C34.7173 107.338 34.6246 107.169 34.5032 107.051C34.3834 106.931 34.2382 106.871 34.0676 106.871C33.8986 106.871 33.7534 106.931 33.632 107.051C33.5123 107.169 33.4204 107.338 33.3564 107.558C33.2924 107.776 33.2605 108.036 33.2605 108.338V108.343C33.2605 108.645 33.2924 108.906 33.3564 109.125C33.4204 109.345 33.5123 109.515 33.632 109.635C33.7534 109.755 33.8986 109.815 34.0676 109.815ZM37.2421 110.201C36.9796 110.201 36.7549 110.125 36.5678 109.974C36.3825 109.824 36.2397 109.609 36.1397 109.332C36.0396 109.053 35.9895 108.724 35.9895 108.343V108.338C35.9895 107.957 36.0396 107.628 36.1397 107.351C36.2397 107.074 36.3825 106.86 36.5678 106.709C36.7549 106.558 36.9796 106.483 37.2421 106.483C37.5046 106.483 37.7294 106.558 37.9164 106.709C38.1034 106.86 38.247 107.074 38.347 107.351C38.4488 107.628 38.4996 107.957 38.4996 108.338V108.343C38.4996 108.724 38.4488 109.053 38.347 109.332C38.247 109.609 38.1034 109.824 37.9164 109.974C37.7294 110.125 37.5046 110.201 37.2421 110.201ZM37.2421 109.815C37.4127 109.815 37.5579 109.755 37.6777 109.635C37.7991 109.515 37.8918 109.345 37.9558 109.125C38.0214 108.906 38.0542 108.645 38.0542 108.343V108.338C38.0542 108.036 38.0214 107.776 37.9558 107.558C37.8918 107.338 37.7991 107.169 37.6777 107.051C37.5579 106.931 37.4127 106.871 37.2421 106.871C37.0731 106.871 36.9279 106.931 36.8065 107.051C36.6868 107.169 36.5949 107.338 36.5309 107.558C36.4669 107.776 36.435 108.036 36.435 108.338V108.343C36.435 108.645 36.4669 108.906 36.5309 109.125C36.5949 109.345 36.6868 109.515 36.8065 109.635C36.9279 109.755 37.0731 109.815 37.2421 109.815Z" fill="#378CFC"/>
<path d="M42.5138 107.441L41.552 111.377H41.1997L42.1615 107.441H42.5138ZM44.0937 110.617V107.441H44.4607V108.685H44.4944C44.5521 108.564 44.6351 108.471 44.7433 108.405C44.8516 108.337 44.9894 108.303 45.1568 108.303C45.3269 108.303 45.471 108.336 45.5892 108.402C45.7073 108.467 45.7973 108.562 45.8592 108.687C45.921 108.812 45.952 108.965 45.952 109.145V110.617H45.585V109.233C45.585 109.028 45.5414 108.876 45.4542 108.778C45.3684 108.678 45.2348 108.628 45.0534 108.628C44.9325 108.628 44.8277 108.654 44.7391 108.706C44.6505 108.758 44.5816 108.832 44.5324 108.928C44.4846 109.023 44.4607 109.138 44.4607 109.271V110.617H44.0937ZM46.6164 110.617V108.343H46.9834V108.681H47.0172C47.0608 108.561 47.1346 108.469 47.2386 108.402C47.3427 108.336 47.4714 108.303 47.6246 108.303C47.6598 108.303 47.6943 108.305 47.728 108.31C47.7632 108.312 47.7899 108.315 47.8082 108.318V108.675C47.7702 108.667 47.7329 108.663 47.6964 108.66C47.6612 108.656 47.6232 108.653 47.5825 108.653C47.4657 108.653 47.3624 108.677 47.2724 108.723C47.1824 108.769 47.1114 108.834 47.0594 108.917C47.0087 109 46.9834 109.097 46.9834 109.208V110.617H46.6164Z" fill="#808690"/>
<rect x="13.3198" y="114.997" width="6.47978" height="6.47978" rx="3.23989" fill="#212121" fill-opacity="0.2"/>
<rect x="21.2395" y="115.987" width="14.4" height="4.5" fill="#D9D9D9"/>
<rect x="52.198" y="115.987" width="14.4" height="4.5" fill="#D9D9D9"/>
</g>
</g>
<g filter="url(#filter1_d_271_1915)">
<g clip-path="url(#clip1_271_1915)">
<rect x="83.7" y="28.7998" width="61.9179" height="115.377" rx="2.8799" fill="white"/>
<rect width="61.9179" height="77.7574" transform="translate(83.7 28.7998)" fill="#CDCFD5"/>
<rect x="88.0198" y="110.157" width="53.2782" height="4.5" fill="#D9D9D9"/>
<rect x="88.02" y="117.537" width="25.2" height="4.5" fill="#D9D9D9"/>
<path d="M88.4726 129.917V126.366H88.9032L90.9383 129.285L90.643 129.13H90.8694V126.366H91.3075V129.917H90.8768L88.8417 127.008L89.137 127.163H88.9106V129.917H88.4726ZM93.1359 129.917V126.765H91.9916V126.366H94.7231V126.765H93.5788V129.917H93.1359ZM96.5565 129.865C96.3383 129.865 96.1357 129.826 95.9486 129.747C95.7616 129.668 95.6099 129.555 95.4934 129.408C95.3786 129.26 95.317 129.083 95.3088 128.876V128.874L95.737 128.871V128.876C95.7534 128.989 95.792 129.092 95.8527 129.184C95.9134 129.276 96.0011 129.349 96.116 129.403C96.2325 129.455 96.3809 129.481 96.5614 129.481C96.7468 129.481 96.8953 129.457 97.0068 129.408C97.12 129.357 97.202 129.289 97.2529 129.206C97.3038 129.12 97.3292 129.027 97.3292 128.925V128.92C97.3292 128.786 97.2865 128.674 97.2012 128.586C97.1176 128.495 96.9535 128.421 96.7091 128.362L96.3424 128.273C96.139 128.224 95.9667 128.16 95.8256 128.081C95.6862 128.001 95.5803 127.902 95.5082 127.786C95.436 127.669 95.3999 127.531 95.3999 127.37V127.365C95.3999 127.173 95.4499 127.007 95.55 126.866C95.6517 126.723 95.7895 126.613 95.9634 126.536C96.1373 126.457 96.335 126.418 96.5565 126.418C96.7681 126.418 96.9601 126.458 97.1323 126.538C97.3062 126.619 97.4465 126.732 97.5531 126.878C97.6598 127.022 97.7164 127.192 97.7229 127.387V127.39L97.2947 127.392V127.387C97.2833 127.263 97.2439 127.157 97.1766 127.07C97.111 126.983 97.0249 126.916 96.9182 126.87C96.8116 126.825 96.691 126.802 96.5565 126.802C96.3973 126.802 96.2636 126.828 96.1554 126.88C96.0471 126.931 95.9651 126.998 95.9093 127.08C95.8551 127.16 95.8281 127.245 95.8281 127.336V127.34C95.8281 127.419 95.8461 127.492 95.8822 127.559C95.9199 127.627 95.9806 127.687 96.0643 127.739C96.148 127.792 96.2612 127.835 96.4039 127.87L96.7706 127.958C97.0872 128.034 97.3308 128.143 97.5014 128.285C97.6721 128.428 97.7574 128.628 97.7574 128.886V128.891C97.7574 129.102 97.7016 129.281 97.59 129.427C97.4785 129.572 97.3316 129.681 97.1495 129.755C96.9674 129.828 96.7698 129.865 96.5565 129.865ZM96.399 130.274V126.009H96.6943V130.274H96.399Z" fill="#378CFC"/>
<path d="M101.725 129.917V126.858H101.685L100.782 127.513V127.045L101.727 126.366H102.168V129.917H101.725ZM102.965 130.82L103.179 129.42H103.669L103.282 130.82H102.965ZM105.625 130.001C105.463 130.001 105.302 129.969 105.143 129.907C104.985 129.845 104.842 129.744 104.712 129.604C104.584 129.465 104.482 129.281 104.404 129.053C104.327 128.824 104.289 128.541 104.289 128.207V128.202C104.289 127.798 104.343 127.454 104.451 127.168C104.56 126.881 104.715 126.662 104.919 126.511C105.122 126.359 105.367 126.282 105.655 126.282C105.853 126.282 106.032 126.319 106.191 126.393C106.352 126.465 106.486 126.567 106.592 126.698C106.7 126.828 106.774 126.98 106.814 127.156L106.821 127.188H106.376L106.366 127.161C106.33 127.061 106.278 126.975 106.211 126.905C106.145 126.833 106.065 126.777 105.97 126.738C105.876 126.698 105.769 126.679 105.65 126.679C105.435 126.679 105.26 126.742 105.125 126.868C104.991 126.993 104.891 127.159 104.825 127.368C104.761 127.574 104.724 127.801 104.715 128.049C104.713 128.071 104.712 128.093 104.712 128.116C104.712 128.137 104.712 128.159 104.712 128.182L104.818 128.773C104.818 128.929 104.853 129.07 104.924 129.196C104.996 129.322 105.093 129.423 105.214 129.499C105.335 129.572 105.471 129.609 105.62 129.609C105.769 129.609 105.905 129.573 106.026 129.501C106.148 129.427 106.244 129.328 106.314 129.203C106.386 129.079 106.422 128.94 106.422 128.787V128.783C106.422 128.625 106.388 128.486 106.319 128.364C106.252 128.241 106.158 128.145 106.038 128.076C105.919 128.006 105.782 127.97 105.628 127.97C105.475 127.97 105.337 128.005 105.214 128.074C105.093 128.143 104.996 128.238 104.924 128.359C104.853 128.479 104.818 128.616 104.818 128.77V128.773H104.673V128.133H104.759C104.803 128.036 104.869 127.946 104.956 127.862C105.043 127.779 105.149 127.711 105.276 127.66C105.402 127.61 105.545 127.584 105.704 127.584C105.927 127.584 106.126 127.636 106.302 127.739C106.477 127.842 106.615 127.984 106.715 128.162C106.817 128.341 106.868 128.545 106.868 128.773V128.778C106.868 129.014 106.814 129.224 106.705 129.408C106.599 129.591 106.452 129.737 106.265 129.843C106.078 129.948 105.865 130.001 105.625 130.001ZM108.768 130.001C108.505 130.001 108.28 129.925 108.093 129.774C107.908 129.623 107.765 129.409 107.665 129.132C107.565 128.853 107.515 128.523 107.515 128.143V128.138C107.515 127.757 107.565 127.428 107.665 127.151C107.765 126.874 107.908 126.66 108.093 126.509C108.28 126.358 108.505 126.282 108.768 126.282C109.03 126.282 109.255 126.358 109.442 126.509C109.629 126.66 109.772 126.874 109.872 127.151C109.974 127.428 110.025 127.757 110.025 128.138V128.143C110.025 128.523 109.974 128.853 109.872 129.132C109.772 129.409 109.629 129.623 109.442 129.774C109.255 129.925 109.03 130.001 108.768 130.001ZM108.768 129.614C108.938 129.614 109.083 129.554 109.203 129.435C109.325 129.315 109.417 129.145 109.481 128.925C109.547 128.705 109.58 128.445 109.58 128.143V128.138C109.58 127.836 109.547 127.576 109.481 127.358C109.417 127.138 109.325 126.969 109.203 126.851C109.083 126.731 108.938 126.671 108.768 126.671C108.599 126.671 108.453 126.731 108.332 126.851C108.212 126.969 108.12 127.138 108.056 127.358C107.992 127.576 107.96 127.836 107.96 128.138V128.143C107.96 128.445 107.992 128.705 108.056 128.925C108.12 129.145 108.212 129.315 108.332 129.435C108.453 129.554 108.599 129.614 108.768 129.614ZM111.942 130.001C111.68 130.001 111.455 129.925 111.268 129.774C111.082 129.623 110.94 129.409 110.84 129.132C110.74 128.853 110.689 128.523 110.689 128.143V128.138C110.689 127.757 110.74 127.428 110.84 127.151C110.94 126.874 111.082 126.66 111.268 126.509C111.455 126.358 111.68 126.282 111.942 126.282C112.205 126.282 112.429 126.358 112.616 126.509C112.803 126.66 112.947 126.874 113.047 127.151C113.149 127.428 113.2 127.757 113.2 128.138V128.143C113.2 128.523 113.149 128.853 113.047 129.132C112.947 129.409 112.803 129.623 112.616 129.774C112.429 129.925 112.205 130.001 111.942 130.001ZM111.942 129.614C112.113 129.614 112.258 129.554 112.378 129.435C112.499 129.315 112.592 129.145 112.656 128.925C112.721 128.705 112.754 128.445 112.754 128.143V128.138C112.754 127.836 112.721 127.576 112.656 127.358C112.592 127.138 112.499 126.969 112.378 126.851C112.258 126.731 112.113 126.671 111.942 126.671C111.773 126.671 111.628 126.731 111.506 126.851C111.387 126.969 111.295 127.138 111.231 127.358C111.167 127.576 111.135 127.836 111.135 128.138V128.143C111.135 128.445 111.167 128.705 111.231 128.925C111.295 129.145 111.387 129.315 111.506 129.435C111.628 129.554 111.773 129.614 111.942 129.614Z" fill="#378CFC"/>
<path d="M117.214 127.24L116.252 131.176H115.9L116.862 127.24H117.214ZM118.794 130.417V127.24H119.161V128.485H119.194C119.252 128.364 119.335 128.27 119.443 128.204C119.552 128.137 119.689 128.103 119.857 128.103C120.027 128.103 120.171 128.136 120.289 128.202C120.407 128.267 120.497 128.362 120.559 128.487C120.621 128.612 120.652 128.765 120.652 128.945V130.417H120.285V129.033C120.285 128.828 120.241 128.676 120.154 128.578C120.068 128.478 119.935 128.428 119.753 128.428C119.632 128.428 119.528 128.454 119.439 128.506C119.35 128.558 119.282 128.632 119.232 128.727C119.185 128.823 119.161 128.938 119.161 129.071V130.417H118.794ZM121.316 130.417V128.143H121.683V128.481H121.717C121.761 128.361 121.835 128.268 121.939 128.202C122.043 128.136 122.171 128.103 122.325 128.103C122.36 128.103 122.394 128.105 122.428 128.109C122.463 128.112 122.49 128.115 122.508 128.118V128.474C122.47 128.467 122.433 128.462 122.396 128.46C122.361 128.455 122.323 128.453 122.282 128.453C122.166 128.453 122.062 128.476 121.972 128.523C121.882 128.569 121.811 128.634 121.759 128.717C121.709 128.8 121.683 128.897 121.683 129.008V130.417H121.316Z" fill="#808690"/>
<rect x="88.0198" y="134.797" width="6.47978" height="6.47978" rx="3.23989" fill="#212121" fill-opacity="0.2"/>
<rect x="95.9395" y="135.787" width="14.4" height="4.5" fill="#D9D9D9"/>
<rect x="126.898" y="135.787" width="14.4" height="4.5" fill="#D9D9D9"/>
</g>
</g>
<g filter="url(#filter2_d_271_1915)">
<g clip-path="url(#clip2_271_1915)">
<rect x="157.5" y="9" width="61.9179" height="115.377" rx="2.8799" fill="white"/>
<rect width="61.9179" height="77.7574" transform="translate(157.5 9)" fill="#CDCFD5"/>
<rect x="161.82" y="90.3574" width="53.2782" height="4.5" fill="#D9D9D9"/>
<rect x="161.82" y="97.7373" width="25.2" height="4.5" fill="#D9D9D9"/>
<path d="M162.273 110.117V106.566H162.703L164.738 109.485L164.443 109.33H164.669V106.566H165.108V110.117H164.677L162.642 107.208L162.937 107.363H162.711V110.117H162.273ZM166.936 110.117V106.965H165.792V106.566H168.523V106.965H167.379V110.117H166.936ZM170.357 110.066C170.138 110.066 169.936 110.026 169.749 109.947C169.562 109.869 169.41 109.755 169.293 109.608C169.179 109.46 169.117 109.283 169.109 109.076V109.074L169.537 109.071V109.076C169.553 109.189 169.592 109.292 169.653 109.384C169.713 109.476 169.801 109.549 169.916 109.603C170.033 109.655 170.181 109.682 170.361 109.682C170.547 109.682 170.695 109.657 170.807 109.608C170.92 109.557 171.002 109.49 171.053 109.406C171.104 109.321 171.129 109.227 171.129 109.125V109.121C171.129 108.986 171.087 108.874 171.001 108.786C170.918 108.696 170.754 108.621 170.509 108.562L170.142 108.473C169.939 108.424 169.767 108.36 169.626 108.281C169.486 108.201 169.38 108.103 169.308 107.986C169.236 107.87 169.2 107.731 169.2 107.57V107.565C169.2 107.373 169.25 107.207 169.35 107.066C169.452 106.923 169.59 106.813 169.763 106.736C169.937 106.657 170.135 106.618 170.357 106.618C170.568 106.618 170.76 106.658 170.932 106.738C171.106 106.819 171.247 106.932 171.353 107.078C171.46 107.222 171.516 107.392 171.523 107.587V107.59L171.095 107.592V107.587C171.083 107.463 171.044 107.357 170.977 107.27C170.911 107.183 170.825 107.117 170.718 107.071C170.612 107.025 170.491 107.002 170.357 107.002C170.197 107.002 170.064 107.028 169.955 107.08C169.847 107.131 169.765 107.198 169.709 107.28C169.655 107.36 169.628 107.446 169.628 107.536V107.541C169.628 107.619 169.646 107.692 169.682 107.76C169.72 107.827 169.781 107.887 169.864 107.939C169.948 107.992 170.061 108.035 170.204 108.07L170.571 108.158C170.887 108.234 171.131 108.343 171.301 108.486C171.472 108.628 171.557 108.829 171.557 109.086V109.091C171.557 109.303 171.502 109.481 171.39 109.627C171.279 109.772 171.132 109.881 170.95 109.955C170.767 110.029 170.57 110.066 170.357 110.066ZM170.199 110.474V106.209H170.494V110.474H170.199Z" fill="#378CFC"/>
<path d="M175.525 110.117V107.058H175.485L174.582 107.713V107.245L175.527 106.566H175.968V110.117H175.525ZM176.765 111.02L176.979 109.62H177.469L177.082 111.02H176.765ZM179.359 110.201C179.096 110.201 178.871 110.125 178.684 109.974C178.499 109.824 178.356 109.609 178.256 109.332C178.156 109.053 178.106 108.724 178.106 108.343V108.338C178.106 107.957 178.156 107.628 178.256 107.351C178.356 107.074 178.499 106.86 178.684 106.709C178.871 106.558 179.096 106.483 179.359 106.483C179.621 106.483 179.846 106.558 180.033 106.709C180.22 106.86 180.364 107.074 180.464 107.351C180.565 107.628 180.616 107.957 180.616 108.338V108.343C180.616 108.724 180.565 109.053 180.464 109.332C180.364 109.609 180.22 109.824 180.033 109.974C179.846 110.125 179.621 110.201 179.359 110.201ZM179.359 109.815C179.529 109.815 179.674 109.755 179.794 109.635C179.916 109.515 180.008 109.345 180.072 109.125C180.138 108.906 180.171 108.645 180.171 108.343V108.338C180.171 108.036 180.138 107.776 180.072 107.558C180.008 107.338 179.916 107.169 179.794 107.051C179.674 106.931 179.529 106.871 179.359 106.871C179.19 106.871 179.044 106.931 178.923 107.051C178.803 107.169 178.711 107.338 178.647 107.558C178.583 107.776 178.551 108.036 178.551 108.338V108.343C178.551 108.645 178.583 108.906 178.647 109.125C178.711 109.345 178.803 109.515 178.923 109.635C179.044 109.755 179.19 109.815 179.359 109.815ZM182.533 110.201C182.271 110.201 182.046 110.125 181.859 109.974C181.673 109.824 181.531 109.609 181.431 109.332C181.331 109.053 181.281 108.724 181.281 108.343V108.338C181.281 107.957 181.331 107.628 181.431 107.351C181.531 107.074 181.673 106.86 181.859 106.709C182.046 106.558 182.271 106.483 182.533 106.483C182.796 106.483 183.02 106.558 183.207 106.709C183.394 106.86 183.538 107.074 183.638 107.351C183.74 107.628 183.791 107.957 183.791 108.338V108.343C183.791 108.724 183.74 109.053 183.638 109.332C183.538 109.609 183.394 109.824 183.207 109.974C183.02 110.125 182.796 110.201 182.533 110.201ZM182.533 109.815C182.704 109.815 182.849 109.755 182.969 109.635C183.09 109.515 183.183 109.345 183.247 109.125C183.312 108.906 183.345 108.645 183.345 108.343V108.338C183.345 108.036 183.312 107.776 183.247 107.558C183.183 107.338 183.09 107.169 182.969 107.051C182.849 106.931 182.704 106.871 182.533 106.871C182.364 106.871 182.219 106.931 182.098 107.051C181.978 107.169 181.886 107.338 181.822 107.558C181.758 107.776 181.726 108.036 181.726 108.338V108.343C181.726 108.645 181.758 108.906 181.822 109.125C181.886 109.345 181.978 109.515 182.098 109.635C182.219 109.755 182.364 109.815 182.533 109.815ZM185.708 110.201C185.445 110.201 185.22 110.125 185.033 109.974C184.848 109.824 184.705 109.609 184.605 109.332C184.505 109.053 184.455 108.724 184.455 108.343V108.338C184.455 107.957 184.505 107.628 184.605 107.351C184.705 107.074 184.848 106.86 185.033 106.709C185.22 106.558 185.445 106.483 185.708 106.483C185.97 106.483 186.195 106.558 186.382 106.709C186.569 106.86 186.713 107.074 186.813 107.351C186.914 107.628 186.965 107.957 186.965 108.338V108.343C186.965 108.724 186.914 109.053 186.813 109.332C186.713 109.609 186.569 109.824 186.382 109.974C186.195 110.125 185.97 110.201 185.708 110.201ZM185.708 109.815C185.878 109.815 186.023 109.755 186.143 109.635C186.265 109.515 186.357 109.345 186.421 109.125C186.487 108.906 186.52 108.645 186.52 108.343V108.338C186.52 108.036 186.487 107.776 186.421 107.558C186.357 107.338 186.265 107.169 186.143 107.051C186.023 106.931 185.878 106.871 185.708 106.871C185.539 106.871 185.393 106.931 185.272 107.051C185.152 107.169 185.06 107.338 184.996 107.558C184.932 107.776 184.901 108.036 184.901 108.338V108.343C184.901 108.645 184.932 108.906 184.996 109.125C185.06 109.345 185.152 109.515 185.272 109.635C185.393 109.755 185.539 109.815 185.708 109.815Z" fill="#378CFC"/>
<path d="M191.014 107.441L190.052 111.377H189.7L190.662 107.441H191.014ZM192.594 110.617V107.441H192.961V108.685H192.994C193.052 108.564 193.135 108.471 193.243 108.405C193.352 108.337 193.489 108.303 193.657 108.303C193.827 108.303 193.971 108.336 194.089 108.402C194.207 108.467 194.297 108.562 194.359 108.687C194.421 108.812 194.452 108.965 194.452 109.145V110.617H194.085V109.233C194.085 109.028 194.041 108.876 193.954 108.778C193.868 108.678 193.735 108.628 193.553 108.628C193.432 108.628 193.328 108.654 193.239 108.706C193.151 108.758 193.082 108.832 193.032 108.928C192.985 109.023 192.961 109.138 192.961 109.271V110.617H192.594ZM195.116 110.617V108.343H195.483V108.681H195.517C195.561 108.561 195.635 108.469 195.739 108.402C195.843 108.336 195.971 108.303 196.125 108.303C196.16 108.303 196.194 108.305 196.228 108.31C196.263 108.312 196.29 108.315 196.308 108.318V108.675C196.27 108.667 196.233 108.663 196.196 108.66C196.161 108.656 196.123 108.653 196.082 108.653C195.966 108.653 195.862 108.677 195.772 108.723C195.682 108.769 195.611 108.834 195.559 108.917C195.509 109 195.483 109.097 195.483 109.208V110.617H195.116Z" fill="#808690"/>
<rect x="161.82" y="114.997" width="6.47978" height="6.47978" rx="3.23989" fill="#212121" fill-opacity="0.2"/>
<rect x="169.74" y="115.987" width="14.4" height="4.5" fill="#D9D9D9"/>
<rect x="200.698" y="115.987" width="14.4" height="4.5" fill="#D9D9D9"/>
</g>
</g>
<defs>
<filter id="filter0_d_271_1915" x="0" y="0" width="79.918" height="133.376" filterUnits="userSpaceOnUse" color-interpolation-filters="sRGB">
<feFlood flood-opacity="0" result="BackgroundImageFix"/>
<feColorMatrix in="SourceAlpha" type="matrix" values="0 0 0 0 0 0 0 0 0 0 0 0 0 0 0 0 0 0 127 0" result="hardAlpha"/>
<feOffset/>
<feGaussianBlur stdDeviation="4.5"/>
<feComposite in2="hardAlpha" operator="out"/>
<feColorMatrix type="matrix" values="0 0 0 0 0 0 0 0 0 0 0 0 0 0 0 0 0 0 0.06 0"/>
<feBlend mode="normal" in2="BackgroundImageFix" result="effect1_dropShadow_271_1915"/>
<feBlend mode="normal" in="SourceGraphic" in2="effect1_dropShadow_271_1915" result="shape"/>
</filter>
<filter id="filter1_d_271_1915" x="74.7" y="19.7998" width="79.918" height="133.376" filterUnits="userSpaceOnUse" color-interpolation-filters="sRGB">
<feFlood flood-opacity="0" result="BackgroundImageFix"/>
<feColorMatrix in="SourceAlpha" type="matrix" values="0 0 0 0 0 0 0 0 0 0 0 0 0 0 0 0 0 0 127 0" result="hardAlpha"/>
<feOffset/>
<feGaussianBlur stdDeviation="4.5"/>
<feComposite in2="hardAlpha" operator="out"/>
<feColorMatrix type="matrix" values="0 0 0 0 0 0 0 0 0 0 0 0 0 0 0 0 0 0 0.06 0"/>
<feBlend mode="normal" in2="BackgroundImageFix" result="effect1_dropShadow_271_1915"/>
<feBlend mode="normal" in="SourceGraphic" in2="effect1_dropShadow_271_1915" result="shape"/>
</filter>
<filter id="filter2_d_271_1915" x="148.5" y="0" width="79.918" height="133.376" filterUnits="userSpaceOnUse" color-interpolation-filters="sRGB">
<feFlood flood-opacity="0" result="BackgroundImageFix"/>
<feColorMatrix in="SourceAlpha" type="matrix" values="0 0 0 0 0 0 0 0 0 0 0 0 0 0 0 0 0 0 127 0" result="hardAlpha"/>
<feOffset/>
<feGaussianBlur stdDeviation="4.5"/>
<feComposite in2="hardAlpha" operator="out"/>
<feColorMatrix type="matrix" values="0 0 0 0 0 0 0 0 0 0 0 0 0 0 0 0 0 0 0.06 0"/>
<feBlend mode="normal" in2="BackgroundImageFix" result="effect1_dropShadow_271_1915"/>
<feBlend mode="normal" in="SourceGraphic" in2="effect1_dropShadow_271_1915" result="shape"/>
</filter>
<clipPath id="clip0_271_1915">
<rect x="9" y="9" width="61.9179" height="115.377" rx="2.8799" fill="white"/>
</clipPath>
<clipPath id="clip1_271_1915">
<rect x="83.7" y="28.7998" width="61.9179" height="115.377" rx="2.8799" fill="white"/>
</clipPath>
<clipPath id="clip2_271_1915">
<rect x="157.5" y="9" width="61.9179" height="115.377" rx="2.8799" fill="white"/>
</clipPath>
</defs>
</svg>
