<svg width="288" height="138" viewBox="0 0 288 138" fill="none" xmlns="http://www.w3.org/2000/svg">
<g filter="url(#filter0_d_265_1436)">
<rect x="10" y="10" width="268" height="117.173" rx="14" fill="white" shape-rendering="crispEdges"/>
<path d="M30.5656 43.1519V41.0253H25.1456V39.4054C25.4373 38.909 25.7291 38.41 26.0208 37.9084C26.3176 37.4068 26.6171 36.9078 26.919 36.4114C27.2261 35.9098 27.5306 35.4159 27.8326 34.9297C28.1397 34.4384 28.4442 33.9547 28.7462 33.4787C29.0532 32.9976 29.3603 32.5293 29.6674 32.0738H32.4542V39.3901H33.9512V41.0253H32.4542V43.1519H30.5656ZM26.9881 39.4361H30.5963V33.6553H30.4812C30.256 34.0033 30.0231 34.3616 29.7826 34.7301C29.5471 35.0986 29.3092 35.4748 29.0686 35.8586C28.8281 36.2425 28.5901 36.6289 28.3546 37.0179C28.1192 37.4017 27.8863 37.7881 27.656 38.1771C27.4257 38.561 27.2031 38.9423 26.9881 39.321V39.4361ZM37.0604 43.2977C36.7124 43.2977 36.4207 43.1826 36.1853 42.9523C35.9549 42.7168 35.8398 42.4302 35.8398 42.0924C35.8398 41.7495 35.9549 41.4629 36.1853 41.2326C36.4207 40.9972 36.7124 40.8794 37.0604 40.8794C37.4136 40.8794 37.7053 40.9972 37.9356 41.2326C38.1659 41.4629 38.2811 41.7495 38.2811 42.0924C38.2811 42.4302 38.1659 42.7168 37.9356 42.9523C37.7053 43.1826 37.4136 43.2977 37.0604 43.2977ZM44.3153 43.4282C43.5629 43.4282 42.9001 43.2875 42.3269 43.006C41.7537 42.7245 41.2982 42.3432 40.9604 41.8621C40.6226 41.3759 40.4281 40.8308 40.3769 40.2269L40.3693 40.1271H42.1887L42.2041 40.1808C42.2553 40.4828 42.3755 40.7566 42.5649 41.0023C42.7543 41.2479 42.9999 41.445 43.3019 41.5934C43.6039 41.7367 43.9442 41.8084 44.323 41.8084C44.7529 41.8084 45.1316 41.7137 45.4592 41.5243C45.7918 41.3349 46.0503 41.0739 46.2346 40.7413C46.4188 40.4035 46.5109 40.0196 46.5109 39.5897V39.5743C46.5109 39.1444 46.4163 38.7657 46.2269 38.4381C46.0426 38.1055 45.7867 37.847 45.4592 37.6627C45.1367 37.4734 44.7631 37.3787 44.3383 37.3787C44.0261 37.3787 43.7369 37.4248 43.4708 37.5169C43.2098 37.609 42.9769 37.7472 42.7722 37.9314C42.6698 38.0184 42.5752 38.1157 42.4881 38.2232C42.4011 38.3255 42.3244 38.4381 42.2578 38.561H40.5612L41.0986 32.0738H47.7469V33.6937H42.6417L42.3269 37.0716H42.4651C42.6187 36.8208 42.8131 36.6084 43.0486 36.4344C43.284 36.2553 43.5527 36.1196 43.8547 36.0275C44.1566 35.9303 44.4791 35.8817 44.822 35.8817C45.518 35.8817 46.1322 36.0403 46.6645 36.3576C47.2019 36.6698 47.6241 37.1023 47.9312 37.6551C48.2383 38.2027 48.3918 38.8297 48.3918 39.5359V39.5513C48.3918 40.319 48.2178 40.9946 47.8698 41.5781C47.5269 42.1564 47.0483 42.6093 46.4342 42.9369C45.82 43.2645 45.1137 43.4282 44.3153 43.4282ZM54.5565 43.4282C53.6762 43.4282 52.9213 43.1928 52.2918 42.7219C51.6674 42.2511 51.1863 41.5806 50.8485 40.7105C50.5107 39.8405 50.3418 38.8092 50.3418 37.6167V37.6013C50.3418 36.4088 50.5107 35.3801 50.8485 34.5151C51.1863 33.6451 51.6674 32.9746 52.2918 32.5037C52.9213 32.0329 53.6762 31.7974 54.5565 31.7974C55.4368 31.7974 56.1917 32.0329 56.8213 32.5037C57.4508 32.9746 57.9344 33.6451 58.2722 34.5151C58.61 35.3801 58.7789 36.4088 58.7789 37.6013V37.6167C58.7789 38.8092 58.61 39.8405 58.2722 40.7105C57.9344 41.5806 57.4508 42.2511 56.8213 42.7219C56.1917 43.1928 55.4368 43.4282 54.5565 43.4282ZM54.5565 41.8237C55.0274 41.8237 55.4291 41.6548 55.7618 41.317C56.0945 40.9792 56.3478 40.4981 56.5219 39.8737C56.701 39.2442 56.7906 38.4919 56.7906 37.6167V37.6013C56.7906 36.7261 56.701 35.9763 56.5219 35.3519C56.3478 34.7224 56.0945 34.2413 55.7618 33.9086C55.4291 33.5709 55.0274 33.402 54.5565 33.402C54.0857 33.402 53.6839 33.5709 53.3512 33.9086C53.0237 34.2413 52.7703 34.7224 52.5912 35.3519C52.4172 35.9763 52.3302 36.7261 52.3302 37.6013V37.6167C52.3302 38.4919 52.4172 39.2442 52.5912 39.8737C52.7703 40.4981 53.0237 40.9792 53.3512 41.317C53.6839 41.6548 54.0857 41.8237 54.5565 41.8237Z" fill="#232426"/>
<path d="M74.1863 32.0564L75.2344 34.1698C75.3773 34.464 75.7584 34.7462 76.08 34.8003L77.9796 35.1185C79.1944 35.3226 79.4803 36.2112 78.6049 37.0878L77.1281 38.5768C76.878 38.829 76.741 39.3153 76.8184 39.6636L77.2412 41.5068C77.5747 42.9658 76.8065 43.5302 75.5262 42.7677L73.7457 41.705C73.4241 41.5129 72.8942 41.5129 72.5666 41.705L70.7861 42.7677C69.5118 43.5302 68.7376 42.9598 69.0711 41.5068L69.4939 39.6636C69.5713 39.3153 69.4344 38.829 69.1842 38.5768L67.7074 37.0878C66.838 36.2112 67.1179 35.3226 68.3327 35.1185L70.2323 34.8003C70.5479 34.7462 70.929 34.464 71.0719 34.1698L72.12 32.0564C72.6917 30.9096 73.6206 30.9096 74.1863 32.0564Z" fill="#FFA514"/>
<path d="M24.9676 59.5107V58.9915L27.0111 56.7805C27.268 56.5013 27.469 56.271 27.6141 56.0896C27.7593 55.9053 27.8612 55.7392 27.9198 55.5912C27.9785 55.4433 28.0078 55.2814 28.0078 55.1055V55.0971C28.0078 54.885 27.9617 54.6951 27.8696 54.5276C27.7775 54.3601 27.6462 54.2275 27.476 54.1298C27.3057 54.0321 27.1019 53.9832 26.8646 53.9832C26.6245 53.9832 26.4137 54.0335 26.2323 54.134C26.0508 54.2317 25.9098 54.3699 25.8093 54.5486C25.7088 54.7244 25.6586 54.931 25.6586 55.1683L25.6544 55.1767L24.9341 55.1725L24.9258 55.1683C24.9286 54.811 25.0151 54.4941 25.1854 54.2177C25.3557 53.9386 25.5902 53.7208 25.8889 53.5645C26.1876 53.4054 26.5296 53.3258 26.9148 53.3258C27.2666 53.3258 27.5834 53.3998 27.8654 53.5477C28.1474 53.6929 28.3693 53.8925 28.5312 54.1466C28.6959 54.4006 28.7783 54.6909 28.7783 55.0176V55.0259C28.7783 55.2548 28.7378 55.4754 28.6568 55.6876C28.5787 55.8997 28.4391 56.1356 28.2381 56.3952C28.0371 56.6521 27.7537 56.9689 27.388 57.3458L25.8261 58.958L26.0145 58.6104V58.958L25.8303 58.8324H28.8788V59.5107H24.9676ZM30.3946 59.5107L33.1081 54.201V54.1424H29.8754V53.4682H33.8745V54.1675L31.1861 59.5107H30.3946ZM36.9565 59.6112C36.5405 59.6112 36.1776 59.5401 35.8677 59.3977C35.5578 59.2553 35.3122 59.0599 35.1307 58.8114C34.952 58.563 34.8487 58.2796 34.8208 57.9614L34.8166 57.9111H35.5411L35.5453 57.953C35.5648 58.1512 35.6346 58.3257 35.7546 58.4764C35.8775 58.6272 36.0408 58.7458 36.2446 58.8324C36.4512 58.9161 36.6885 58.958 36.9565 58.958C37.2217 58.958 37.4534 58.9119 37.6516 58.8198C37.8526 58.7277 38.0089 58.6007 38.1206 58.4387C38.2322 58.274 38.2881 58.0856 38.2881 57.8734V57.8651C38.2881 57.4938 38.1639 57.209 37.9154 57.0108C37.6697 56.8098 37.3347 56.7093 36.9104 56.7093H36.1525V56.0728H36.8769C37.117 56.0728 37.3291 56.0281 37.5134 55.9388C37.6976 55.8467 37.8414 55.7225 37.9447 55.5661C38.048 55.407 38.0996 55.2269 38.0996 55.0259V55.0176C38.0996 54.8054 38.055 54.6253 37.9656 54.4774C37.8763 54.3294 37.7451 54.2163 37.572 54.1382C37.4017 54.06 37.1937 54.0209 36.9481 54.0209C36.7108 54.0209 36.4986 54.0614 36.3116 54.1424C36.1273 54.2205 35.9794 54.3336 35.8677 54.4816C35.756 54.6295 35.689 54.8054 35.6667 55.0092L35.6625 55.0511H34.9381L34.9423 55.0092C34.9758 54.6798 35.0791 54.3922 35.2521 54.1466C35.428 53.9009 35.6597 53.7097 35.9473 53.5729C36.2376 53.4361 36.5712 53.3677 36.9481 53.3677C37.3333 53.3677 37.6683 53.4347 37.9531 53.5687C38.2406 53.6999 38.4626 53.8827 38.6189 54.1172C38.778 54.349 38.8576 54.6183 38.8576 54.9254V54.9338C38.8576 55.1823 38.8031 55.4028 38.6943 55.5954C38.5854 55.7881 38.4346 55.9486 38.242 56.077C38.0494 56.2054 37.8275 56.2961 37.5762 56.3492V56.3659C38.0173 56.4022 38.3732 56.5516 38.644 56.814C38.9176 57.0736 39.0544 57.4184 39.0544 57.8483V57.8567C39.0544 58.1917 38.9637 58.4918 38.7822 58.757C38.6007 59.0222 38.3523 59.2316 38.0368 59.3851C37.7214 59.5359 37.3612 59.6112 36.9565 59.6112Z" fill="#BEC0C5"/>
<path d="M24.9676 59.5107V58.9915L27.0111 56.7805C27.268 56.5013 27.469 56.271 27.6141 56.0896C27.7593 55.9053 27.8612 55.7392 27.9198 55.5912C27.9785 55.4433 28.0078 55.2814 28.0078 55.1055V55.0971C28.0078 54.885 27.9617 54.6951 27.8696 54.5276C27.7775 54.3601 27.6462 54.2275 27.476 54.1298C27.3057 54.0321 27.1019 53.9832 26.8646 53.9832C26.6245 53.9832 26.4137 54.0335 26.2323 54.134C26.0508 54.2317 25.9098 54.3699 25.8093 54.5486C25.7088 54.7244 25.6586 54.931 25.6586 55.1683L25.6544 55.1767L24.9341 55.1725L24.9258 55.1683C24.9286 54.811 25.0151 54.4941 25.1854 54.2177C25.3557 53.9386 25.5902 53.7208 25.8889 53.5645C26.1876 53.4054 26.5296 53.3258 26.9148 53.3258C27.2666 53.3258 27.5834 53.3998 27.8654 53.5477C28.1474 53.6929 28.3693 53.8925 28.5312 54.1466C28.6959 54.4006 28.7783 54.6909 28.7783 55.0176V55.0259C28.7783 55.2548 28.7378 55.4754 28.6568 55.6876C28.5787 55.8997 28.4391 56.1356 28.2381 56.3952C28.0371 56.6521 27.7537 56.9689 27.388 57.3458L25.8261 58.958L26.0145 58.6104V58.958L25.8303 58.8324H28.8788V59.5107H24.9676ZM30.3946 59.5107L33.1081 54.201V54.1424H29.8754V53.4682H33.8745V54.1675L31.1861 59.5107H30.3946ZM36.9565 59.6112C36.5405 59.6112 36.1776 59.5401 35.8677 59.3977C35.5578 59.2553 35.3122 59.0599 35.1307 58.8114C34.952 58.563 34.8487 58.2796 34.8208 57.9614L34.8166 57.9111H35.5411L35.5453 57.953C35.5648 58.1512 35.6346 58.3257 35.7546 58.4764C35.8775 58.6272 36.0408 58.7458 36.2446 58.8324C36.4512 58.9161 36.6885 58.958 36.9565 58.958C37.2217 58.958 37.4534 58.9119 37.6516 58.8198C37.8526 58.7277 38.0089 58.6007 38.1206 58.4387C38.2322 58.274 38.2881 58.0856 38.2881 57.8734V57.8651C38.2881 57.4938 38.1639 57.209 37.9154 57.0108C37.6697 56.8098 37.3347 56.7093 36.9104 56.7093H36.1525V56.0728H36.8769C37.117 56.0728 37.3291 56.0281 37.5134 55.9388C37.6976 55.8467 37.8414 55.7225 37.9447 55.5661C38.048 55.407 38.0996 55.2269 38.0996 55.0259V55.0176C38.0996 54.8054 38.055 54.6253 37.9656 54.4774C37.8763 54.3294 37.7451 54.2163 37.572 54.1382C37.4017 54.06 37.1937 54.0209 36.9481 54.0209C36.7108 54.0209 36.4986 54.0614 36.3116 54.1424C36.1273 54.2205 35.9794 54.3336 35.8677 54.4816C35.756 54.6295 35.689 54.8054 35.6667 55.0092L35.6625 55.0511H34.9381L34.9423 55.0092C34.9758 54.6798 35.0791 54.3922 35.2521 54.1466C35.428 53.9009 35.6597 53.7097 35.9473 53.5729C36.2376 53.4361 36.5712 53.3677 36.9481 53.3677C37.3333 53.3677 37.6683 53.4347 37.9531 53.5687C38.2406 53.6999 38.4626 53.8827 38.6189 54.1172C38.778 54.349 38.8576 54.6183 38.8576 54.9254V54.9338C38.8576 55.1823 38.8031 55.4028 38.6943 55.5954C38.5854 55.7881 38.4346 55.9486 38.242 56.077C38.0494 56.2054 37.8275 56.2961 37.5762 56.3492V56.3659C38.0173 56.4022 38.3732 56.5516 38.644 56.814C38.9176 57.0736 39.0544 57.4184 39.0544 57.8483V57.8567C39.0544 58.1917 38.9637 58.4918 38.7822 58.757C38.6007 59.0222 38.3523 59.2316 38.0368 59.3851C37.7214 59.5359 37.3612 59.6112 36.9565 59.6112Z" fill="black" fill-opacity="0.2"/>
<path d="M24.9676 59.5107V58.9915L27.0111 56.7805C27.268 56.5013 27.469 56.271 27.6141 56.0896C27.7593 55.9053 27.8612 55.7392 27.9198 55.5912C27.9785 55.4433 28.0078 55.2814 28.0078 55.1055V55.0971C28.0078 54.885 27.9617 54.6951 27.8696 54.5276C27.7775 54.3601 27.6462 54.2275 27.476 54.1298C27.3057 54.0321 27.1019 53.9832 26.8646 53.9832C26.6245 53.9832 26.4137 54.0335 26.2323 54.134C26.0508 54.2317 25.9098 54.3699 25.8093 54.5486C25.7088 54.7244 25.6586 54.931 25.6586 55.1683L25.6544 55.1767L24.9341 55.1725L24.9258 55.1683C24.9286 54.811 25.0151 54.4941 25.1854 54.2177C25.3557 53.9386 25.5902 53.7208 25.8889 53.5645C26.1876 53.4054 26.5296 53.3258 26.9148 53.3258C27.2666 53.3258 27.5834 53.3998 27.8654 53.5477C28.1474 53.6929 28.3693 53.8925 28.5312 54.1466C28.6959 54.4006 28.7783 54.6909 28.7783 55.0176V55.0259C28.7783 55.2548 28.7378 55.4754 28.6568 55.6876C28.5787 55.8997 28.4391 56.1356 28.2381 56.3952C28.0371 56.6521 27.7537 56.9689 27.388 57.3458L25.8261 58.958L26.0145 58.6104V58.958L25.8303 58.8324H28.8788V59.5107H24.9676ZM30.3946 59.5107L33.1081 54.201V54.1424H29.8754V53.4682H33.8745V54.1675L31.1861 59.5107H30.3946ZM36.9565 59.6112C36.5405 59.6112 36.1776 59.5401 35.8677 59.3977C35.5578 59.2553 35.3122 59.0599 35.1307 58.8114C34.952 58.563 34.8487 58.2796 34.8208 57.9614L34.8166 57.9111H35.5411L35.5453 57.953C35.5648 58.1512 35.6346 58.3257 35.7546 58.4764C35.8775 58.6272 36.0408 58.7458 36.2446 58.8324C36.4512 58.9161 36.6885 58.958 36.9565 58.958C37.2217 58.958 37.4534 58.9119 37.6516 58.8198C37.8526 58.7277 38.0089 58.6007 38.1206 58.4387C38.2322 58.274 38.2881 58.0856 38.2881 57.8734V57.8651C38.2881 57.4938 38.1639 57.209 37.9154 57.0108C37.6697 56.8098 37.3347 56.7093 36.9104 56.7093H36.1525V56.0728H36.8769C37.117 56.0728 37.3291 56.0281 37.5134 55.9388C37.6976 55.8467 37.8414 55.7225 37.9447 55.5661C38.048 55.407 38.0996 55.2269 38.0996 55.0259V55.0176C38.0996 54.8054 38.055 54.6253 37.9656 54.4774C37.8763 54.3294 37.7451 54.2163 37.572 54.1382C37.4017 54.06 37.1937 54.0209 36.9481 54.0209C36.7108 54.0209 36.4986 54.0614 36.3116 54.1424C36.1273 54.2205 35.9794 54.3336 35.8677 54.4816C35.756 54.6295 35.689 54.8054 35.6667 55.0092L35.6625 55.0511H34.9381L34.9423 55.0092C34.9758 54.6798 35.0791 54.3922 35.2521 54.1466C35.428 53.9009 35.6597 53.7097 35.9473 53.5729C36.2376 53.4361 36.5712 53.3677 36.9481 53.3677C37.3333 53.3677 37.6683 53.4347 37.9531 53.5687C38.2406 53.6999 38.4626 53.8827 38.6189 54.1172C38.778 54.349 38.8576 54.6183 38.8576 54.9254V54.9338C38.8576 55.1823 38.8031 55.4028 38.6943 55.5954C38.5854 55.7881 38.4346 55.9486 38.242 56.077C38.0494 56.2054 37.8275 56.2961 37.5762 56.3492V56.3659C38.0173 56.4022 38.3732 56.5516 38.644 56.814C38.9176 57.0736 39.0544 57.4184 39.0544 57.8483V57.8567C39.0544 58.1917 38.9637 58.4918 38.7822 58.757C38.6007 59.0222 38.3523 59.2316 38.0368 59.3851C37.7214 59.5359 37.3612 59.6112 36.9565 59.6112Z" fill="black" fill-opacity="0.2"/>
<path d="M42.6148 52.33H46.0881V57.5786H42.6148V52.33ZM45.462 57.004V55.9148H43.2323V57.004H45.462ZM43.2323 55.3745H45.462V54.3711H43.2323V55.3745ZM43.2323 53.8223H45.462V52.8961H43.2323V53.8223ZM45.1619 57.8101C45.745 58.3933 46.191 58.9164 46.4997 59.3624L46.0195 59.6968C45.6936 59.208 45.2562 58.6763 44.7073 58.0931L45.1619 57.8101ZM43.4638 57.8273L43.9698 58.076C43.6439 58.6506 43.2237 59.2166 42.7006 59.7654L42.1689 59.491C42.7091 58.9336 43.1379 58.3761 43.4638 57.8273ZM47.1344 52.7674H47.7347V58.1017H47.1344V52.7674ZM48.7809 59.7826H47.5289L47.3916 59.1823C47.8033 59.1994 48.1978 59.2166 48.5665 59.2166C48.8324 59.2166 48.9696 59.0965 48.9696 58.8564V52.0299H49.5871V59.0107C49.5871 59.5253 49.3127 59.7826 48.7809 59.7826Z" fill="#BEC0C5"/>
<path d="M42.6148 52.33H46.0881V57.5786H42.6148V52.33ZM45.462 57.004V55.9148H43.2323V57.004H45.462ZM43.2323 55.3745H45.462V54.3711H43.2323V55.3745ZM43.2323 53.8223H45.462V52.8961H43.2323V53.8223ZM45.1619 57.8101C45.745 58.3933 46.191 58.9164 46.4997 59.3624L46.0195 59.6968C45.6936 59.208 45.2562 58.6763 44.7073 58.0931L45.1619 57.8101ZM43.4638 57.8273L43.9698 58.076C43.6439 58.6506 43.2237 59.2166 42.7006 59.7654L42.1689 59.491C42.7091 58.9336 43.1379 58.3761 43.4638 57.8273ZM47.1344 52.7674H47.7347V58.1017H47.1344V52.7674ZM48.7809 59.7826H47.5289L47.3916 59.1823C47.8033 59.1994 48.1978 59.2166 48.5665 59.2166C48.8324 59.2166 48.9696 59.0965 48.9696 58.8564V52.0299H49.5871V59.0107C49.5871 59.5253 49.3127 59.7826 48.7809 59.7826Z" fill="black" fill-opacity="0.2"/>
<path d="M42.6148 52.33H46.0881V57.5786H42.6148V52.33ZM45.462 57.004V55.9148H43.2323V57.004H45.462ZM43.2323 55.3745H45.462V54.3711H43.2323V55.3745ZM43.2323 53.8223H45.462V52.8961H43.2323V53.8223ZM45.1619 57.8101C45.745 58.3933 46.191 58.9164 46.4997 59.3624L46.0195 59.6968C45.6936 59.208 45.2562 58.6763 44.7073 58.0931L45.1619 57.8101ZM43.4638 57.8273L43.9698 58.076C43.6439 58.6506 43.2237 59.2166 42.7006 59.7654L42.1689 59.491C42.7091 58.9336 43.1379 58.3761 43.4638 57.8273ZM47.1344 52.7674H47.7347V58.1017H47.1344V52.7674ZM48.7809 59.7826H47.5289L47.3916 59.1823C47.8033 59.1994 48.1978 59.2166 48.5665 59.2166C48.8324 59.2166 48.9696 59.0965 48.9696 58.8564V52.0299H49.5871V59.0107C49.5871 59.5253 49.3127 59.7826 48.7809 59.7826Z" fill="black" fill-opacity="0.2"/>
<path d="M98.9075 36.3061C98.5022 36.3061 98.1408 36.226 97.8233 36.0657C97.5057 35.9054 97.2502 35.6876 97.0566 35.4124C96.8661 35.1342 96.7542 34.8212 96.7209 34.4734L96.7164 34.4235H97.5012L97.5057 34.4598C97.533 34.6684 97.6086 34.859 97.7326 35.0314C97.8596 35.2007 98.0244 35.3353 98.227 35.4351C98.4327 35.5349 98.6625 35.5848 98.9166 35.5848C99.2069 35.5848 99.4625 35.5213 99.6832 35.3943C99.904 35.2642 100.076 35.0858 100.2 34.859C100.324 34.6321 100.386 34.3721 100.386 34.0787V34.0696C100.386 33.7793 100.323 33.5222 100.196 33.2984C100.072 33.0716 99.901 32.8947 99.6832 32.7677C99.4655 32.6406 99.2145 32.5771 98.9302 32.5771C98.7124 32.5771 98.5113 32.6104 98.3268 32.6769C98.1454 32.7435 97.9836 32.8433 97.8414 32.9763C97.784 33.0308 97.7295 33.0897 97.6781 33.1533C97.6297 33.2168 97.5844 33.2878 97.542 33.3665H96.8343L97.1791 29.6057H100.822V30.3361H97.8233L97.601 32.5499H97.6736C97.7704 32.4017 97.8898 32.2777 98.032 32.1779C98.1741 32.0781 98.3329 32.0025 98.5083 31.9511C98.6867 31.8967 98.8742 31.8694 99.0708 31.8694C99.4821 31.8694 99.8466 31.9647 100.164 32.1552C100.482 32.3427 100.731 32.6013 100.913 32.931C101.094 33.2576 101.185 33.6326 101.185 34.056V34.0651C101.185 34.5036 101.087 34.8922 100.89 35.231C100.696 35.5667 100.429 35.8298 100.087 36.0203C99.7452 36.2108 99.3521 36.3061 98.9075 36.3061Z" fill="#808690"/>
<rect x="107.744" y="30.293" width="131.499" height="5.71733" rx="1.42933" fill="#FFA514"/>
<path d="M247.235 35.7356C246.889 35.7356 246.586 35.6763 246.328 35.5576C246.07 35.439 245.865 35.2761 245.714 35.0691C245.565 34.862 245.479 34.6259 245.456 34.3607L245.452 34.3188H246.056L246.059 34.3537C246.076 34.5189 246.134 34.6643 246.234 34.7899C246.336 34.9156 246.472 35.0144 246.642 35.0865C246.814 35.1563 247.012 35.1912 247.235 35.1912C247.456 35.1912 247.65 35.1528 247.815 35.0761C247.982 34.9993 248.112 34.8935 248.206 34.7585C248.299 34.6213 248.345 34.4642 248.345 34.2874V34.2804C248.345 33.971 248.242 33.7337 248.035 33.5686C247.83 33.4011 247.551 33.3173 247.197 33.3173H246.565V32.7869H247.169C247.369 32.7869 247.546 32.7497 247.7 32.6752C247.853 32.5985 247.973 32.4949 248.059 32.3647C248.145 32.2321 248.188 32.082 248.188 31.9145V31.9075C248.188 31.7307 248.151 31.5807 248.076 31.4574C248.002 31.3341 247.893 31.2399 247.748 31.1747C247.606 31.1096 247.433 31.077 247.228 31.077C247.031 31.077 246.854 31.1107 246.698 31.1782C246.544 31.2433 246.421 31.3376 246.328 31.4609C246.235 31.5842 246.179 31.7307 246.161 31.9006L246.157 31.9354H245.553L245.557 31.9006C245.585 31.626 245.671 31.3864 245.815 31.1817C245.962 30.977 246.155 30.8176 246.394 30.7036C246.636 30.5896 246.914 30.5326 247.228 30.5326C247.549 30.5326 247.829 30.5885 248.066 30.7001C248.306 30.8095 248.491 30.9619 248.621 31.1573C248.753 31.3504 248.82 31.5749 248.82 31.8308V31.8377C248.82 32.0448 248.774 32.2286 248.684 32.3891C248.593 32.5496 248.467 32.6834 248.307 32.7904C248.146 32.8974 247.961 32.973 247.752 33.0172V33.0312C248.119 33.0614 248.416 33.1859 248.642 33.4046C248.87 33.6209 248.984 33.9082 248.984 34.2665V34.2735C248.984 34.5526 248.908 34.8027 248.757 35.0237C248.606 35.2447 248.399 35.4192 248.136 35.5472C247.873 35.6728 247.573 35.7356 247.235 35.7356ZM249.68 36.9325L249.983 34.947H250.678L250.13 36.9325H249.68ZM254.113 35.6519V34.6085H251.66V34.0362C251.797 33.8082 251.937 33.5779 252.079 33.3452C252.221 33.1103 252.364 32.8765 252.508 32.6438C252.655 32.4089 252.801 32.1762 252.948 31.9459C253.094 31.7156 253.24 31.4888 253.384 31.2654C253.53 31.0421 253.675 30.8258 253.817 30.6164H254.727V34.0466H255.443V34.6085H254.727V35.6519H254.113ZM252.302 34.0501H254.117V31.1991H254.075C253.961 31.369 253.845 31.5458 253.726 31.7296C253.607 31.911 253.486 32.0971 253.363 32.2879C253.242 32.4787 253.121 32.6706 253 32.8637C252.879 33.0568 252.759 33.2499 252.641 33.4429C252.524 33.6337 252.411 33.8222 252.302 34.0083V34.0501ZM258.138 35.7705C257.827 35.7705 257.549 35.7089 257.304 35.5856C257.06 35.4623 256.864 35.2948 256.715 35.0831C256.568 34.869 256.482 34.6282 256.456 34.3607L256.453 34.3223H257.057L257.06 34.3502C257.081 34.5108 257.139 34.6573 257.235 34.7899C257.332 34.9202 257.459 35.0237 257.615 35.1005C257.773 35.1773 257.95 35.2157 258.145 35.2157C258.369 35.2157 258.565 35.1668 258.735 35.0691C258.905 34.9691 259.038 34.8318 259.133 34.6573C259.228 34.4828 259.276 34.2828 259.276 34.0571V34.0501C259.276 33.8268 259.227 33.6291 259.129 33.4569C259.034 33.2824 258.903 33.1463 258.735 33.0486C258.568 32.9509 258.375 32.9021 258.156 32.9021C257.988 32.9021 257.834 32.9277 257.692 32.9788C257.552 33.03 257.428 33.1068 257.318 33.2091C257.274 33.251 257.232 33.2964 257.193 33.3452C257.156 33.3941 257.121 33.4488 257.088 33.5093H256.544L256.809 30.6164H259.611V31.1782H257.304L257.133 32.8811H257.189C257.264 32.7671 257.356 32.6718 257.465 32.595C257.574 32.5182 257.696 32.46 257.831 32.4205C257.969 32.3786 258.113 32.3577 258.264 32.3577C258.58 32.3577 258.861 32.431 259.105 32.5775C259.349 32.7218 259.541 32.9207 259.681 33.1743C259.82 33.4255 259.89 33.714 259.89 34.0397V34.0466C259.89 34.384 259.815 34.6829 259.663 34.9435C259.514 35.2017 259.309 35.4041 259.046 35.5507C258.783 35.6972 258.48 35.7705 258.138 35.7705ZM262.659 35.7705C262.287 35.7705 261.968 35.6635 261.703 35.4495C261.44 35.2354 261.238 34.9318 261.096 34.5387C260.954 34.1432 260.883 33.6756 260.883 33.1359V33.1289C260.883 32.5892 260.954 32.1227 261.096 31.7296C261.238 31.3364 261.44 31.0328 261.703 30.8188C261.968 30.6048 262.287 30.4977 262.659 30.4977C263.031 30.4977 263.35 30.6048 263.615 30.8188C263.88 31.0328 264.084 31.3364 264.226 31.7296C264.37 32.1227 264.442 32.5892 264.442 33.1289V33.1359C264.442 33.6756 264.37 34.1432 264.226 34.5387C264.084 34.9318 263.88 35.2354 263.615 35.4495C263.35 35.6635 263.031 35.7705 262.659 35.7705ZM262.659 35.2226C262.901 35.2226 263.107 35.1377 263.277 34.9679C263.449 34.7981 263.58 34.5573 263.671 34.2456C263.764 33.9338 263.811 33.5639 263.811 33.1359V33.1289C263.811 32.7008 263.764 32.3321 263.671 32.0227C263.58 31.711 263.449 31.4713 263.277 31.3038C263.107 31.134 262.901 31.0491 262.659 31.0491C262.419 31.0491 262.214 31.134 262.041 31.3038C261.872 31.4713 261.741 31.711 261.651 32.0227C261.56 32.3321 261.515 32.7008 261.515 33.1289V33.1359C261.515 33.5639 261.56 33.9338 261.651 34.2456C261.741 34.5573 261.872 34.7981 262.041 34.9679C262.214 35.1377 262.419 35.2226 262.659 35.2226Z" fill="#808690"/>
<path d="M99.7468 53.8691V52.5127H96.5576V51.7688C96.7361 51.4724 96.9175 51.173 97.102 50.8705C97.2865 50.5651 97.4725 50.2611 97.66 49.9587C97.8505 49.6533 98.041 49.3508 98.2316 49.0514C98.4221 48.752 98.6111 48.4571 98.7986 48.1668C98.9892 47.8765 99.1767 47.5952 99.3612 47.323H100.545V51.7824H101.475V52.5127H100.545V53.8691H99.7468ZM97.3923 51.7869H99.7513V48.0806H99.6969C99.5487 48.3014 99.3974 48.5312 99.2432 48.7702C99.089 49.0061 98.9317 49.248 98.7714 49.496C98.6141 49.744 98.4569 49.9935 98.2996 50.2445C98.1424 50.4955 97.9866 50.7465 97.8324 50.9976C97.6812 51.2456 97.5345 51.4905 97.3923 51.7325V51.7869Z" fill="#808690"/>
<rect x="107.744" y="48.0103" width="131.499" height="5.71733" rx="1.42933" fill="#F6F8FA"/>
<path d="M107.744 49.4396C107.744 48.6502 108.384 48.0103 109.173 48.0103H212.943V53.7276H109.173C108.384 53.7276 107.744 53.0877 107.744 52.2983V49.4396Z" fill="#FFA514"/>
<path d="M253.832 53.3691V52.3258H251.379V51.7535C251.516 51.5255 251.656 51.2952 251.798 51.0625C251.94 50.8276 252.083 50.5938 252.227 50.3611C252.374 50.1262 252.52 49.8935 252.667 49.6632C252.813 49.4329 252.959 49.2061 253.103 48.9827C253.25 48.7594 253.394 48.543 253.536 48.3337H254.447V51.7639H255.162V52.3258H254.447V53.3691H253.832ZM252.021 51.7674H253.836V48.9164H253.794C253.68 49.0863 253.564 49.2631 253.445 49.4468C253.326 49.6283 253.205 49.8144 253.082 50.0052C252.961 50.1959 252.84 50.3879 252.719 50.581C252.598 50.7741 252.478 50.9671 252.36 51.1602C252.243 51.351 252.131 51.5394 252.021 51.7255V51.7674ZM257.917 53.4529C257.57 53.4529 257.268 53.3936 257.01 53.2749C256.751 53.1563 256.547 52.9934 256.395 52.7864C256.247 52.5793 256.16 52.3432 256.137 52.078L256.134 52.0361H256.737L256.741 52.071C256.757 52.2362 256.815 52.3816 256.915 52.5072C257.018 52.6328 257.154 52.7317 257.324 52.8038C257.496 52.8736 257.694 52.9085 257.917 52.9085C258.138 52.9085 258.331 52.8701 258.496 52.7934C258.664 52.7166 258.794 52.6107 258.887 52.4758C258.98 52.3386 259.027 52.1815 259.027 52.0047V51.9977C259.027 51.6883 258.923 51.451 258.716 51.2859C258.511 51.1184 258.232 51.0346 257.879 51.0346H257.247V50.5042H257.851C258.051 50.5042 258.227 50.467 258.381 50.3925C258.535 50.3158 258.654 50.2122 258.74 50.082C258.827 49.9493 258.87 49.7993 258.87 49.6318V49.6248C258.87 49.448 258.832 49.298 258.758 49.1747C258.683 49.0514 258.574 48.9571 258.43 48.892C258.288 48.8269 258.115 48.7943 257.91 48.7943C257.712 48.7943 257.535 48.828 257.379 48.8955C257.226 48.9606 257.103 49.0549 257.01 49.1782C256.917 49.3014 256.861 49.448 256.842 49.6178L256.839 49.6527H256.235L256.238 49.6178C256.266 49.3433 256.352 49.1037 256.497 48.899C256.643 48.6943 256.836 48.5349 257.076 48.4209C257.318 48.3069 257.596 48.2499 257.91 48.2499C258.231 48.2499 258.51 48.3058 258.747 48.4174C258.987 48.5268 259.172 48.6791 259.302 48.8746C259.435 49.0676 259.501 49.2921 259.501 49.548V49.555C259.501 49.7621 259.456 49.9459 259.365 50.1064C259.274 50.2669 259.149 50.4007 258.988 50.5077C258.828 50.6147 258.643 50.6903 258.433 50.7345V50.7485C258.801 50.7787 259.098 50.9032 259.323 51.1218C259.551 51.3382 259.665 51.6255 259.665 51.9838V51.9908C259.665 52.2699 259.59 52.52 259.438 52.741C259.287 52.962 259.08 53.1365 258.817 53.2645C258.554 53.3901 258.254 53.4529 257.917 53.4529ZM260.965 53.3691L263.226 48.9443V48.8955H260.532V48.3337H263.865V48.9164L261.625 53.3691H260.965Z" fill="#808690"/>
<path d="M98.9846 71.6953C98.534 71.6953 98.1408 71.6182 97.8051 71.4639C97.4694 71.3097 97.2033 71.098 97.0067 70.8288C96.8132 70.5597 96.7013 70.2527 96.671 69.9079L96.6665 69.8535H97.4513L97.4558 69.8989C97.477 70.1136 97.5526 70.3026 97.6827 70.4659C97.8157 70.6292 97.9927 70.7578 98.2134 70.8515C98.4372 70.9422 98.6943 70.9876 98.9846 70.9876C99.2719 70.9876 99.523 70.9377 99.7377 70.8379C99.9554 70.7381 100.125 70.6005 100.246 70.4251C100.367 70.2467 100.427 70.0425 100.427 69.8127V69.8036C100.427 69.4014 100.293 69.0929 100.023 68.8782C99.7573 68.6604 99.3944 68.5515 98.9347 68.5515H98.1136V67.862H98.8984C99.1585 67.862 99.3884 67.8136 99.588 67.7168C99.7876 67.617 99.9433 67.4824 100.055 67.3131C100.167 67.1407 100.223 66.9456 100.223 66.7279V66.7188C100.223 66.489 100.175 66.2939 100.078 66.1336C99.9811 65.9733 99.839 65.8508 99.6515 65.7661C99.467 65.6815 99.2417 65.6391 98.9756 65.6391C98.7185 65.6391 98.4886 65.683 98.286 65.7707C98.0864 65.8554 97.9261 65.9779 97.8051 66.1381C97.6842 66.2984 97.6116 66.489 97.5874 66.7097L97.5829 66.7551H96.7981L96.8026 66.7097C96.8389 66.3529 96.9508 66.0414 97.1383 65.7752C97.3288 65.5091 97.5798 65.3019 97.8913 65.1537C98.2059 65.0055 98.5673 64.9314 98.9756 64.9314C99.3929 64.9314 99.7558 65.004 100.064 65.1492C100.376 65.2913 100.616 65.4894 100.786 65.7435C100.958 65.9945 101.044 66.2863 101.044 66.619V66.6281C101.044 66.8972 100.985 67.1362 100.867 67.3448C100.749 67.5535 100.586 67.7274 100.377 67.8665C100.169 68.0056 99.9282 68.1039 99.656 68.1614V68.1795C100.134 68.2189 100.519 68.3807 100.813 68.6649C101.109 68.9462 101.257 69.3197 101.257 69.7855V69.7945C101.257 70.1574 101.159 70.4826 100.963 70.7699C100.766 71.0572 100.497 71.284 100.155 71.4503C99.8133 71.6136 99.4232 71.6953 98.9846 71.6953Z" fill="#808690"/>
<rect x="107.744" y="65.7275" width="131.499" height="5.71733" rx="1.42933" fill="#F6F8FA"/>
<path d="M107.744 67.1569C107.744 66.3675 108.384 65.7275 109.173 65.7275H186.643V71.4449H109.173C108.384 71.4449 107.744 70.8049 107.744 70.0155V67.1569Z" fill="#FFA514"/>
<path d="M252.533 71.0864V70.6537L254.236 68.8112C254.45 68.5786 254.617 68.3867 254.738 68.2354C254.859 68.0819 254.944 67.9435 254.993 67.8202C255.042 67.6969 255.066 67.5619 255.066 67.4154V67.4084C255.066 67.2316 255.028 67.0734 254.951 66.9338C254.874 66.7942 254.765 66.6837 254.623 66.6023C254.481 66.5209 254.311 66.4802 254.114 66.4802C253.913 66.4802 253.738 66.5221 253.587 66.6058C253.435 66.6872 253.318 66.8024 253.234 66.9513C253.15 67.0978 253.109 67.27 253.109 67.4677L253.105 67.4747L252.505 67.4712L252.498 67.4677C252.5 67.17 252.572 66.9059 252.714 66.6756C252.856 66.443 253.052 66.2615 253.3 66.1312C253.549 65.9986 253.834 65.9323 254.155 65.9323C254.449 65.9323 254.713 65.994 254.948 66.1173C255.183 66.2382 255.367 66.4046 255.502 66.6163C255.64 66.828 255.708 67.0699 255.708 67.3421V67.3491C255.708 67.5398 255.675 67.7236 255.607 67.9004C255.542 68.0772 255.426 68.2738 255.258 68.4902C255.091 68.7042 254.855 68.9682 254.55 69.2823L253.248 70.6258L253.405 70.3362V70.6258L253.252 70.5211H255.792V71.0864H252.533ZM258.631 71.1702C258.284 71.1702 257.982 71.1109 257.723 70.9922C257.465 70.8736 257.261 70.7107 257.109 70.5037C256.96 70.2966 256.874 70.0605 256.851 69.7953L256.848 69.7534H257.451L257.455 69.7883C257.471 69.9535 257.529 70.0989 257.629 70.2245C257.732 70.3501 257.868 70.449 258.038 70.5211C258.21 70.5909 258.407 70.6258 258.631 70.6258C258.852 70.6258 259.045 70.5874 259.21 70.5106C259.378 70.4339 259.508 70.328 259.601 70.1931C259.694 70.0558 259.74 69.8988 259.74 69.722V69.715C259.74 69.4056 259.637 69.1683 259.43 69.0031C259.225 68.8356 258.946 68.7519 258.592 68.7519H257.961V68.2215H258.564C258.765 68.2215 258.941 68.1843 259.095 68.1098C259.248 68.033 259.368 67.9295 259.454 67.7992C259.54 67.6666 259.583 67.5166 259.583 67.3491V67.3421C259.583 67.1653 259.546 67.0152 259.472 66.8919C259.397 66.7686 259.288 66.6744 259.144 66.6093C259.002 66.5442 258.828 66.5116 258.624 66.5116C258.426 66.5116 258.249 66.5453 258.093 66.6128C257.94 66.6779 257.817 66.7721 257.723 66.8954C257.63 67.0187 257.575 67.1653 257.556 67.3351L257.552 67.37H256.949L256.952 67.3351C256.98 67.0606 257.066 66.821 257.21 66.6163C257.357 66.4115 257.55 66.2522 257.79 66.1382C258.032 66.0242 258.31 65.9672 258.624 65.9672C258.945 65.9672 259.224 66.023 259.461 66.1347C259.701 66.244 259.886 66.3964 260.016 66.5918C260.149 66.7849 260.215 67.0094 260.215 67.2653V67.2723C260.215 67.4794 260.17 67.6631 260.079 67.8237C259.988 67.9842 259.863 68.118 259.702 68.225C259.542 68.332 259.357 68.4076 259.147 68.4518V68.4657C259.515 68.496 259.811 68.6205 260.037 68.8391C260.265 69.0555 260.379 69.3428 260.379 69.7011V69.708C260.379 69.9872 260.303 70.2373 260.152 70.4583C260.001 70.6793 259.794 70.8538 259.531 70.9817C259.268 71.1074 258.968 71.1702 258.631 71.1702ZM262.701 71.0864V66.7489H262.645L261.365 67.6771V67.0141L262.705 66.051H263.329V71.0864H262.701Z" fill="#808690"/>
<path d="M96.7572 89.3037V88.7412L98.971 86.3459C99.2493 86.0435 99.467 85.794 99.6243 85.5974C99.7815 85.3978 99.8919 85.2179 99.9554 85.0576C100.019 84.8973 100.051 84.7219 100.051 84.5314V84.5223C100.051 84.2924 100.001 84.0868 99.901 83.9053C99.8012 83.7239 99.659 83.5802 99.4746 83.4744C99.2901 83.3685 99.0693 83.3156 98.8122 83.3156C98.5522 83.3156 98.3238 83.37 98.1272 83.4789C97.9307 83.5847 97.7779 83.7345 97.6691 83.928C97.5602 84.1185 97.5057 84.3423 97.5057 84.5994L97.5012 84.6085L96.7209 84.6039L96.7119 84.5994C96.7149 84.2123 96.8086 83.869 96.9931 83.5696C97.1776 83.2672 97.4316 83.0313 97.7552 82.8619C98.0788 82.6896 98.4493 82.6034 98.8667 82.6034C99.2477 82.6034 99.591 82.6835 99.8965 82.8438C100.202 83.0011 100.442 83.2173 100.618 83.4925C100.796 83.7677 100.885 84.0822 100.885 84.4361V84.4452C100.885 84.6932 100.842 84.9321 100.754 85.1619C100.669 85.3918 100.518 85.6473 100.3 85.9286C100.082 86.2068 99.7755 86.5501 99.3793 86.9584L97.6872 88.7049L97.8913 88.3284V88.7049L97.6917 88.5688H100.994V89.3037H96.7572Z" fill="#808690"/>
<rect x="107.744" y="83.4448" width="132.213" height="5.71733" rx="1.42933" fill="#F6F8FA"/>
<path d="M107.744 84.8742C107.744 84.0848 108.384 83.4448 109.173 83.4448H160.629V89.1622H109.173C108.384 89.1622 107.744 88.5222 107.744 87.7328V84.8742Z" fill="#FFA514"/>
<path d="M257.247 88.8037V88.371L258.95 86.5285C259.164 86.2959 259.332 86.1039 259.453 85.9527C259.574 85.7992 259.659 85.6608 259.708 85.5375C259.756 85.4142 259.781 85.2792 259.781 85.1327V85.1257C259.781 84.9489 259.742 84.7907 259.666 84.6511C259.589 84.5115 259.48 84.401 259.338 84.3196C259.196 84.2382 259.026 84.1975 258.828 84.1975C258.628 84.1975 258.452 84.2393 258.301 84.3231C258.15 84.4045 258.033 84.5197 257.949 84.6686C257.865 84.8151 257.823 84.9873 257.823 85.185L257.82 85.192L257.219 85.1885L257.212 85.185C257.215 84.8872 257.287 84.6232 257.429 84.3929C257.571 84.1602 257.766 83.9788 258.015 83.8485C258.264 83.7159 258.549 83.6496 258.87 83.6496C259.163 83.6496 259.427 83.7112 259.662 83.8345C259.897 83.9555 260.082 84.1219 260.217 84.3336C260.354 84.5453 260.423 84.7872 260.423 85.0594V85.0664C260.423 85.2571 260.389 85.4409 260.322 85.6177C260.257 85.7945 260.14 85.9911 259.973 86.2075C259.805 86.4215 259.569 86.6855 259.264 86.9996L257.963 88.3431L258.12 88.0535V88.3431L257.966 88.2384H260.507V88.8037H257.247ZM263.345 88.8875C262.999 88.8875 262.696 88.8281 262.438 88.7095C262.18 88.5908 261.975 88.428 261.824 88.221C261.675 88.0139 261.589 87.7778 261.566 87.5126L261.562 87.4707H262.166L262.169 87.5056C262.186 87.6708 262.244 87.8162 262.344 87.9418C262.446 88.0674 262.582 88.1663 262.752 88.2384C262.924 88.3082 263.122 88.3431 263.345 88.3431C263.566 88.3431 263.759 88.3047 263.925 88.2279C264.092 88.1512 264.222 88.0453 264.315 87.9104C264.409 87.7731 264.455 87.6161 264.455 87.4393V87.4323C264.455 87.1229 264.352 86.8856 264.144 86.7204C263.94 86.5529 263.661 86.4692 263.307 86.4692H262.675V85.9388H263.279C263.479 85.9388 263.656 85.9015 263.809 85.8271C263.963 85.7503 264.083 85.6468 264.169 85.5165C264.255 85.3839 264.298 85.2339 264.298 85.0664V85.0594C264.298 84.8826 264.261 84.7325 264.186 84.6092C264.112 84.4859 264.003 84.3917 263.858 84.3266C263.716 84.2614 263.543 84.2289 263.338 84.2289C263.141 84.2289 262.964 84.2626 262.808 84.3301C262.654 84.3952 262.531 84.4894 262.438 84.6127C262.345 84.736 262.289 84.8826 262.271 85.0524L262.267 85.0873H261.663L261.667 85.0524C261.695 84.7779 261.781 84.5383 261.925 84.3336C262.072 84.1288 262.265 83.9695 262.504 83.8555C262.746 83.7415 263.024 83.6845 263.338 83.6845C263.659 83.6845 263.939 83.7403 264.176 83.852C264.415 83.9613 264.6 84.1137 264.731 84.3091C264.863 84.5022 264.93 84.7267 264.93 84.9826V84.9896C264.93 85.1966 264.884 85.3804 264.794 85.541C264.703 85.7015 264.577 85.8352 264.417 85.9423C264.256 86.0493 264.071 86.1249 263.862 86.1691V86.183C264.229 86.2133 264.526 86.3377 264.752 86.5564C264.98 86.7728 265.094 87.0601 265.094 87.4183V87.4253C265.094 87.7045 265.018 87.9546 264.867 88.1756C264.716 88.3966 264.509 88.5711 264.246 88.699C263.983 88.8246 263.683 88.8875 263.345 88.8875Z" fill="#808690"/>
<path d="M98.3586 107.021V101.382H98.286L96.6211 102.589V101.727L98.3631 100.475H99.1752V107.021H98.3586Z" fill="#808690"/>
<rect x="106.744" y="101.162" width="132.928" height="5.71733" rx="1.42933" fill="#F6F8FA"/>
<path d="M106.744 102.591C106.744 101.802 107.384 101.162 108.173 101.162H133.33V106.879H108.173C107.384 106.879 106.744 106.24 106.744 105.45V102.591Z" fill="#FFA514"/>
<path d="M263.194 106.521V102.183H263.138L261.857 103.112V102.449L263.197 101.486H263.822V106.521H263.194Z" fill="#808690"/>
</g>
<defs>
<filter id="filter0_d_265_1436" x="0" y="0" width="288" height="137.173" filterUnits="userSpaceOnUse" color-interpolation-filters="sRGB">
<feFlood flood-opacity="0" result="BackgroundImageFix"/>
<feColorMatrix in="SourceAlpha" type="matrix" values="0 0 0 0 0 0 0 0 0 0 0 0 0 0 0 0 0 0 127 0" result="hardAlpha"/>
<feOffset/>
<feGaussianBlur stdDeviation="5"/>
<feComposite in2="hardAlpha" operator="out"/>
<feColorMatrix type="matrix" values="0 0 0 0 0 0 0 0 0 0 0 0 0 0 0 0 0 0 0.06 0"/>
<feBlend mode="normal" in2="BackgroundImageFix" result="effect1_dropShadow_265_1436"/>
<feBlend mode="normal" in="SourceGraphic" in2="effect1_dropShadow_265_1436" result="shape"/>
</filter>
</defs>
</svg>
