<svg width="321" height="106" viewBox="0 0 321 106" fill="none" xmlns="http://www.w3.org/2000/svg">
<g filter="url(#filter0_d_265_1411)">
<rect x="10" y="10.7373" width="301" height="56.5864" rx="9.99731" fill="white" shape-rendering="crispEdges"/>
<path d="M36.514 44.1758C37.5814 44.5397 38.2291 45.0178 38.2291 45.5414C38.2291 46.6816 35.1576 47.606 31.3687 47.606C27.5798 47.606 24.5083 46.6816 24.5083 45.5414C24.5083 45.0178 25.156 44.5397 26.2234 44.1758" stroke="#1AAEC0" stroke-width="1.28632" stroke-linecap="round"/>
<path d="M33.9414 36.8866C33.9414 38.3075 32.7897 39.4593 31.3688 39.4593C29.9479 39.4593 28.7961 38.3075 28.7961 36.8866C28.7961 35.4658 29.9479 34.314 31.3688 34.314C32.7897 34.314 33.9414 35.4658 33.9414 36.8866Z" stroke="#1AAEC0" stroke-width="1.28632"/>
<path d="M31.3686 30.4551C34.8493 30.4551 37.8003 33.3948 37.8003 36.9612C37.8003 40.5845 34.8012 43.1271 32.0311 44.8561C31.8292 44.9723 31.6009 45.0334 31.3686 45.0334C31.1363 45.0334 30.908 44.9723 30.7062 44.8561C27.9412 43.1102 24.937 40.597 24.937 36.9612C24.937 33.3948 27.888 30.4551 31.3686 30.4551Z" stroke="#1AAEC0" stroke-width="1.28632"/>
<path d="M50.3927 27.9274V29.6459H52.0495V27.9274H50.3927ZM52.0495 27.2585V25.5194H50.3927V27.2585H52.0495ZM50.3824 30.3148C50.3206 31.7555 50.0737 32.9389 49.6517 33.8651L49.096 33.3505C49.5077 32.4244 49.7135 31.2307 49.7238 29.79V24.8505H52.7286V32.8772C52.7286 33.4946 52.4405 33.8136 51.8642 33.8136H51.041L50.866 33.155C51.1542 33.1756 51.4114 33.1962 51.6584 33.1962C51.9157 33.1962 52.0495 33.011 52.0495 32.6405V30.3148H50.3824ZM54.2928 29.296V33.8548H53.593V24.8402H57.7607C57.7607 26.1162 57.699 26.9601 57.5755 27.3717C57.452 27.7936 57.0713 28.0097 56.423 28.0097H55.5894L55.3939 27.3717C55.5688 27.3717 55.7952 27.382 56.0834 27.382C56.3303 27.382 56.5053 27.3614 56.6288 27.3305C56.7523 27.2894 56.8449 27.1865 56.9066 27.0321C56.9786 26.8057 57.0198 26.3015 57.0404 25.5194H54.2928V28.6374H57.7916V29.2652C57.5961 30.3251 57.2565 31.2307 56.7831 31.9716C57.2462 32.4244 57.7916 32.8257 58.4193 33.1859L58.0489 33.8136C57.3903 33.4329 56.8346 33.011 56.3612 32.5479C55.9084 33.0727 55.3836 33.4946 54.7662 33.8239L54.3751 33.2271C54.9617 32.908 55.4556 32.5067 55.8673 32.0128C55.2087 31.2101 54.7662 30.3045 54.5398 29.296H54.2928ZM55.1778 29.296C55.3939 30.0884 55.7644 30.7985 56.2892 31.4365C56.6699 30.8191 56.9478 30.109 57.133 29.296H55.1778ZM60.5906 26.0545C60.9302 26.3015 61.2492 26.5587 61.5374 26.8057C61.9387 26.4353 62.3092 26.0031 62.6385 25.5194H59.7571V24.8402H63.4823V25.4165C63.0295 26.1162 62.5459 26.7234 62.0108 27.2276C62.1754 27.382 62.34 27.5364 62.4841 27.701L62.2063 27.9686H63.6572V28.5963C63.4103 29.3166 63.1118 29.9649 62.7723 30.5309L62.3092 30.1193C62.5459 29.7282 62.7723 29.2446 62.9986 28.6683H62.0416V32.9801C62.0416 33.5152 61.7741 33.793 61.2595 33.793H60.3437L60.1996 33.1447C60.4877 33.1653 60.7656 33.1859 61.0331 33.1859C61.2595 33.1859 61.3727 33.0624 61.3727 32.8257V28.6683H61.3624C60.9817 30.0061 60.426 31.2204 59.6954 32.3009L59.4175 31.6114C60.0452 30.7676 60.5392 29.79 60.8994 28.6683H59.5925V27.9686H61.8564C61.4036 27.4952 60.8376 27.0012 60.1379 26.4867L60.5906 26.0545ZM65.0259 24.4183L65.7359 24.5006C65.6536 24.7682 65.561 25.0357 65.4478 25.2827H68.5967V25.9619H67.8764C67.6294 26.6822 67.2795 27.2688 66.8473 27.7113C66.8268 27.7216 66.8165 27.7319 66.8165 27.7319C67.3619 28.0303 68.0102 28.2979 68.7511 28.5345L68.2777 29.1005C67.4853 28.8227 66.8165 28.514 66.2608 28.1847C65.7668 28.514 65.1494 28.8227 64.4085 29.1108L63.9865 28.5757C64.6863 28.3287 65.2523 28.0612 65.6948 27.7936C65.2832 27.4746 64.9539 27.1453 64.7069 26.7954L65.242 26.497C65.4993 26.816 65.8389 27.1144 66.2505 27.3923C66.6518 27.0115 66.9605 26.5382 67.1869 25.9619H65.0773C64.7583 26.4558 64.3673 26.8983 63.8939 27.2894L63.472 26.7337C64.2335 26.106 64.7583 25.3342 65.0259 24.4183ZM68.3498 29.7385C68.3498 31.385 68.2983 32.3935 68.2057 32.7846C68.1028 33.4123 67.6191 33.7313 66.7444 33.7313C66.5592 33.7313 66.2505 33.721 65.8183 33.7004L65.6639 33.083C66.0447 33.1036 66.374 33.1139 66.6518 33.1139C67.1663 33.1139 67.4648 32.9183 67.5471 32.5273C67.6088 32.2906 67.6397 31.5908 67.6603 30.428H66.1064C65.9829 31.0866 65.808 31.6011 65.5816 31.9819C65.1494 32.6919 64.4393 33.2991 63.4309 33.8136L62.9781 33.2373C63.8836 32.7948 64.5422 32.2803 64.9333 31.6835C65.1288 31.3645 65.2832 30.9425 65.3964 30.428H63.7499V29.7385H65.5096C65.5404 29.4504 65.561 29.1417 65.5816 28.8124H66.2813C66.2608 29.1417 66.2402 29.4504 66.2093 29.7385H68.3498ZM76.1192 24.408H76.8292V26.8057L78.9902 26.1677C78.9697 27.4437 78.8153 28.8021 78.5272 30.2325L77.848 30.0267C78.0435 29.1211 78.1876 28.1538 78.2802 27.1041L76.8292 27.5364V31.632H76.1192V27.7422L74.802 28.1332V32.4244C74.802 32.7743 74.9666 32.9595 75.2959 32.9595H77.9406C78.167 32.9595 78.3213 32.8875 78.414 32.7434C78.5375 32.5685 78.6095 32.0539 78.6506 31.2101L79.3401 31.4262C79.2681 32.4861 79.1343 33.1344 78.9285 33.3608C78.7433 33.5564 78.4654 33.6593 78.0744 33.6593H75.0695C74.4109 33.6593 74.0919 33.2888 74.0919 32.5685V28.3493L73.351 28.5654V27.8451L74.0919 27.629V25.4577H74.802V27.4129L76.1192 27.0218V24.408ZM70.058 27.1865H71.2723V24.4492H72.0132V27.1865H73.1658V27.9068H72.0132V31.2924C72.4763 31.1278 72.9291 30.9528 73.3716 30.747V31.4777C72.3631 31.9304 71.2826 32.3112 70.1095 32.6199L69.9242 31.879C70.377 31.7761 70.8298 31.6629 71.2723 31.5394V27.9068H70.058V27.1865ZM86.8317 24.3977H87.5829V27.6907H89.5381V28.4008H87.5829V32.7125H89.8365V33.4329H83.3535V32.7125H84.5472V26.5793H85.2881V32.7125H86.8317V24.3977ZM83.868 30.8499V31.6217C82.8389 31.9922 81.7172 32.3112 80.5235 32.5582L80.328 31.7761C80.8014 31.6938 81.2645 31.6011 81.7172 31.4982V27.7833H80.4309V27.063H81.7172V24.4492H82.4788V27.063H83.7445V27.7833H82.4788V31.2924C82.9521 31.1586 83.4152 31.0146 83.868 30.8499Z" fill="#808690"/>
<path d="M51.5212 46.9871H49.1321V46.2067H50.5247C50.3566 45.7265 50.1646 45.2703 49.9485 44.8501L50.7048 44.574C50.9209 45.0302 51.113 45.5704 51.2931 46.2067H52.5897C52.7938 45.6905 52.9739 45.1502 53.13 44.574L53.9103 44.8381C53.7423 45.3423 53.5622 45.7985 53.3701 46.2067H54.7387V46.9871H52.3856V48.3197H54.5346V49.1001H52.3856V53.4702H51.5212V49.1001H49.3242V48.3197H51.5212V46.9871ZM59.3009 42.557L59.7331 43.3374C58.6766 43.7216 57.5 43.9617 56.2034 44.0337V46.2428H60.0452V47.0711H58.7967V53.4582H57.9442V47.0711H56.2034V48.4038C56.1554 50.4928 55.6992 52.1616 54.8348 53.4102L54.2105 52.7739C54.9308 51.7174 55.315 50.2647 55.375 48.4038V43.3374C56.8277 43.3134 58.1363 43.0492 59.3009 42.557ZM49.2521 43.4814H51.5572C51.3891 43.1213 51.2211 42.7851 51.029 42.485L51.9294 42.3409C52.0855 42.6771 52.2415 43.0612 52.3976 43.4814H54.6667V44.2738H49.2521V43.4814ZM50.1646 49.7724L50.9449 49.9405C50.6448 51.1531 50.2246 52.2096 49.6843 53.11L48.976 52.6538C49.5283 51.7894 49.9244 50.8289 50.1646 49.7724ZM53.6222 49.7124C53.9343 50.4808 54.1865 51.1771 54.3666 51.8014L53.6342 52.0775C53.4301 51.3332 53.178 50.6128 52.8898 49.9045L53.6222 49.7124ZM64.6074 42.473H65.4718V51.5373C65.808 51.4532 66.1321 51.3692 66.4443 51.2731V52.1015C64.9076 52.5337 63.2628 52.8819 61.4859 53.17L61.2818 52.3537C62.4224 52.2096 63.5269 52.0055 64.6074 51.7534V46.6269H61.4979V45.7985H64.6074V42.473ZM70.3461 52.99H68.7734C67.981 52.99 67.5848 52.6058 67.5848 51.8614V42.473H68.4492V45.8946L71.7508 45.6785V46.4949L68.4492 46.723V51.7414C68.4492 52.0295 68.6173 52.1736 68.9655 52.1736H70.2021C70.5502 52.1736 70.8023 52.0775 70.9584 51.9094C71.1025 51.7294 71.2105 51.1051 71.2586 50.0486L72.0509 50.3247C71.9789 51.5733 71.8228 52.3296 71.5947 52.5938C71.3666 52.8579 70.9464 52.99 70.3461 52.99ZM73.4556 43.8176H78.3059C78.1138 43.3134 77.8977 42.8692 77.6816 42.461L78.6061 42.3169C78.7981 42.7611 78.9902 43.2653 79.1823 43.8176H84.0927V44.646H79.2183V46.2187H83.1202V50.5768C83.1202 51.2972 82.748 51.6693 82.0277 51.6693H80.8271L80.611 50.8409L81.7515 50.889C82.0877 50.889 82.2558 50.7209 82.2558 50.3847V47.0471H79.2183V53.4222H78.3299V47.0471H75.4365V51.7534H74.5841V46.2187H78.3299V44.646H73.4556V43.8176ZM90.4557 42.3889H91.3441V44.55H95.6541V50.1926H94.7897V49.4363H91.3441V53.5302H90.4557V49.4363H87.022V50.1926H86.1576V44.55H90.4557V42.3889ZM87.022 48.5959H90.4557V45.3904H87.022V48.5959ZM91.3441 48.5959H94.7897V45.3904H91.3441V48.5959ZM107.948 43.2533V52.9659H107.108V52.0175H104.19V53.086H103.362V43.2533H107.948ZM104.19 51.2011H107.108V44.0577H104.19V51.2011ZM97.8752 45.7385H99.9762V44.0097C99.3759 44.1057 98.7636 44.1778 98.1393 44.2258L97.8632 43.4574C99.652 43.3134 101.141 43.0132 102.341 42.557L102.75 43.2773C102.125 43.5055 101.489 43.6975 100.817 43.8416V45.7385H102.87V46.5429H100.817V47.1432C101.513 47.7555 102.209 48.4518 102.918 49.2442L102.413 49.9885C101.789 49.1361 101.261 48.4518 100.817 47.9476V53.3621H99.9762V48.0316C99.4599 49.1721 98.7756 50.2046 97.9232 51.1291L97.563 50.1926C98.6796 49.1361 99.484 47.9476 99.9762 46.6269V46.5429H97.8752V45.7385ZM113.062 44.5139H118.501V47.3353H113.062V44.5139ZM117.697 46.5669V45.2823H113.879V46.5669H117.697ZM112.162 48.1997H115.428V51.4652H112.162V48.1997ZM114.659 50.7329V48.944H112.93V50.7329H114.659ZM116.436 48.1997H119.69V51.4652H116.436V48.1997ZM118.921 50.7329V48.944H117.192V50.7329H118.921ZM109.845 42.9172H120.134V43.7576H111.298V51.6813C111.298 52.0295 111.466 52.2096 111.826 52.2096H120.386V53.05H111.586C110.817 53.05 110.433 52.6538 110.433 51.8734V43.7576H109.845V42.9172ZM124.384 47.2993V53.4102H123.555V47.4553C123.171 48.6079 122.679 49.6524 122.067 50.6008L121.694 49.6524C122.559 48.4758 123.183 47.1312 123.555 45.6185H121.947V44.7901H123.555V42.437H124.384V44.7901H125.656V45.6185H124.384V46.3748C124.9 46.9751 125.428 47.6594 125.957 48.4158L125.476 49.1361C125.056 48.3798 124.696 47.7675 124.384 47.2993ZM125.969 44.4299H128.166C128.322 44.1658 128.454 43.8896 128.562 43.6135C127.925 43.6495 127.253 43.6735 126.545 43.6735L126.317 42.9652C128.394 42.9652 130.122 42.7851 131.503 42.449L131.887 43.1093C131.155 43.3134 130.315 43.4574 129.354 43.5535C129.258 43.8656 129.138 44.1538 129.006 44.4299H132.416V45.1502H130.663C131.143 45.7505 131.875 46.2187 132.848 46.5789L132.476 47.3353C131.923 47.0952 131.455 46.819 131.059 46.5069V48.0556H127.229V46.5789C126.809 46.8911 126.353 47.1672 125.848 47.3953L125.452 46.687C126.365 46.2788 127.085 45.7745 127.637 45.1502H125.969V44.4299ZM130.495 46.0026C130.231 45.7265 130.002 45.4384 129.834 45.1502H128.598C128.382 45.4624 128.154 45.7385 127.889 46.0026H130.495ZM130.339 47.4433V46.6269H127.937V47.4433H130.339ZM127.805 50.0606H130.543V52.1856H127.805V50.0606ZM129.846 51.5733V50.6729H128.49V51.5733H129.846ZM131.227 53.4342H130.291L130.098 52.7378L130.999 52.7739C131.239 52.7739 131.371 52.6298 131.371 52.3537V49.4243H127.001V53.4342H126.221V48.7039H132.139V52.5337C132.139 53.134 131.827 53.4342 131.227 53.4342ZM144.385 43.6135V46.1947H143.497V44.4539H135.297V46.1827H134.409V43.6135H138.971C138.803 43.2053 138.623 42.8451 138.418 42.509L139.379 42.3409C139.571 42.7251 139.751 43.1453 139.919 43.6135H144.385ZM134.12 46.9511H137.482C137.842 46.2908 138.19 45.6425 138.514 44.9942L139.403 45.2583C139.091 45.8586 138.791 46.4228 138.502 46.9511H144.709V47.7915H142.344C141.852 49.0641 141.288 50.0606 140.651 50.8049C141.888 51.3332 143.149 51.9575 144.421 52.6778L143.845 53.4342C142.572 52.6898 141.3 52.0175 140.027 51.4412C138.683 52.6418 136.906 53.2661 134.673 53.3381L134.168 52.5337C136.209 52.5217 137.878 52.0295 139.151 51.057C138.022 50.5768 136.906 50.1566 135.789 49.7964C136.221 49.1241 136.63 48.4518 137.014 47.7915H134.12V46.9511ZM138.034 47.7915C137.674 48.4158 137.338 48.9681 137.026 49.4483C137.938 49.7124 138.863 50.0486 139.811 50.4448C140.459 49.7364 140.988 48.848 141.396 47.7915H138.034ZM149.296 44.1778H150.928V42.593H151.757V44.1778H153.426V44.9461H151.757V46.5669H153.678V46.0507H157.075V46.843H155.935V52.2576C155.935 53.002 155.611 53.3741 154.974 53.3741H153.558L153.378 52.5698C153.834 52.6058 154.278 52.6298 154.698 52.6298C154.962 52.6298 155.094 52.4377 155.094 52.0535V46.843H153.726V47.3353H149.055V46.5669H150.928V44.9461H149.296V44.1778ZM149.224 48.9801H150.916V47.7915H151.745V48.9801H153.486V49.7484H151.745V51.4412C152.453 51.3212 153.149 51.1771 153.834 51.033V51.8014C152.345 52.1616 150.748 52.4497 149.031 52.6898L148.827 51.8614C149.536 51.7894 150.232 51.6933 150.916 51.5853V49.7484H149.224V48.9801ZM148.083 42.3529L148.827 42.6891C148.275 44.0457 147.399 45.2463 146.174 46.2908L145.922 45.4744C146.918 44.562 147.639 43.5295 148.083 42.3529ZM148.395 45.4744L149.092 45.7985C148.827 46.4469 148.503 47.0591 148.095 47.6354V53.4102H147.315V48.5959C147.003 48.944 146.654 49.2802 146.282 49.5923L146.03 48.8C147.111 47.8275 147.891 46.723 148.395 45.4744ZM153.882 43.2533H156.859V44.0337H153.882V43.2533ZM167.856 42.3169H168.697C168.217 43.1093 167.832 43.9377 167.556 44.8021C167.196 45.8586 167.028 46.8911 167.028 47.9236C167.028 48.944 167.196 49.9885 167.556 51.045C167.832 51.8974 168.217 52.7258 168.697 53.5302H167.856C167.328 52.7498 166.92 51.9215 166.62 51.057C166.26 50.0246 166.092 48.9801 166.092 47.9356C166.092 46.8671 166.26 45.8226 166.62 44.7901C166.92 43.9137 167.328 43.0853 167.856 42.3169ZM176.993 42.9172H180.967V43.5655C180.57 44.8381 180.138 46.0146 179.682 47.0952C180.63 48.2717 181.111 49.2442 181.123 49.9885C181.123 50.6849 180.967 51.1771 180.654 51.4412C180.318 51.7294 179.646 51.8734 178.638 51.8734L178.373 50.961C178.698 50.997 178.974 51.021 179.202 51.021C179.646 50.997 179.934 50.925 180.066 50.7929C180.186 50.6488 180.258 50.3847 180.27 49.9885C180.258 49.2562 179.754 48.2957 178.758 47.0952C179.19 46.1347 179.622 45.0182 180.03 43.7216H177.833V53.4222H176.993V42.9172ZM170.594 43.6375H172.959C172.827 43.2293 172.695 42.8571 172.551 42.521L173.427 42.3769C173.547 42.7491 173.679 43.1693 173.799 43.6375H176.236V44.4659H175.66C175.42 45.3783 175.144 46.2067 174.832 46.9271H176.332V47.7555H170.39V46.9271H171.926C171.734 46.0507 171.494 45.2343 171.218 44.4659H170.594V43.6375ZM174.027 46.9271C174.327 46.1467 174.592 45.3303 174.82 44.4659H172.058C172.299 45.1742 172.527 45.9906 172.743 46.9271H174.027ZM175.768 48.908V53.4222H174.916V52.7739H171.938V53.4222H171.098V48.908H175.768ZM171.938 51.9575H174.916V49.7364H171.938V51.9575ZM185.745 42.9532L186.537 43.2773C185.673 45.1983 184.544 46.663 183.128 47.6714L182.443 47.0832C183.908 46.0627 185.001 44.682 185.745 42.9532ZM187.786 42.8211H190.067C190.703 44.5379 191.82 45.9186 193.405 46.9511L192.852 47.7195C191.352 46.711 190.235 45.3543 189.503 43.6615H187.786V42.8211ZM186.669 48.0436H184.244V47.2152H191.376C191.34 48.7159 191.268 49.9285 191.147 50.8529C191.027 51.7654 190.835 52.4137 190.559 52.7739C190.295 53.122 189.863 53.3141 189.263 53.3501H187.03L186.789 52.4977C187.51 52.5217 188.182 52.5337 188.818 52.5337C189.467 52.5337 189.887 52.2576 190.091 51.7053C190.307 51.1291 190.439 49.9165 190.499 48.0436H187.546C187.258 49.3522 186.861 50.3967 186.345 51.1651C185.721 52.0295 184.784 52.7979 183.548 53.4822L182.996 52.7619C184.124 52.1616 184.965 51.5013 185.541 50.7809C186.045 50.0846 186.417 49.1721 186.669 48.0436ZM195.001 42.9172H198.147V43.5895C197.859 44.694 197.51 45.8346 197.126 47.0231C197.775 47.9596 198.111 48.824 198.159 49.5923C198.159 50.1926 198.051 50.6368 197.835 50.901C197.546 51.2251 197.042 51.3932 196.31 51.4052L196.046 50.5768C196.226 50.6008 196.382 50.6248 196.502 50.6248C196.85 50.5888 197.078 50.4928 197.198 50.3487C197.318 50.2046 197.378 49.9525 197.378 49.5923C197.378 48.86 197.03 48.0436 196.334 47.1432C196.766 45.8706 197.102 44.73 197.354 43.7096H195.818V53.4582H195.001V42.9172ZM204.558 50.5288H198.915V49.8925H203.753V49.2442H198.471V48.6559H203.753V48.0196H198.999V47.3953H204.558V48.5959H205.47V49.2922H204.558V50.5288ZM198.867 44.8381H199.72C199.551 44.5259 199.371 44.2378 199.179 43.9857L199.804 43.7336C200.056 44.0817 200.284 44.4539 200.476 44.8381H201.64C201.496 44.5019 201.34 44.2018 201.196 43.9377L201.833 43.6855C202.025 44.0457 202.205 44.4299 202.361 44.8381H203.201C203.465 44.4539 203.693 44.0097 203.898 43.4935L204.582 43.6735C204.414 44.1057 204.21 44.4899 203.982 44.8381H204.81V45.4864H202.169V46.1467H205.314V46.819H198.411V46.1467H201.364V45.4864H198.867V44.8381ZM198.723 50.949L199.431 51.0931C199.203 51.9815 198.879 52.7619 198.459 53.4102L197.811 52.99C198.219 52.3657 198.531 51.6933 198.723 50.949ZM202.841 53.3141H200.908C200.32 53.3141 200.032 53.038 200.032 52.4857V50.949H200.8V52.3296C200.8 52.5457 200.908 52.6538 201.124 52.6538H202.709C202.877 52.6538 203.009 52.6058 203.081 52.5217C203.177 52.4257 203.249 52.1255 203.285 51.6333L203.994 51.8614C203.922 52.5457 203.801 52.9659 203.609 53.122C203.441 53.2421 203.189 53.3141 202.841 53.3141ZM204.474 50.8529C204.954 51.5853 205.338 52.2216 205.602 52.7739L205.026 53.17C204.762 52.5698 204.39 51.9215 203.91 51.2011L204.474 50.8529ZM201.833 50.6729C202.241 51.1291 202.565 51.5373 202.781 51.8974L202.265 52.2576C202.025 51.8734 201.712 51.4412 201.328 50.985L201.833 50.6729ZM204.702 42.461L205.086 43.1213C203.501 43.4574 201.388 43.6375 198.747 43.6375L198.519 42.9292C201.004 42.9292 203.069 42.7731 204.702 42.461ZM207.199 44.8861H207.943V46.9031H209.036V45.2943H214.451V44.8981H213.91V44.0217H212.458V43.2413H213.91V42.449H214.739V43.2413H217.344V44.0217H214.739V44.622H215.207V45.2943H216.167C216.047 44.9702 215.915 44.67 215.771 44.3939L216.503 44.2738C216.624 44.574 216.756 44.9101 216.876 45.2943H217.476V46.0267H215.219C215.255 47.5514 215.351 48.7279 215.495 49.5443L215.567 49.9525C215.903 49.0641 216.131 48.0316 216.263 46.831L216.996 46.9871C216.804 48.6919 216.431 50.0846 215.867 51.1651C215.939 51.3932 216.011 51.5973 216.095 51.7654C216.311 52.2216 216.491 52.4497 216.612 52.4497C216.756 52.4497 216.888 51.9094 217.02 50.8289L217.644 51.1771C217.44 52.6658 217.14 53.4102 216.756 53.4102C216.431 53.4102 216.083 53.11 215.723 52.5217C215.603 52.3296 215.507 52.1255 215.411 51.8974C214.967 52.5217 214.439 53.002 213.838 53.3621L213.43 52.7138C213.502 52.6658 213.562 52.6298 213.622 52.5938H210.489V46.735H213.91V47.4313H212.854V48.4758H213.898V50.7569H212.854V51.8974H213.91V52.3777C214.378 51.9935 214.775 51.5253 215.099 50.973C214.991 50.6248 214.895 50.2527 214.823 49.8445C214.631 48.86 214.511 47.5874 214.463 46.0267H209.816V49.6164C209.78 51.2131 209.492 52.4977 208.964 53.4702L208.34 52.8939C208.784 52.1135 209.012 51.021 209.036 49.6164V49.5563H208.075C208.027 51.1651 207.727 52.2936 207.199 52.9179L206.599 52.4497C207.079 51.9215 207.343 50.961 207.391 49.5563H206.707V48.836H209.036V47.6234H207.199V44.8861ZM206.983 43.2413H209.588V42.449H210.417V43.2413H211.857V44.0217H210.417V44.8981H209.588V44.0217H206.983V43.2413ZM212.169 47.4313H211.197V48.4758H212.169V47.4313ZM211.197 49.1121V50.1086H213.226V49.1121H211.197ZM211.197 50.7569V51.8974H212.169V50.7569H211.197ZM219.241 42.3169H220.081C220.597 43.0853 221.006 43.9137 221.318 44.7901C221.666 45.8226 221.846 46.8671 221.846 47.9356C221.846 48.9801 221.666 50.0246 221.318 51.057C221.006 51.9215 220.597 52.7498 220.081 53.5302H219.241C219.721 52.7258 220.093 51.8974 220.381 51.045C220.729 49.9885 220.91 48.944 220.91 47.9236C220.91 46.8911 220.729 45.8586 220.381 44.8021C220.093 43.9377 219.721 43.1093 219.241 42.3169Z" fill="#232426"/>
<path d="M260.237 40.7458H261.606V39.5623H260.515V38.9243H265.506V39.5623H264.508V40.7458H265.835V41.4044H264.508V43.7712H263.829V41.4044H262.223C262.162 41.9498 262.038 42.4128 261.853 42.7833C261.606 43.267 261.184 43.6477 260.608 43.9153L260.237 43.3287C260.741 43.0817 261.102 42.7524 261.307 42.3408C261.421 42.0732 261.503 41.7542 261.554 41.4044H260.237V40.7458ZM263.829 40.7458V39.5623H262.275V40.7458H263.829ZM259.558 36.825V37.5763H261.873V36.825H259.558ZM261.873 36.3002V35.5078H259.558V36.3002H261.873ZM264.179 36.825V37.5557H266.556V36.825H264.179ZM266.556 36.3002V35.5284H264.179V36.3002H266.556ZM262.594 34.9213V38.1731H259.558V43.9667H258.817V34.9213H262.594ZM266.556 38.1422H263.458V34.9316H267.286V42.9068C267.286 43.586 266.978 43.9256 266.36 43.9256C265.99 43.9256 265.619 43.9153 265.249 43.8947L265.074 43.2361C265.444 43.2567 265.784 43.2772 266.093 43.2772C266.401 43.2772 266.556 43.0714 266.556 42.6804V38.1422ZM275.004 36.9074C274.737 38.1525 274.377 39.1713 273.934 39.974L273.461 39.3977C274.047 38.2246 274.449 36.6398 274.654 34.6434L275.344 34.7669C275.282 35.2712 275.22 35.7445 275.138 36.1973H278.071V36.9074H277.474C277.423 38.7597 277.052 40.3238 276.352 41.5896C276.857 42.3305 277.515 42.9582 278.328 43.4934L277.896 44.0799C277.093 43.5654 276.445 42.9479 275.951 42.2379C275.457 42.9582 274.84 43.5654 274.109 44.0696L273.708 43.4419C274.459 42.9479 275.076 42.3408 275.55 41.5999C275.045 40.7149 274.726 39.7064 274.582 38.5744L275.2 38.3789C275.313 39.3051 275.56 40.1489 275.941 40.8898C276.466 39.7784 276.743 38.451 276.785 36.9074H275.004ZM273.44 39.1919H270.332C270.209 41.003 269.89 42.5775 269.375 43.9256L268.85 43.3699C269.386 41.8057 269.663 39.9431 269.684 37.7821V35.3741C271.145 35.2609 272.298 35.0448 273.121 34.7361L273.594 35.2815C272.73 35.6108 271.67 35.8269 270.394 35.9401V36.7016H273.44V39.1919ZM270.394 37.3602V37.7821L270.373 38.5333H272.761V37.3602H270.394ZM273.461 40.1283V43.3699H271.156V43.9461H270.487V40.1283H273.461ZM271.156 42.7113H272.781V40.7766H271.156V42.7113ZM285.521 34.6229H286.231V37.0206L288.392 36.3825C288.372 37.6586 288.217 39.0169 287.929 40.4473L287.25 40.2415C287.446 39.3359 287.59 38.3686 287.682 37.319L286.231 37.7512V41.8469H285.521V37.957L284.204 38.3481V42.6392C284.204 42.9891 284.369 43.1743 284.698 43.1743H287.343C287.569 43.1743 287.723 43.1023 287.816 42.9582C287.94 42.7833 288.012 42.2688 288.053 41.4249L288.742 41.641C288.67 42.701 288.536 43.3493 288.331 43.5757C288.145 43.7712 287.868 43.8741 287.476 43.8741H284.472C283.813 43.8741 283.494 43.5036 283.494 42.7833V38.5642L282.753 38.7803V38.0599L283.494 37.8438V35.6725H284.204V37.6277L285.521 37.2367V34.6229ZM279.46 37.4013H280.674V34.664H281.415V37.4013H282.568V38.1217H281.415V41.5073C281.878 41.3426 282.331 41.1677 282.774 40.9619V41.6925C281.765 42.1453 280.685 42.526 279.512 42.8348L279.326 42.0938C279.779 41.9909 280.232 41.8777 280.674 41.7542V38.1217H279.46V37.4013ZM292.437 36.2179H296.707V37.8129H294.845L294.69 38.3069H297.654V38.8214H291.49V38.3069H294.032L294.186 37.8129H292.437V36.2179ZM296.069 37.3704V36.6707H293.075V37.3704H296.069ZM291.984 39.2948H297.17V42.5157H291.984V39.2948ZM296.542 42.0424V39.7579H292.601V42.0424H296.542ZM293.301 40.2312H295.843V41.5896H293.301V40.2312ZM295.308 41.2294V40.5708H293.836V41.2294H295.308ZM298.776 35.0448V44.0696H298.086V43.6683H291.047V44.1005H290.358V35.0448H298.776ZM291.047 43.0509H298.086V35.6725H291.047V43.0509Z" fill="#1AAEC0"/>
</g>
<g filter="url(#filter1_d_265_1411)">
<path d="M190.918 71.9976L197.552 71.9976C198.065 71.9976 198.414 71.4757 198.217 71.0016L195.015 63.2849C194.773 62.7009 193.949 62.6905 193.692 63.2683L190.261 70.985C190.049 71.4611 190.397 71.9976 190.918 71.9976Z" fill="black"/>
<rect x="93.9998" y="70.9175" width="200.44" height="24.6401" rx="2.88004" fill="black"/>
<path d="M108.935 78.3694H114.897V79.4038H112.817V86.9584C112.817 87.8417 112.433 88.2949 111.666 88.2949H109.981L109.748 87.2373C110.283 87.2838 110.794 87.307 111.282 87.307C111.585 87.307 111.747 87.0978 111.747 86.6911V79.4038H108.935V78.3694ZM105.727 87.7603V88.4693H104.669V84.169H108.33V88.2601H107.273V87.7603H105.727ZM107.273 86.7492V85.1801H105.727V86.7492H107.273ZM104.39 79.1016H106.099C105.936 78.7064 105.762 78.3229 105.553 77.9626L106.622 77.6721C106.854 78.1951 107.04 78.6716 107.156 79.1016H108.667V80.1244H104.39V79.1016ZM104.762 80.8334H108.202V81.798H104.762V80.8334ZM104.762 82.4372H108.202V83.4252H104.762V82.4372ZM117.117 78.0556H121.301V80.6009H117.117V78.0556ZM120.22 79.799V78.8575H118.186V79.799H120.22ZM122.08 78.0556H126.264V80.6009H122.08V78.0556ZM125.194 79.8454V78.8343H123.16V79.8454H125.194ZM117.547 81.1704H125.845V85.1918H122.254V85.924H126.74V86.8654H122.254V88.4228H121.138V86.8654H116.64V85.924H121.138V85.1918H117.547V81.1704ZM124.764 84.3201V83.5646H122.254V84.3201H124.764ZM121.138 84.3201V83.5646H118.628V84.3201H121.138ZM118.628 82.7859H121.138V82.0421H118.628V82.7859ZM122.254 82.0421V82.7859H124.764V82.0421H122.254ZM136.747 77.6256C137.282 78.0323 137.735 78.4391 138.107 78.8575L137.572 79.3922H138.967V80.4498H135.503C135.585 81.8213 135.724 82.8905 135.922 83.646C135.968 83.8436 136.027 84.0411 136.085 84.2271C136.573 83.367 136.98 82.3908 137.305 81.2866L138.316 81.7167C137.851 83.2043 137.27 84.4828 136.55 85.5288C136.677 85.8077 136.805 86.0402 136.933 86.2378C137.282 86.7492 137.561 87.0165 137.747 87.0165C137.898 87.0165 138.049 86.447 138.2 85.308L139.199 85.8426C138.909 87.4465 138.479 88.2601 137.921 88.2601C137.41 88.2601 136.875 87.9114 136.317 87.2257C136.131 86.9932 135.968 86.7375 135.817 86.4586C135.039 87.3303 134.132 87.9928 133.109 88.446L132.482 87.5162C133.597 87.0165 134.539 86.2959 135.306 85.3428C135.143 84.9244 135.004 84.4712 134.876 83.983C134.62 83.0416 134.457 81.8677 134.376 80.4498H130.634V82.1467H133.481C133.458 84.2503 133.353 85.5753 133.167 86.1332C132.981 86.6213 132.586 86.8654 131.982 86.877C131.703 86.877 131.378 86.8538 131.017 86.8189L130.68 85.8194C131.145 85.8426 131.529 85.8659 131.854 85.8659C132.063 85.8542 132.191 85.7264 132.261 85.4707C132.331 85.1685 132.365 84.4014 132.389 83.1927H130.634V83.2624C130.587 85.4126 130.111 87.1327 129.227 88.4344L128.391 87.6906C129.111 86.6329 129.495 85.1569 129.53 83.2624V79.3922H134.318C134.295 78.8459 134.295 78.2764 134.295 77.6837H135.411C135.411 78.288 135.434 78.8575 135.457 79.3922H137.247C136.933 79.0435 136.538 78.6716 136.05 78.2997L136.747 77.6256ZM148.149 80.5428H143.593C144.046 82.4024 144.464 84.4595 144.836 86.7375H146.719C147.254 85.029 147.73 82.9603 148.149 80.5428ZM147.858 86.7375H151.182V87.8068H140.594V86.7375H143.744C143.383 84.599 142.953 82.5418 142.442 80.5428H141.117V79.4851H145.336C145.162 78.9273 144.964 78.4159 144.743 77.9394L145.917 77.7534C146.092 78.2648 146.266 78.8343 146.44 79.4851H150.659V80.5428H149.299C148.904 82.844 148.416 84.9128 147.858 86.7375ZM159.887 77.6837L160.957 78.0556C160.747 78.4275 160.515 78.7646 160.259 79.0667H162.991V80.136H152.914V79.0667H155.761C155.552 78.6483 155.331 78.2532 155.087 77.9045L156.203 77.7185C156.447 78.1137 156.68 78.567 156.9 79.0667H159.027C159.353 78.6251 159.643 78.1602 159.887 77.6837ZM154.553 83.9133V84.506C154.553 84.692 154.541 84.8663 154.529 85.029H156.842V83.9133H154.553ZM156.842 82.937V81.8561H154.553V82.937H156.842ZM154.436 86.0053C154.274 86.9816 153.983 87.8184 153.553 88.5158L152.763 87.7952C153.263 86.9584 153.518 85.8891 153.53 84.5874V80.8682H157.853V87.2954C157.853 87.9928 157.47 88.3414 156.703 88.3414H155.703L155.436 87.3652C155.785 87.4 156.098 87.4233 156.389 87.4233C156.691 87.4233 156.842 87.2605 156.842 86.9467V86.0053H154.436ZM161.294 88.3414H159.818L159.585 87.307C160.05 87.3535 160.503 87.3768 160.922 87.3768C161.212 87.3768 161.363 87.2141 161.363 86.9119V80.6358H162.444V87.1792C162.444 87.9463 162.061 88.3414 161.294 88.3414ZM158.969 81.4842H160.015V86.4702H158.969V81.4842ZM170.022 82.0886C170.324 82.0886 170.568 82.2048 170.778 82.4605C170.964 82.7046 171.068 83.0184 171.068 83.4135C171.068 84.0063 170.894 84.5293 170.545 84.9709C170.196 85.4126 169.732 85.7031 169.15 85.8659V85.1453C169.464 85.0407 169.732 84.8547 169.941 84.599C170.127 84.3317 170.231 84.0644 170.231 83.7854C170.162 83.8087 170.069 83.8319 169.952 83.8319C169.708 83.8319 169.511 83.739 169.348 83.5762C169.185 83.4135 169.104 83.2043 169.104 82.9603C169.104 82.7046 169.185 82.4954 169.36 82.3326C169.522 82.1699 169.743 82.0886 170.022 82.0886ZM177.414 78.1486H186.875V79.2295H182.644V83.3438H187.316V84.4014H182.644V88.4228H181.528V84.4014H176.949V83.3438H181.528V79.2295H177.414V78.1486ZM179.041 79.7757C179.459 80.566 179.866 81.4261 180.261 82.3791L179.227 82.8905C178.844 81.9142 178.437 81.0426 178.007 80.2755L179.041 79.7757ZM185.317 79.7292L186.328 80.2057C185.991 81.1007 185.55 81.9723 185.015 82.8324L184.015 82.321C184.562 81.4377 184.992 80.5777 185.317 79.7292ZM198.195 83.5065V88.446H197.079V87.9695H191.361V88.446H190.245V83.5065H198.195ZM191.361 86.9119H197.079V84.5641H191.361V86.9119ZM189.49 82.4256L189.28 81.3796C190.164 81.182 191.384 79.9384 192.942 77.6604L194.092 78.0556C193.151 79.3573 192.198 80.4498 191.221 81.3331C193.197 81.2634 195.103 81.1355 196.951 80.9612C196.579 80.4033 196.196 79.8919 195.812 79.4038L196.812 78.9273C197.753 80.0895 198.648 81.368 199.497 82.7743L198.416 83.3089C198.137 82.8208 197.869 82.3675 197.602 81.9375C195.173 82.1467 192.465 82.3094 189.49 82.4256ZM208.027 81.8329L208.76 82.0188C208.62 82.4489 208.434 82.8324 208.213 83.1578L207.493 82.8905C207.69 82.6116 207.865 82.2629 208.027 81.8329ZM204.564 81.8213C204.773 82.1583 204.959 82.5418 205.122 82.9719L204.39 83.1578C204.238 82.7743 204.053 82.4024 203.832 82.0537L204.564 81.8213ZM202.135 80.9728C201.926 81.0658 201.705 81.1588 201.496 81.2634L200.914 80.3452C202.774 79.5781 204.459 78.7064 205.97 77.7185H206.644C208.155 78.7064 209.841 79.5781 211.7 80.3336L211.119 81.2634C210.898 81.1588 210.689 81.0542 210.48 80.9612V84.0528H202.135V80.9728ZM210.433 80.938C209.782 80.6358 209.178 80.3336 208.632 80.0314V80.4614H203.971V80.0546C203.413 80.3452 202.821 80.6358 202.205 80.938H210.433ZM209.469 83.2392V81.7631H206.807V83.2392H209.469ZM205.808 83.2392V81.7631H203.146V83.2392H205.808ZM210.05 84.5293V88.4577H208.992V88.0857H203.634V88.4693H202.576V84.5293H210.05ZM203.634 87.2141H208.992V86.6446H203.634V87.2141ZM203.634 85.8891H208.992V85.3428H203.634V85.8891ZM207.934 79.6479C207.33 79.2992 206.795 78.9738 206.307 78.6483C205.808 78.9738 205.273 79.3108 204.703 79.6479H207.934ZM218.046 84.599L218.801 85.2615C218.162 86.2029 217.372 87.0281 216.442 87.7371L215.768 86.8654C216.674 86.2145 217.43 85.4591 218.046 84.599ZM221.463 84.5641C222.346 85.2847 223.137 86.0634 223.846 86.9003L223.113 87.7022C222.369 86.7957 221.591 85.9937 220.789 85.308L221.463 84.5641ZM215.454 77.6139L216.5 78.0905C216.233 78.9389 215.896 79.7408 215.477 80.5079V88.4577H214.362V82.228C214.025 82.6697 213.664 83.0881 213.281 83.4949L212.92 82.321C214.059 80.9728 214.908 79.4038 215.454 77.6139ZM216.988 78.1834H222.614V82.0421H220.336V83.0649H223.59V84.1341H220.336V88.4344H219.243V84.1341H216.105V83.0649H219.243V82.0421H216.988V78.1834ZM221.521 80.9844V79.2411H218.081V80.9844H221.521ZM228.983 78.2416H230.831V77.6837H231.819V79.613L232.713 79.4735C232.713 79.4968 232.725 79.5084 232.737 79.52V77.6837H233.713V78.2416H235.584V79.1249H233.713V79.7292H232.841C232.911 79.8803 232.969 80.0314 233.027 80.1825H235.538V80.9147H233.19V81.4261H235.084V82.0769H233.19V82.5651H235.084V83.2043H233.19V83.7273H235.607V84.4363H229.633V82.1118C229.424 82.3908 229.203 82.6581 228.971 82.8905L228.378 82.1816C229.006 81.5539 229.541 80.6823 229.982 79.5898L230.889 79.7873C230.831 79.9268 230.772 80.0546 230.726 80.1825H232.063C231.981 80.0082 231.9 79.8454 231.819 79.706V79.7292H230.831V79.1249H228.983V78.2416ZM232.249 83.7273V83.2043H230.552V83.7273H232.249ZM232.249 82.5651V82.0769H230.552V82.5651H232.249ZM232.249 81.4261V80.9147H230.552V81.4261H232.249ZM229.785 85.6683H229.32V84.878H235.073V85.6218C234.736 86.1564 234.224 86.6213 233.539 87.0165C234.248 87.2489 235.038 87.4349 235.91 87.586L235.328 88.4344C234.236 88.2136 233.283 87.923 232.458 87.5511C231.54 87.923 230.424 88.2252 229.122 88.4693L228.739 87.5395C229.738 87.3768 230.598 87.1908 231.33 86.97C230.714 86.5864 230.203 86.1564 229.785 85.6683ZM232.411 86.5748C233.016 86.2959 233.504 85.9937 233.876 85.6683H230.958C231.365 86.0053 231.853 86.3075 232.411 86.5748ZM227.181 77.6721C227.39 78.2067 227.553 78.6832 227.669 79.1249H228.785V80.1011H225.217V79.1249H226.623C226.484 78.7181 226.321 78.3345 226.135 77.9626L227.181 77.6721ZM225.612 80.8798H228.46V81.798H225.612V80.8798ZM225.612 82.4837H228.46V83.3903H225.612V82.4837ZM228.576 84.2039V87.7022H226.495V88.2601H225.496V84.2039H228.576ZM226.495 86.784H227.6V85.0988H226.495V86.784ZM238.629 81.182C238.362 81.4726 238.095 81.7399 237.816 81.9956L237.107 81.1472C238.083 80.322 238.931 79.1713 239.64 77.6953L240.71 77.9394C240.396 78.6135 240.059 79.2295 239.698 79.7873V84.2155H238.629V81.182ZM242.255 77.6837L243.301 77.9277C243.174 78.1951 243.046 78.4508 242.93 78.6832H247.497V79.3689C247.346 79.95 247.16 80.5195 246.928 81.0774L245.951 80.8101C246.126 80.4731 246.277 80.1011 246.405 79.6827H242.337C241.907 80.322 241.43 80.8798 240.907 81.3564L240.233 80.5312C241.023 79.8338 241.698 78.8924 242.255 77.6837ZM238.408 84.7269L239.478 84.9477C239.199 86.0983 238.804 87.0978 238.304 87.9346L237.374 87.3419C237.851 86.5283 238.199 85.6567 238.408 84.7269ZM244.243 88.2601H241.314C240.524 88.2601 240.129 87.83 240.129 86.9816V84.6223H241.244V86.7608C241.244 87.063 241.372 87.2141 241.651 87.2141H244.045C244.243 87.2141 244.394 87.1443 244.499 87.0165C244.626 86.877 244.708 86.4586 244.743 85.7496L245.789 86.0983C245.696 87.1443 245.533 87.7719 245.277 87.9811C245.056 88.1671 244.708 88.2601 244.243 88.2601ZM246.335 84.3201C247.079 85.3428 247.637 86.2378 248.032 87.0049L247.114 87.6441C246.695 86.8073 246.137 85.8891 245.44 84.878L246.335 84.3201ZM241.942 81.1588L242.825 81.5772C242.407 82.4605 241.907 83.2276 241.326 83.8784L240.489 83.2973C241.058 82.6929 241.546 81.9723 241.942 81.1588ZM246.091 81.1472C246.625 81.8445 247.09 82.6 247.509 83.4368L246.567 83.9249C246.149 83.03 245.684 82.2397 245.173 81.5539L246.091 81.1472ZM242.825 84.3201C243.383 84.9593 243.801 85.5172 244.092 86.0053L243.232 86.6097C242.93 86.0751 242.511 85.4939 241.988 84.8547L242.825 84.3201ZM243.441 80.136H244.533V84.2503H243.441V80.136ZM253.645 79.6246V87.7138H252.588V87.1095H250.751V88.0509H249.694V79.6246H250.798C251.007 78.997 251.17 78.3578 251.263 77.6837L252.367 77.8348C252.251 78.474 252.076 79.0667 251.856 79.6246H253.645ZM250.751 86.0867H252.588V83.7971H250.751V86.0867ZM250.751 82.8092H252.588V80.6706H250.751V82.8092ZM255.737 82.414C256.505 83.367 257.097 84.1922 257.504 84.9128L256.632 85.5288C256.191 84.7617 255.586 83.9133 254.843 82.9719L255.737 82.414ZM259.643 79.6362C259.643 83.646 259.584 86.1216 259.468 87.0513C259.352 87.8882 258.794 88.3066 257.806 88.3066C257.574 88.3066 257.155 88.2833 256.574 88.2485L256.307 87.2373C256.818 87.2605 257.26 87.2838 257.632 87.2838C258.097 87.2838 258.364 87.0397 258.434 86.5516C258.504 85.9705 258.538 84.0179 258.562 80.7055H255.644C255.319 81.4028 254.947 82.0421 254.505 82.6232L253.843 81.7515C254.61 80.6358 255.145 79.2759 255.424 77.6721L256.516 77.8115C256.4 78.4624 256.237 79.0667 256.051 79.6362H259.643ZM263.896 77.6837L264.884 78.1486C264.605 79.0086 264.257 79.8338 263.815 80.6125V88.446H262.723V82.2745C262.397 82.6929 262.048 83.0997 261.676 83.4949L261.328 82.3443C262.49 81.0193 263.339 79.4619 263.896 77.6837ZM271.8 78.0788V88.4228H270.8V87.7603H265.988V88.4228H265.001V78.0788H271.8ZM265.988 86.784H270.8V79.0319H265.988V86.784ZM266.395 80.7171H267.941V79.52H268.882V80.7171H270.417V81.6585H268.882V82.8324H270.033V86.2145H266.825V82.8324H267.941V81.6585H266.395V80.7171ZM269.173 85.3777V83.6692H267.674V85.3777H269.173ZM278.936 79.2062C278.576 79.6827 278.134 80.1128 277.611 80.4847L277.006 79.6827C277.82 79.1249 278.378 78.4508 278.68 77.6372L279.691 77.7534C279.622 77.9394 279.552 78.1253 279.47 78.2997H283.55V79.0667C283.248 79.6827 282.911 80.1941 282.55 80.5893L281.795 79.9965C282.016 79.7641 282.213 79.5084 282.399 79.2062H278.936ZM273.938 78.3113H276.821V79.2411H273.938V78.3113ZM273.706 80.4033H277.065V81.3447H273.706V80.4033ZM280.121 79.3108L281.051 79.4968C281.005 79.6595 280.958 79.8106 280.9 79.9617C281.725 80.7287 282.771 81.1936 284.026 81.3447L283.573 82.2513C283.259 82.2048 282.957 82.1351 282.678 82.0421V86.8073H280.377C281.621 87.0049 282.818 87.2838 283.968 87.6441L283.608 88.5158C282.376 88.0741 281.074 87.7371 279.726 87.5046L280.086 86.8073H277.413L277.89 87.4233C277.03 87.8765 275.798 88.2368 274.194 88.5041L273.694 87.6557C275.182 87.4233 276.321 87.1443 277.134 86.8073H274.996V82.0072H277.797L277.355 81.3331C278.913 81.0542 279.831 80.3801 280.121 79.3108ZM278.355 82.0072H282.574C281.772 81.7283 281.074 81.2982 280.47 80.7055C279.982 81.3099 279.284 81.7515 278.355 82.0072ZM281.597 85.924V85.3545H276.077V85.924H281.597ZM276.077 84.6339H281.597V84.1225H276.077V84.6339ZM276.077 83.3903H281.597V82.844H276.077V83.3903Z" fill="white"/>
</g>
<defs>
<filter id="filter0_d_265_1411" x="0" y="0.737305" width="321" height="76.5864" filterUnits="userSpaceOnUse" color-interpolation-filters="sRGB">
<feFlood flood-opacity="0" result="BackgroundImageFix"/>
<feColorMatrix in="SourceAlpha" type="matrix" values="0 0 0 0 0 0 0 0 0 0 0 0 0 0 0 0 0 0 127 0" result="hardAlpha"/>
<feOffset/>
<feGaussianBlur stdDeviation="5"/>
<feComposite in2="hardAlpha" operator="out"/>
<feColorMatrix type="matrix" values="0 0 0 0 0 0 0 0 0 0 0 0 0 0 0 0 0 0 0.06 0"/>
<feBlend mode="normal" in2="BackgroundImageFix" result="effect1_dropShadow_265_1411"/>
<feBlend mode="normal" in="SourceGraphic" in2="effect1_dropShadow_265_1411" result="shape"/>
</filter>
<filter id="filter1_d_265_1411" x="84.9996" y="53.4572" width="218.441" height="51.8205" filterUnits="userSpaceOnUse" color-interpolation-filters="sRGB">
<feFlood flood-opacity="0" result="BackgroundImageFix"/>
<feColorMatrix in="SourceAlpha" type="matrix" values="0 0 0 0 0 0 0 0 0 0 0 0 0 0 0 0 0 0 127 0" result="hardAlpha"/>
<feOffset dy="0.720009"/>
<feGaussianBlur stdDeviation="4.50006"/>
<feComposite in2="hardAlpha" operator="out"/>
<feColorMatrix type="matrix" values="0 0 0 0 0.188776 0 0 0 0 0.706791 0 0 0 0 0.764348 0 0 0 0.3 0"/>
<feBlend mode="normal" in2="BackgroundImageFix" result="effect1_dropShadow_265_1411"/>
<feBlend mode="normal" in="SourceGraphic" in2="effect1_dropShadow_265_1411" result="shape"/>
</filter>
</defs>
</svg>
