<svg width="311" height="102" viewBox="0 0 311 102" fill="none" xmlns="http://www.w3.org/2000/svg">
<g clip-path="url(#clip0_271_1567)">
<g filter="url(#filter0_d_271_1567)">
<g filter="url(#filter1_d_271_1567)">
<path d="M60.0742 9.83709C60.0742 5.10186 63.9129 1.26318 68.6481 1.26318H310.861V36.9791C310.861 41.7143 307.022 45.553 302.287 45.553H68.6481C63.9129 45.553 60.0742 41.7144 60.0742 36.9791V9.83709Z" fill="#C5EBF6" shape-rendering="crispEdges"/>
<path d="M68.8797 14.8569C68.5396 15.317 68.1795 15.7471 67.7894 16.1573L67.5593 15.397C68.6396 14.1767 69.4299 12.7663 69.92 11.1858L70.5902 11.5059C70.3301 12.2961 70 13.0464 69.5999 13.7466V20.4085H68.8797V14.8569ZM75.3216 15.217C75.8317 16.3973 76.2719 17.6677 76.652 19.0281L76.0218 19.3082C75.6217 17.8478 75.1715 16.5474 74.6814 15.4271L75.3216 15.217ZM71.8806 13.1564C71.5605 13.9366 71.1904 14.6368 70.7703 15.277L70.1501 14.8969C70.9103 13.7866 71.4605 12.5562 71.8006 11.2058L72.4808 11.3459C72.3807 11.736 72.2607 12.1061 72.1407 12.4562H76.4019V12.9263C76.2418 13.5465 76.0418 14.1567 75.7917 14.7569L75.1015 14.5568C75.3316 14.1367 75.5216 13.6765 75.6717 13.1564H71.8806ZM73.1309 20.3385H71.8206L71.6705 19.6583C72.0906 19.6883 72.5008 19.7083 72.8809 19.7083C73.1309 19.7083 73.261 19.5783 73.261 19.3182V13.9966H73.9612V19.4982C73.9612 20.0584 73.6811 20.3385 73.1309 20.3385ZM71.6305 15.297L72.2807 15.4771C71.9206 16.8675 71.4505 18.0878 70.8703 19.1381L70.2001 18.8981C70.7403 17.9578 71.2204 16.7574 71.6305 15.297ZM79.6528 11.1258L80.363 11.1858C80.243 11.886 80.123 12.5462 80.0029 13.1464H81.7334V13.5565C81.6434 15.137 81.3133 16.5174 80.7531 17.6877C81.3333 18.1378 81.8034 18.548 82.1736 18.9081L81.6834 19.4782C81.3433 19.1181 80.9132 18.738 80.413 18.3179C79.9129 19.1481 79.2727 19.8583 78.5025 20.4485L78.0124 19.8483C78.7726 19.2982 79.3828 18.638 79.8529 17.8578C79.3928 17.4876 78.8726 17.0975 78.3124 16.6874C78.6225 15.8072 78.8926 14.8569 79.1327 13.8366H78.0724V13.1464H79.2827C79.4228 12.4862 79.5428 11.816 79.6528 11.1258ZM80.173 17.2476C80.6531 16.2573 80.9332 15.117 81.0232 13.8366H79.8529C79.6128 14.8969 79.3627 15.7772 79.1027 16.4774C79.4828 16.7474 79.8429 17.0075 80.173 17.2476ZM82.0735 15.4371H84.3342V14.1767C84.8743 13.7066 85.3845 13.1364 85.8746 12.4562H82.3636V11.756H86.6949V12.4562C86.2147 13.1464 85.6646 13.7966 85.0644 14.3968V15.4371H87.105V16.1373H85.0644V19.3382C85.0644 19.9784 84.7943 20.2985 84.2742 20.2985H82.8337L82.6437 19.6183C83.0538 19.6183 83.5039 19.6283 83.9841 19.6283C84.2141 19.6283 84.3342 19.4582 84.3342 19.1181V16.1373H82.0735V15.4371ZM92.8166 15.117C93.0367 15.117 93.2167 15.207 93.3568 15.397C93.4868 15.5771 93.5568 15.8072 93.5568 16.0972C93.5568 16.5374 93.4268 16.9275 93.1667 17.2676C92.9067 17.5877 92.5566 17.8077 92.1364 17.9178V17.4276C92.3965 17.3376 92.6066 17.1876 92.7766 16.9875C92.9167 16.7774 92.9867 16.5574 92.9867 16.3173C92.9467 16.3373 92.8666 16.3573 92.7666 16.3573C92.5966 16.3573 92.4565 16.2973 92.3365 16.1773C92.2165 16.0572 92.1664 15.9072 92.1664 15.7371C92.1664 15.5471 92.2265 15.397 92.3465 15.287C92.4565 15.167 92.6166 15.117 92.8166 15.117ZM103.24 15.8872V16.6174C102.659 16.8075 102.059 16.9875 101.419 17.1576V19.4082C101.419 19.9884 101.109 20.2785 100.499 20.2785H99.3885L99.2385 19.5883C99.5886 19.6183 99.9287 19.6383 100.259 19.6383C100.539 19.6383 100.679 19.4982 100.679 19.2282V17.3276C100.039 17.4676 99.3885 17.5977 98.7083 17.7077L98.6083 16.9775C99.3385 16.8575 100.029 16.7374 100.679 16.5974V14.6268H98.6183V13.9366H100.679V12.5962C100.149 12.7063 99.5986 12.7963 99.0284 12.8763L98.8784 12.1861C100.299 12.0261 101.559 11.736 102.659 11.3059L102.9 11.9861C102.439 12.1461 101.939 12.2961 101.419 12.4362V13.9366H103.82C103.76 13.1264 103.73 12.2361 103.73 11.2558H104.45C104.46 12.2661 104.49 13.1564 104.55 13.9366H107.641V14.6268H104.61C104.68 15.347 104.77 15.9472 104.89 16.4373C104.95 16.6974 105.02 16.9275 105.09 17.1476C105.57 16.5674 106 15.9072 106.361 15.167L106.981 15.4971C106.521 16.4373 105.98 17.2376 105.35 17.9078C105.49 18.2479 105.63 18.538 105.79 18.768C106.11 19.2482 106.371 19.4982 106.561 19.4982C106.761 19.4882 106.931 18.9281 107.091 17.8077L107.721 18.1378C107.481 19.5582 107.131 20.2685 106.671 20.2685C106.261 20.2685 105.83 19.9684 105.37 19.3682C105.17 19.0981 104.98 18.778 104.82 18.4179C104.1 19.0581 103.28 19.5582 102.369 19.9184L101.979 19.2982C102.96 18.9381 103.81 18.4079 104.54 17.7177C104.42 17.3776 104.31 17.0075 104.21 16.6174C104.07 16.0472 103.96 15.387 103.88 14.6268H101.419V16.4273C102.069 16.2573 102.679 16.0772 103.24 15.8872ZM105.55 11.3659C106.271 11.846 106.881 12.3162 107.381 12.7963L106.861 13.3164C106.421 12.8563 105.83 12.3562 105.07 11.826L105.55 11.3659ZM110.432 11.5759H116.513V15.0469H110.432V11.5759ZM115.803 14.4368V13.6165H111.142V14.4368H115.803ZM111.142 13.0264H115.803V12.1961H111.142V13.0264ZM113.183 16.4473H109.011V15.7872H117.864V16.4473H113.913V17.5777H116.794V18.2179H113.913V19.5482C114.393 19.5883 114.973 19.6183 115.633 19.6183C116.493 19.6183 117.224 19.6083 117.814 19.5883L117.614 20.2685C116.894 20.2685 116.253 20.2584 115.683 20.2484C114.033 20.2484 112.912 20.1184 112.322 19.8683C111.812 19.6383 111.352 19.1981 110.952 18.538C110.562 19.2782 110.062 19.8883 109.461 20.3785L108.991 19.7883C109.912 19.0481 110.542 18.0478 110.872 16.7974L111.552 16.9175C111.452 17.2876 111.342 17.6377 111.212 17.9678C111.632 18.668 112.112 19.1081 112.632 19.2982C112.792 19.3482 112.972 19.3982 113.183 19.4382V16.4473ZM122.585 16.8875V19.7683H120.245V20.2584H119.564V16.8875H122.585ZM120.245 19.1181H121.925V17.5177H120.245V19.1181ZM119.224 12.5562H120.945C120.775 12.1561 120.575 11.766 120.335 11.3959L121.025 11.2058C121.265 11.646 121.445 12.0461 121.585 12.4162L121.195 12.5562H122.955V13.2164H119.224V12.5562ZM119.644 14.0166H122.515V14.6468H119.644V14.0166ZM119.644 15.397H122.515V16.0272H119.644V15.397ZM123.275 15.5171H127.587V16.1773C127.307 17.0975 126.856 17.8878 126.216 18.548C126.816 19.0281 127.547 19.4582 128.427 19.8183L128.037 20.4385C127.117 20.0184 126.346 19.5382 125.726 19.0081C125.006 19.6083 124.106 20.0784 123.045 20.4385L122.655 19.8283C123.676 19.4882 124.516 19.0481 125.196 18.5079C124.566 17.8277 124.136 17.0575 123.906 16.2173H123.275V15.5171ZM124.596 16.2173C124.806 16.8975 125.176 17.5177 125.696 18.0578C126.216 17.5177 126.616 16.8975 126.886 16.2173H124.596ZM124.026 11.626H127.017V13.7866C127.017 14.0367 127.147 14.1667 127.427 14.1667H128.137V14.8269H127.247C126.606 14.8269 126.296 14.5268 126.296 13.9366V12.3062H124.736V12.7563C124.736 13.7566 124.266 14.5268 123.345 15.0669L122.865 14.5368C123.636 14.1367 124.026 13.5665 124.026 12.8263V11.626ZM130.488 19.7983V20.3985H129.797V16.8775H132.848V20.2584H132.158V19.7983H130.488ZM132.158 19.1381V17.5277H130.488V19.1381H132.158ZM129.437 12.5462H131.158C131.008 12.1461 130.828 11.756 130.618 11.3959L131.308 11.2058C131.528 11.646 131.698 12.0561 131.818 12.4162L131.468 12.5462H133.218V13.2164H129.437V12.5462ZM129.827 14.0266H132.818V14.6568H129.827V14.0266ZM129.827 15.397H132.818V16.0372H129.827V15.397ZM135.609 11.2558H136.319V14.5368H138.61V15.237H136.319V20.3985H135.609V15.237H133.388V14.5368H135.609V11.2558ZM143.471 12.5062V15.4371H140.891V16.4874H143.591V20.0884H142.901V19.6483H140.891V20.2484H140.19V12.5062H141.181C141.351 12.1061 141.471 11.696 141.551 11.2558L142.301 11.3559C142.211 11.766 142.091 12.1461 141.941 12.5062H143.471ZM140.891 19.0181H142.901V17.1175H140.891V19.0181ZM140.891 14.7969H142.761V13.1464H140.891V14.7969ZM146.012 12.3362H143.981V11.656H148.733V12.3362H146.732V13.4765H148.463V18.3979C148.463 18.9381 148.193 19.2081 147.672 19.2081H146.732V20.4085H146.012V14.1367H144.952V19.2982H144.261V13.4765H146.012V12.3362ZM146.732 18.5279L147.442 18.548C147.652 18.548 147.762 18.4479 147.762 18.2579V14.1367H146.732V18.5279ZM153.324 12.2661H154.244L155.815 18.2579H155.855L157.485 12.2661H158.376L159.996 18.2579H160.036L161.607 12.2661H162.527L160.476 19.4082H159.566L157.946 13.4565H157.916L156.285 19.4082H155.375L153.324 12.2661ZM165.745 14.0967C166.485 14.0967 167.025 14.2867 167.385 14.6768C167.685 15.0169 167.845 15.4871 167.845 16.0872V19.4082H167.095V18.538C166.895 18.818 166.625 19.0481 166.305 19.2282C165.925 19.4382 165.495 19.5482 165.014 19.5482C164.494 19.5482 164.084 19.4182 163.774 19.1581C163.454 18.8881 163.294 18.538 163.294 18.1178C163.294 17.5277 163.524 17.0875 164.004 16.7874C164.424 16.5074 165.024 16.3573 165.805 16.3473L167.045 16.3273V16.0572C167.045 15.187 166.595 14.7569 165.695 14.7569C165.315 14.7569 165.004 14.8269 164.764 14.9869C164.494 15.147 164.324 15.397 164.244 15.7271L163.454 15.6671C163.564 15.127 163.834 14.7168 164.254 14.4568C164.634 14.2167 165.124 14.0967 165.745 14.0967ZM167.045 16.9275L165.855 16.9475C164.694 16.9675 164.114 17.3476 164.114 18.0978C164.114 18.3379 164.204 18.5279 164.404 18.688C164.604 18.838 164.864 18.9181 165.184 18.9181C165.675 18.9181 166.105 18.758 166.485 18.4379C166.855 18.1278 167.045 17.7677 167.045 17.3676V16.9275ZM171.802 14.0967C173.083 14.0967 173.733 14.8069 173.733 16.2273V19.4082H172.933V16.2873C172.933 15.277 172.473 14.7769 171.572 14.7769C171.212 14.7769 170.902 14.9069 170.642 15.167C170.362 15.4471 170.212 15.8172 170.182 16.2873V19.4082H169.382V14.2367H170.182V14.9969C170.362 14.7068 170.592 14.4868 170.872 14.3367C171.152 14.1767 171.462 14.0967 171.802 14.0967ZM177.4 14.0967C178.18 14.0967 178.76 14.4368 179.14 15.127V14.2367H179.941V19.0481C179.941 20.6986 179.15 21.5288 177.58 21.5288C176.88 21.5288 176.34 21.3888 175.979 21.1087C175.609 20.8286 175.379 20.4085 175.289 19.8483H176.089C176.15 20.1984 176.3 20.4585 176.53 20.6186C176.76 20.7886 177.11 20.8786 177.58 20.8786C178.62 20.8786 179.14 20.2985 179.14 19.1581V18.2479C178.76 18.9381 178.18 19.2882 177.4 19.2882C176.68 19.2882 176.11 19.0381 175.689 18.548C175.269 18.0678 175.069 17.4576 175.069 16.7074C175.069 15.9472 175.269 15.337 175.689 14.8569C176.11 14.3467 176.68 14.0967 177.4 14.0967ZM177.52 14.7569C177 14.7569 176.6 14.9369 176.31 15.317C176.029 15.6571 175.889 16.1273 175.889 16.7074C175.889 17.2476 176.009 17.6977 176.26 18.0378C176.54 18.4179 176.95 18.618 177.51 18.618C178.03 18.618 178.43 18.4379 178.73 18.0778C179.01 17.7277 179.15 17.2676 179.15 16.7074C179.15 16.1273 179.01 15.6571 178.73 15.317C178.43 14.9369 178.03 14.7569 177.52 14.7569ZM180.909 14.2367H181.779L183.36 18.3179L184.89 14.2367H185.77L182.94 21.3888H182.069L182.96 19.2882L180.909 14.2367ZM186.742 14.2367H187.542V17.3976C187.542 17.8878 187.642 18.2579 187.852 18.4979C188.062 18.738 188.402 18.868 188.872 18.868C189.212 18.868 189.523 18.728 189.793 18.4679C190.073 18.1879 190.243 17.8277 190.303 17.3876V14.2367H191.103V19.4082H190.303V18.608C189.883 19.2282 189.322 19.5482 188.622 19.5482C187.362 19.5482 186.742 18.838 186.742 17.4376V14.2367ZM194.91 14.0967C195.19 14.0967 195.43 14.1367 195.62 14.2167V15.0169C195.36 14.9369 195.1 14.9069 194.85 14.9069C194.45 14.9069 194.11 15.077 193.839 15.4371C193.559 15.7772 193.429 16.1873 193.429 16.6674V19.4082H192.639V14.2367H193.429V15.137C193.569 14.8369 193.749 14.5968 193.969 14.4268C194.24 14.2067 194.55 14.0967 194.91 14.0967ZM196.593 14.2367H197.393V17.3976C197.393 17.8878 197.493 18.2579 197.703 18.4979C197.913 18.738 198.253 18.868 198.723 18.868C199.063 18.868 199.373 18.728 199.643 18.4679C199.924 18.1879 200.094 17.8277 200.154 17.3876V14.2367H200.954V19.4082H200.154V18.608C199.734 19.2282 199.173 19.5482 198.473 19.5482C197.213 19.5482 196.593 18.838 196.593 17.4376V14.2367ZM206.861 15.117C207.081 15.117 207.261 15.207 207.401 15.397C207.531 15.5771 207.601 15.8072 207.601 16.0972C207.601 16.5374 207.471 16.9275 207.211 17.2676C206.951 17.5877 206.601 17.8077 206.181 17.9178V17.4276C206.441 17.3376 206.651 17.1876 206.821 16.9875C206.961 16.7774 207.031 16.5574 207.031 16.3173C206.991 16.3373 206.911 16.3573 206.811 16.3573C206.641 16.3573 206.501 16.2973 206.381 16.1773C206.261 16.0572 206.211 15.9072 206.211 15.7371C206.211 15.5471 206.271 15.397 206.391 15.287C206.501 15.167 206.661 15.117 206.861 15.117ZM217.164 15.117C217.384 15.117 217.564 15.207 217.704 15.397C217.834 15.5771 217.904 15.8072 217.904 16.0972C217.904 16.5374 217.774 16.9275 217.514 17.2676C217.254 17.5877 216.904 17.8077 216.484 17.9178V17.4276C216.744 17.3376 216.954 17.1876 217.124 16.9875C217.264 16.7774 217.334 16.5574 217.334 16.3173C217.294 16.3373 217.214 16.3573 217.114 16.3573C216.944 16.3573 216.804 16.2973 216.684 16.1773C216.564 16.0572 216.514 15.9072 216.514 15.7371C216.514 15.5471 216.574 15.397 216.694 15.287C216.804 15.167 216.964 15.117 217.164 15.117ZM224.196 13.9166C223.916 14.2567 223.616 14.5668 223.296 14.8469L222.836 14.2967C223.736 13.5165 224.486 12.4962 225.067 11.2258L225.767 11.3759C225.507 11.9561 225.217 12.4862 224.896 12.9763V16.8075H224.196V13.9166ZM227.317 11.2158L227.997 11.3659C227.877 11.636 227.747 11.896 227.627 12.1361H231.638V12.5862C231.508 13.0864 231.348 13.5765 231.148 14.0567L230.498 13.8866C230.668 13.5565 230.808 13.1964 230.918 12.7963H227.227C226.847 13.3765 226.417 13.8766 225.937 14.3167L225.497 13.7766C226.237 13.1164 226.847 12.2661 227.317 11.2158ZM224.016 17.3176L224.716 17.4576C224.476 18.4279 224.146 19.2682 223.716 19.9784L223.116 19.5883C223.526 18.8981 223.826 18.1378 224.016 17.3176ZM228.908 20.2584H226.367C225.767 20.2584 225.467 19.9384 225.467 19.2982V17.1876H226.197V19.1481C226.197 19.4282 226.327 19.5783 226.587 19.5783H228.778C228.988 19.5783 229.138 19.5182 229.228 19.3982C229.348 19.2582 229.428 18.858 229.468 18.1979L230.148 18.4179C230.078 19.2982 229.938 19.8283 229.738 20.0184C229.558 20.1784 229.288 20.2584 228.908 20.2584ZM230.648 17.0075C231.288 17.8878 231.778 18.658 232.119 19.3182L231.518 19.7383C231.158 19.0181 230.678 18.2279 230.058 17.3676L230.648 17.0075ZM227.047 14.2167L227.627 14.4868C227.247 15.257 226.807 15.9272 226.307 16.4874L225.757 16.1073C226.257 15.5671 226.687 14.9369 227.047 14.2167ZM230.398 14.2067C230.858 14.8069 231.278 15.4771 231.638 16.2173L231.028 16.5274C230.648 15.7471 230.238 15.0669 229.788 14.4668L230.398 14.2067ZM227.547 16.9175C228.047 17.4876 228.438 17.9878 228.698 18.4179L228.127 18.808C227.847 18.3479 227.467 17.8277 226.987 17.2676L227.547 16.9175ZM228.337 13.2664H229.058V16.8275H228.337V13.2664ZM233.329 11.836H242.251V12.5362H240.931V19.3382C240.931 19.9984 240.611 20.3385 239.971 20.3385H238.3L238.14 19.6383C238.69 19.6583 239.221 19.6783 239.721 19.6783C240.041 19.6783 240.211 19.4982 240.211 19.1581V12.5362H233.329V11.836ZM238.38 14.0667V17.7377H235.189V18.618H234.489V14.0667H238.38ZM235.189 17.0775H237.69V14.7168H235.189V17.0775ZM244.482 11.3559H245.202V18.1678C245.963 17.8478 246.693 17.4776 247.413 17.0775L247.623 17.7677C246.483 18.4079 245.252 18.9681 243.912 19.4482L243.662 18.748C243.942 18.648 244.212 18.558 244.482 18.4579V11.3559ZM246.873 12.3162C247.773 13.3665 248.453 14.2867 248.933 15.077L248.323 15.4871C247.823 14.6468 247.143 13.7166 246.263 12.6863L246.873 12.3162ZM250.304 17.2276C249.654 18.4479 248.603 19.4882 247.153 20.3285L246.673 19.7383C248.353 18.758 249.474 17.5377 250.014 16.0572C250.424 14.7969 250.634 13.2064 250.644 11.2859H251.384C251.384 13.1764 251.174 14.7769 250.774 16.0972C250.724 16.2473 250.674 16.3973 250.614 16.5474C251.434 17.5777 252.124 18.608 252.684 19.6383L252.134 20.1884C251.674 19.2582 251.064 18.2679 250.304 17.2276ZM261.677 16.7174V20.3985H260.947V19.8683H255.885V20.3985H255.155V16.7174H261.677ZM255.885 19.1881H260.947V17.4076H255.885V19.1881ZM255.755 13.3364C255.415 13.7966 255.015 14.2267 254.545 14.6168L254.115 14.0467C255.015 13.3264 255.635 12.4362 255.955 11.3859L256.676 11.4659C256.546 11.886 256.386 12.2761 256.186 12.6463H258.146V11.2258H258.876V12.6463H262.147V13.3364H258.876V14.9569H262.907V15.6671H253.865V14.9569H258.146V13.3364H255.755ZM271.39 17.0375V20.4285H270.71V14.8269H269.089V15.6871C269.049 17.6077 268.689 19.1381 268.029 20.2785L267.539 19.7583C268.079 18.778 268.379 17.4176 268.419 15.6871V12.0461C269.959 12.0061 271.34 11.766 272.58 11.3159L272.92 11.936C271.78 12.3362 270.5 12.5662 269.089 12.6262V14.1667H273.22V14.8269H271.39V16.3573C272 16.7774 272.62 17.2476 273.24 17.7777L272.86 18.3379C272.28 17.7777 271.79 17.3476 271.39 17.0375ZM265.818 11.2458C266.038 11.666 266.208 12.0561 266.328 12.4162L265.908 12.5662H267.759V13.2064H264.108V12.5662H265.688C265.528 12.1761 265.348 11.796 265.128 11.4359L265.818 11.2458ZM264.608 14.0467H267.309V14.6568H264.608V14.0467ZM264.608 15.4371H267.309V16.0472H264.608V15.4371ZM267.399 16.8875V19.7183H265.198V20.2584H264.528V16.8875H267.399ZM265.198 19.0981H266.749V17.4876H265.198V19.0981ZM279.102 15.8872V16.6174C278.522 16.8075 277.922 16.9875 277.282 17.1576V19.4082C277.282 19.9884 276.972 20.2785 276.361 20.2785H275.251L275.101 19.5883C275.451 19.6183 275.791 19.6383 276.121 19.6383C276.401 19.6383 276.541 19.4982 276.541 19.2282V17.3276C275.901 17.4676 275.251 17.5977 274.571 17.7077L274.471 16.9775C275.201 16.8575 275.891 16.7374 276.541 16.5974V14.6268H274.481V13.9366H276.541V12.5962C276.011 12.7063 275.461 12.7963 274.891 12.8763L274.741 12.1861C276.161 12.0261 277.422 11.736 278.522 11.3059L278.762 11.9861C278.302 12.1461 277.802 12.2961 277.282 12.4362V13.9366H279.682C279.622 13.1264 279.592 12.2361 279.592 11.2558H280.312C280.322 12.2661 280.352 13.1564 280.413 13.9366H283.503V14.6268H280.473C280.543 15.347 280.633 15.9472 280.753 16.4373C280.813 16.6974 280.883 16.9275 280.953 17.1476C281.433 16.5674 281.863 15.9072 282.223 15.167L282.843 15.4971C282.383 16.4373 281.843 17.2376 281.213 17.9078C281.353 18.2479 281.493 18.538 281.653 18.768C281.973 19.2482 282.233 19.4982 282.423 19.4982C282.623 19.4882 282.793 18.9281 282.953 17.8077L283.583 18.1378C283.343 19.5582 282.993 20.2685 282.533 20.2685C282.123 20.2685 281.693 19.9684 281.233 19.3682C281.033 19.0981 280.843 18.778 280.683 18.4179C279.962 19.0581 279.142 19.5582 278.232 19.9184L277.842 19.2982C278.822 18.9381 279.672 18.4079 280.402 17.7177C280.282 17.3776 280.172 17.0075 280.072 16.6174C279.932 16.0472 279.822 15.387 279.742 14.6268H277.282V16.4273C277.932 16.2573 278.542 16.0772 279.102 15.8872ZM281.413 11.3659C282.133 11.846 282.743 12.3162 283.243 12.7963L282.723 13.3164C282.283 12.8563 281.693 12.3562 280.933 11.826L281.413 11.3659ZM285.914 14.6968C285.614 15.207 285.274 15.6971 284.904 16.1573L284.664 15.367C285.544 14.1567 286.194 12.7663 286.604 11.2058L287.254 11.5059C287.074 12.1461 286.854 12.7563 286.604 13.3364V20.3585H285.914V14.6968ZM288.295 13.7866V14.8169H289.525V13.7866H288.295ZM289.525 13.1964V12.2061H288.295V13.1964H289.525ZM291.536 13.7866V14.8269H292.846V13.7866H291.536ZM292.846 13.1964V12.2261H291.536V13.1964H292.846ZM290.205 11.5959V15.4371H288.295V20.3685H287.595V11.5959H290.205ZM292.846 15.4371H290.836V11.5959H293.516V19.4982C293.516 20.0284 293.256 20.2985 292.756 20.2985C292.336 20.2985 291.926 20.2885 291.516 20.2785L291.336 19.6183C291.756 19.6383 292.156 19.6583 292.516 19.6583C292.736 19.6583 292.846 19.5282 292.846 19.2782V15.4371ZM68.9397 28.9166C68.6597 29.2567 68.3596 29.5668 68.0395 29.8469L67.5793 29.2967C68.4796 28.5165 69.2298 27.4962 69.81 26.2258L70.5102 26.3759C70.2501 26.9561 69.96 27.4862 69.6399 27.9763V31.8075H68.9397V28.9166ZM72.0606 26.2158L72.7408 26.3659C72.6208 26.636 72.4908 26.896 72.3707 27.1361H76.3819V27.5862C76.2518 28.0864 76.0918 28.5765 75.8917 29.0567L75.2416 28.8866C75.4116 28.5565 75.5516 28.1964 75.6617 27.7963H71.9706C71.5905 28.3765 71.1604 28.8766 70.6802 29.3167L70.2401 28.7766C70.9803 28.1164 71.5905 27.2661 72.0606 26.2158ZM68.7597 32.3176L69.4599 32.4576C69.2198 33.4279 68.8897 34.2682 68.4596 34.9784L67.8594 34.5883C68.2695 33.8981 68.5696 33.1378 68.7597 32.3176ZM73.6511 35.2584H71.1104C70.5102 35.2584 70.2101 34.9384 70.2101 34.2982V32.1876H70.9403V34.1481C70.9403 34.4282 71.0704 34.5783 71.3304 34.5783H73.5211C73.7311 34.5783 73.8812 34.5182 73.9712 34.3982C74.0912 34.2582 74.1712 33.858 74.2113 33.1979L74.8915 33.4179C74.8214 34.2982 74.6814 34.8283 74.4813 35.0184C74.3013 35.1784 74.0312 35.2584 73.6511 35.2584ZM75.3916 32.0075C76.0318 32.8878 76.5219 33.658 76.862 34.3182L76.2618 34.7383C75.9017 34.0181 75.4216 33.2279 74.8014 32.3676L75.3916 32.0075ZM71.7906 29.2167L72.3707 29.4868C71.9906 30.257 71.5505 30.9272 71.0503 31.4874L70.5002 31.1073C71.0003 30.5671 71.4305 29.9369 71.7906 29.2167ZM75.1415 29.2067C75.6017 29.8069 76.0218 30.4771 76.3819 31.2173L75.7717 31.5274C75.3916 30.7471 74.9815 30.0669 74.5313 29.4668L75.1415 29.2067ZM72.2907 31.9175C72.7908 32.4876 73.181 32.9878 73.441 33.4179L72.8709 33.808C72.5908 33.3479 72.2107 32.8277 71.7305 32.2676L72.2907 31.9175ZM73.0809 28.2664H73.8011V31.8275H73.0809V28.2664ZM81.5634 27.9663V34.7883H80.8632V34.2181H79.0427V35.0784H78.3424V27.9663H79.2727C79.4728 27.4062 79.6128 26.826 79.7028 26.2258L80.4231 26.3259C80.303 26.916 80.153 27.4662 79.9529 27.9663H81.5634ZM79.0427 33.548H80.8632V31.3573H79.0427V33.548ZM79.0427 30.7071H80.8632V28.6465H79.0427V30.7071ZM83.3039 30.287C84.0241 31.1173 84.5642 31.8475 84.9444 32.4676L84.3742 32.8678C83.9641 32.2076 83.4139 31.4674 82.7237 30.6471L83.3039 30.287ZM86.7349 27.9763C86.7349 31.2973 86.6849 33.3579 86.5848 34.1381C86.4848 34.8983 86.0247 35.2885 85.1844 35.2885C84.9844 35.2885 84.6443 35.2685 84.1641 35.2484L83.9941 34.5883C84.4142 34.6083 84.7743 34.6183 85.0844 34.6183C85.5545 34.6183 85.8246 34.3582 85.9046 33.848C85.9647 33.2879 86.0047 31.5574 86.0247 28.6765H83.2739C82.9938 29.3067 82.6637 29.8769 82.2736 30.387L81.8435 29.8169C82.5437 28.8366 83.0138 27.6362 83.2739 26.2158L83.9841 26.3059C83.864 26.896 83.724 27.4562 83.544 27.9763H86.7349ZM89.1056 28.1064H92.4765V27.4562H88.7855V26.866H92.4765V26.2258H93.1767V26.866H96.8778V27.4562H93.1767V28.1064H96.5477V28.6866H89.1056V28.1064ZM90.646 31.0172H89.6957V29.2167H95.9575V31.0172H95.1173L94.7072 31.7474H97.2879V32.3476H88.3653V31.7474H90.9661L90.646 31.0172ZM94.3571 31.0172H91.3962L91.7163 31.7474H93.957L94.3571 31.0172ZM95.2673 30.4871V29.7469H90.3859V30.4871H95.2673ZM96.1076 32.9278V35.4085H95.4174V34.9984H90.2459V35.4085H89.5457V32.9278H96.1076ZM90.2459 34.4082H95.4174V33.5179H90.2459V34.4082ZM100.259 26.1258L100.969 26.1858C100.849 26.886 100.729 27.5462 100.609 28.1464H102.339V28.5565C102.249 30.137 101.919 31.5174 101.359 32.6877C101.939 33.1378 102.409 33.548 102.78 33.9081L102.289 34.4782C101.949 34.1181 101.519 33.738 101.019 33.3179C100.519 34.1481 99.8787 34.8583 99.1084 35.4485L98.6183 34.8483C99.3785 34.2982 99.9887 33.638 100.459 32.8578C99.9987 32.4876 99.4786 32.0975 98.9184 31.6874C99.2285 30.8072 99.4986 29.8569 99.7386 28.8366H98.6783V28.1464H99.8887C100.029 27.4862 100.149 26.816 100.259 26.1258ZM100.779 32.2476C101.259 31.2573 101.539 30.117 101.629 28.8366H100.459C100.219 29.8969 99.9687 30.7772 99.7086 31.4774C100.089 31.7474 100.449 32.0075 100.779 32.2476ZM102.679 30.4371H104.94V29.1767C105.48 28.7066 105.99 28.1364 106.481 27.4562H102.97V26.756H107.301V27.4562C106.821 28.1464 106.271 28.7966 105.67 29.3968V30.4371H107.711V31.1373H105.67V34.3382C105.67 34.9784 105.4 35.2985 104.88 35.2985H103.44L103.25 34.6183C103.66 34.6183 104.11 34.6283 104.59 34.6283C104.82 34.6283 104.94 34.4582 104.94 34.1181V31.1373H102.679V30.4371ZM113.423 30.117C113.643 30.117 113.823 30.207 113.963 30.397C114.093 30.5771 114.163 30.8072 114.163 31.0972C114.163 31.5374 114.033 31.9275 113.773 32.2676C113.513 32.5877 113.163 32.8077 112.742 32.9178V32.4276C113.002 32.3376 113.213 32.1876 113.383 31.9875C113.523 31.7774 113.593 31.5574 113.593 31.3173C113.553 31.3373 113.473 31.3573 113.373 31.3573C113.203 31.3573 113.062 31.2973 112.942 31.1773C112.822 31.0572 112.772 30.9072 112.772 30.7371C112.772 30.5471 112.832 30.397 112.952 30.287C113.062 30.167 113.223 30.117 113.423 30.117ZM121.885 26.816H125.176V27.5062H123.355C123.305 28.0064 123.235 28.4765 123.145 28.9266H124.986V29.5468C124.626 32.3176 123.616 34.2582 121.975 35.3785L121.615 34.7383C122.415 34.1881 123.045 33.4179 123.505 32.4376C123.085 32.0275 122.665 31.6974 122.255 31.4373C122.055 31.7874 121.845 32.1075 121.615 32.3976L121.255 31.6974C122.035 30.6771 122.505 29.2767 122.665 27.5062H121.885V26.816ZM122.545 30.8472C122.985 31.1073 123.395 31.4173 123.786 31.7574C124.026 31.0972 124.196 30.367 124.316 29.5868H122.985C122.865 30.0369 122.715 30.4571 122.545 30.8472ZM126.996 35.3385H125.896L125.736 34.6483C126.096 34.6783 126.426 34.6983 126.746 34.6983C127.037 34.6983 127.187 34.5482 127.187 34.2482V26.2659H127.907V34.4282C127.907 35.0284 127.597 35.3385 126.996 35.3385ZM120.105 29.9869C119.854 30.367 119.594 30.7271 119.314 31.0672L119.074 30.307C119.954 29.1067 120.595 27.7363 120.995 26.1858L121.675 26.4959C121.455 27.2861 121.165 28.0264 120.825 28.7266V35.4285H120.105V29.9869ZM125.606 27.1861H126.266V33.3879H125.606V27.1861ZM138.03 27.1361V34.9684H137.329V34.3582H135.279V34.9684H134.579V27.1361H138.03ZM135.279 33.658H137.329V27.8363H135.279V33.658ZM131.238 26.2058L131.968 26.2659C131.858 26.906 131.748 27.5062 131.638 28.0564H133.718V28.4765C133.618 30.117 133.238 31.5274 132.568 32.7177C133.168 33.1778 133.668 33.588 134.059 33.9481L133.568 34.5282C133.188 34.1581 132.728 33.758 132.188 33.3279C131.638 34.1181 130.948 34.7983 130.117 35.3685L129.637 34.7783C130.457 34.2482 131.118 33.618 131.638 32.8878C131.118 32.4876 130.548 32.0575 129.927 31.6174C130.237 30.7371 130.508 29.7869 130.748 28.7566H129.577V28.0564H130.898C131.018 27.4562 131.138 26.836 131.238 26.2058ZM132.008 32.2976C132.588 31.2673 132.928 30.087 133.038 28.7566H131.488C131.248 29.8169 130.988 30.7071 130.728 31.4073C131.188 31.7174 131.618 32.0175 132.008 32.2976ZM143.981 28.6465H140.26V27.9363H144.041C143.871 27.4062 143.661 26.896 143.421 26.4059L144.121 26.2158C144.372 26.786 144.562 27.3062 144.702 27.7863L144.311 27.9363H148.433V28.6465H144.712V31.0072H147.953V31.6774H144.712V34.3582H148.783V35.0684H139.91V34.3582H143.981V31.6774H140.74V31.0072H143.981V28.6465ZM154.464 29.7569H152.074V31.5674H154.464V29.7569ZM155.195 31.5674H157.545V29.7569H155.195V31.5674ZM152.854 27.8263C152.434 28.2864 151.974 28.7066 151.484 29.0867H154.935C155.335 28.7266 155.725 28.3064 156.115 27.8263H152.854ZM151.344 29.1867C151.083 29.3868 150.823 29.5668 150.563 29.7369L150.083 29.1567C151.364 28.3965 152.424 27.4062 153.254 26.1758L153.974 26.3359C153.794 26.626 153.604 26.906 153.404 27.1661H157.045V27.7163C156.665 28.2564 156.285 28.7066 155.905 29.0867H158.276V32.2476H152.074V34.0881C152.074 34.3882 152.244 34.5482 152.564 34.5482H157.395C157.735 34.5382 157.965 34.4282 158.095 34.2181C158.196 34.0481 158.276 33.618 158.346 32.9378L159.056 33.1578C158.986 33.818 158.896 34.2882 158.776 34.5682C158.576 35.0084 158.196 35.2284 157.615 35.2484H152.284C151.654 35.2484 151.344 34.9484 151.344 34.3482V29.1867ZM160.446 27.5562H161.787C161.646 27.1561 161.486 26.766 161.296 26.4059L161.987 26.2158C162.177 26.656 162.327 27.0561 162.437 27.4162L162.057 27.5562H163.497V28.2164H160.446V27.5562ZM160.826 29.0266H163.177V29.6468H160.826V29.0266ZM160.826 30.397H163.177V31.0172H160.826V30.397ZM163.267 31.8875V34.7183H161.406V35.2584H160.736V31.8875H163.267ZM161.406 34.0981H162.617V32.4876H161.406V34.0981ZM165.298 31.3873H167.818V33.9281H165.298V31.3873ZM167.228 33.3479V31.9775H165.888V33.3479H167.228ZM169.159 26.626V34.4882C169.159 35.0584 168.909 35.3485 168.408 35.3485H167.408L167.238 34.6883C167.578 34.7083 167.898 34.7283 168.198 34.7283C168.378 34.7283 168.478 34.5682 168.478 34.2482V30.6271H164.677V31.7074C164.667 33.2379 164.447 34.4782 164.027 35.4385L163.477 34.9384C163.817 34.0981 163.997 33.0378 164.007 31.7474V26.626H169.159ZM164.677 30.0269H166.248V28.9866H164.677V30.0269ZM166.888 30.0269H168.478V28.9866H166.888V30.0269ZM164.677 28.3665H166.248V27.2861H164.677V28.3665ZM166.888 28.3665H168.478V27.2861H166.888V28.3665ZM174.47 29.5768C174.85 29.8369 175.23 30.177 175.621 30.5771C175.951 30.9172 176.241 31.2673 176.481 31.6074L175.981 32.0275C175.741 31.6874 175.45 31.3373 175.13 30.9972C174.76 30.6071 174.39 30.277 174.02 29.9969L174.47 29.5768ZM182.713 31.5674C182.282 32.0475 181.792 32.5077 181.252 32.9478L181.032 32.2276C182.192 31.2473 183.043 30.137 183.573 28.8866L184.223 29.1867C184.003 29.6868 183.743 30.157 183.443 30.6171V35.4485H182.713V31.5674ZM188.704 35.2584H186.494C185.883 35.2584 185.583 34.9384 185.583 34.2982V29.0166H186.314V31.0372L189.645 30.8372V31.5274L186.314 31.7074V34.1481C186.314 34.4282 186.444 34.5783 186.714 34.5783H188.584C188.824 34.5783 189.004 34.5082 189.114 34.3782C189.254 34.2181 189.344 33.738 189.385 32.9378L190.075 33.1478C189.995 34.1481 189.845 34.7583 189.625 34.9784C189.435 35.1584 189.124 35.2584 188.704 35.2584ZM181.242 27.1461H183.403V26.2158H184.113V27.1461H185.303V27.8263H184.113V28.7066H183.403V27.8263H181.242V27.1461ZM187.004 26.2158H187.714V27.1461H189.875V27.8263H187.714V28.7066H187.004V27.8263H185.803V27.1461H187.004V26.2158ZM198.097 28.9066H195.546V28.2164H198.417V26.2358H199.137V28.2164H200.288V28.9066H199.137V34.3682C199.137 34.9784 198.837 35.2885 198.257 35.2885H197.167L197.007 34.5883C197.357 34.6083 197.697 34.6283 198.017 34.6283C198.277 34.6283 198.417 34.4782 198.417 34.1881V29.4868C197.717 31.3573 196.617 32.9078 195.136 34.1381L194.756 33.4879C196.296 32.3076 197.417 30.7772 198.097 28.9066ZM191.435 28.1964H193.046V26.2458H193.766V28.1964H195.096V28.8866H193.766V29.4768C194.276 29.9569 194.796 30.4971 195.326 31.1073L194.906 31.7274C194.466 31.1073 194.086 30.6071 193.766 30.227V35.3685H193.046V30.127C192.675 31.2073 192.175 32.1876 191.555 33.0578L191.235 32.2476C192.065 31.2673 192.655 30.147 193.016 28.8866H191.435V28.1964ZM201.888 27.6763L201.748 27.0061C202.878 26.876 203.879 26.646 204.739 26.3159L204.979 26.9561C204.599 27.0961 204.209 27.2161 203.789 27.3262V28.9866H204.949V29.6568H203.789V30.207C204.249 30.6971 204.719 31.2373 205.189 31.8275L204.799 32.4276C204.409 31.7674 204.069 31.2373 203.789 30.8372V35.4085H203.098V30.9072C202.778 31.8575 202.338 32.7177 201.798 33.4879L201.498 32.7177C202.218 31.8175 202.738 30.7972 203.048 29.6568H201.868V28.9866H203.098V27.4762C202.708 27.5562 202.308 27.6162 201.888 27.6763ZM205.549 29.2667H207.54V28.5665H205.089V27.9563H207.54V27.2661C206.9 27.3062 206.199 27.3262 205.459 27.3262L205.249 26.716C207.18 26.706 208.78 26.5659 210.05 26.2959L210.381 26.866C209.76 27.0161 209.05 27.1261 208.24 27.2061V27.9563H210.671V28.5665H208.24V29.2667H210.221V32.4676H208.24V33.1778H210.471V33.778H208.24V34.5482H210.711V35.1684H205.059V34.5482H207.54V33.778H205.299V33.1778H207.54V32.4676H205.549V29.2667ZM209.52 31.8875V31.1573H208.24V31.8875H209.52ZM207.54 31.8875V31.1573H206.239V31.8875H207.54ZM206.239 30.5971H207.54V29.8569H206.239V30.5971ZM208.24 29.8569V30.5971H209.52V29.8569H208.24ZM212.121 32.2576H213.812C213.822 32.1476 213.832 32.0475 213.832 31.9475V31.0472H214.502V31.9475C214.502 32.0575 214.492 32.1576 214.482 32.2576H216.362V32.8578H214.402C214.382 32.9278 214.372 32.9978 214.352 33.0578C215.112 33.628 215.742 34.1981 216.262 34.7783L215.782 35.2584C215.372 34.7483 214.832 34.2081 214.162 33.638C213.822 34.3982 213.251 35.0084 212.431 35.4585L211.911 34.9984C212.881 34.5082 213.481 33.798 213.712 32.8578H212.121V32.2576ZM212.191 28.2164H213.972V26.2859H214.632V28.2164H216.352V28.8066H214.632V30.7772H213.972V28.8066H212.191V28.2164ZM215.672 26.4059L216.192 26.666C216.002 27.1261 215.782 27.5162 215.532 27.8563L215.062 27.5262C215.302 27.2061 215.502 26.836 215.672 26.4059ZM212.901 26.4959C213.141 26.876 213.351 27.2761 213.541 27.7063L213.031 27.9363C212.821 27.4562 212.591 27.0461 212.341 26.686L212.901 26.4959ZM215.382 30.9372C215.712 31.2973 215.962 31.6074 216.142 31.8675L215.682 32.1876C215.502 31.8975 215.242 31.5774 214.922 31.2273L215.382 30.9372ZM213.191 29.2167L213.632 29.5968C213.271 30.157 212.821 30.6371 212.301 31.0572L211.921 30.5671C212.421 30.177 212.851 29.7269 213.191 29.2167ZM215.322 29.1567C215.762 29.5468 216.172 29.9669 216.542 30.4271L216.152 30.8572C215.772 30.357 215.372 29.9169 214.962 29.5568L215.322 29.1567ZM219.493 33.4879C220.123 33.9681 220.654 34.4582 221.074 34.9384L220.604 35.3985C220.233 34.9384 219.723 34.4382 219.063 33.9181L219.493 33.4879ZM216.522 26.616H220.944V27.2561H219.103C219.083 27.5462 219.053 27.8263 219.033 28.1064H220.624V33.4179H216.932V28.1064H218.323C218.353 27.8263 218.373 27.5462 218.393 27.2561H216.522V26.616ZM219.943 32.7777V31.7974H217.613V32.7777H219.943ZM217.613 31.1973H219.943V30.277H217.613V31.1973ZM217.613 29.6768H219.943V28.7266H217.613V29.6768ZM218.013 33.4879L218.483 33.8981C218.033 34.4982 217.483 35.0184 216.832 35.4685L216.432 34.9584C217.052 34.5382 217.583 34.0481 218.013 33.4879ZM222.824 29.2767H226.495V32.3276H222.824V29.2767ZM225.785 31.6774V29.9469H223.544V31.6774H225.785ZM226.805 32.8978V33.598C225.475 33.9581 224.035 34.2682 222.494 34.5182L222.314 33.808C223.874 33.608 225.365 33.3079 226.805 32.8978ZM230.176 35.3785C229.676 35.3685 229.206 35.0484 228.746 34.4082C228.606 34.2181 228.486 34.0181 228.386 33.808C227.826 34.4882 227.205 35.0284 226.535 35.4285L226.145 34.8083C226.855 34.3782 227.496 33.798 228.056 33.0578C227.916 32.6777 227.806 32.2676 227.706 31.8275C227.476 30.8072 227.355 29.6068 227.345 28.2264H222.314V27.5262H227.345V26.2458H228.066V27.5262H229.536C229.366 27.1661 229.176 26.826 228.976 26.5259L229.706 26.4059C229.886 26.736 230.066 27.1061 230.236 27.5262H231.207V28.2264H228.076C228.096 29.4468 228.186 30.5271 228.356 31.4674C228.416 31.7774 228.476 32.0675 228.556 32.3376C229.116 31.4173 229.586 30.327 229.966 29.0667L230.596 29.4068C230.126 30.9172 229.546 32.1776 228.846 33.1979C228.946 33.4279 229.046 33.638 229.156 33.818C229.506 34.3382 229.816 34.5983 230.096 34.5983C230.336 34.5983 230.546 34.0281 230.716 32.8878L231.337 33.2979C231.067 34.6783 230.676 35.3785 230.176 35.3785ZM233.477 29.0266C233.377 29.5268 233.267 30.0169 233.127 30.4871L232.497 30.307C232.807 29.2667 232.977 28.1764 233.017 27.0261L233.677 27.0761C233.657 27.4962 233.627 27.9163 233.577 28.3264H234.418V26.2458H235.108V28.3264H236.018V29.0266H235.108V31.4273C235.428 31.2973 235.738 31.1673 236.048 31.0272V31.7074C235.728 31.8475 235.418 31.9775 235.108 32.0975V35.4085H234.418V32.3476C233.857 32.5377 233.277 32.7077 232.687 32.8678L232.517 32.1776C233.167 32.0375 233.797 31.8675 234.418 31.6674V29.0266H233.477ZM238.469 26.2358H239.169V27.3162H241.57V27.9863H239.169V29.1667H241.259V29.8469H236.498V29.1667H238.469V27.9863H236.098V27.3162H238.469V26.2358ZM236.348 30.9872H239.659V30.317H240.359V30.9872H241.57V31.6674H240.359V34.5082C240.359 35.0584 240.069 35.3385 239.509 35.3385H238.289L238.139 34.6583C238.539 34.6883 238.909 34.7083 239.269 34.7083C239.529 34.7083 239.659 34.5783 239.659 34.3382V31.6674H236.348V30.9872ZM237.158 32.1375C237.668 32.7177 238.059 33.2179 238.339 33.648L237.778 34.0481C237.488 33.578 237.098 33.0578 236.608 32.4776L237.158 32.1375ZM244.08 27.4762H243.01V26.796H246.701V27.4762H244.78C244.72 27.9763 244.64 28.4365 244.54 28.8566H246.351V29.4768C245.981 32.2976 244.981 34.2682 243.34 35.3985L242.99 34.7583C243.85 34.1581 244.51 33.2979 244.981 32.1976C244.63 31.9075 244.28 31.6774 243.92 31.4974L244.22 30.9272C244.57 31.0872 244.901 31.3073 245.221 31.5674C245.431 30.9472 245.591 30.257 245.701 29.5168H244.38C244.08 30.5271 243.69 31.3173 243.19 31.8775L242.84 31.2473C243.48 30.407 243.89 29.1467 244.08 27.4762ZM247.711 28.5365C247.551 28.9566 247.391 29.3567 247.211 29.7168L246.611 29.3367C247.051 28.4765 247.361 27.5362 247.561 26.4959L248.221 26.636C248.131 27.0561 248.031 27.4662 247.921 27.8563H248.962V26.2258H249.652V27.8563H251.442V28.5365H249.652V30.167H251.833V30.8472H250.162C250.532 32.0075 251.172 33.0378 252.073 33.9581L251.612 34.5282C250.682 33.4279 250.032 32.2076 249.652 30.8472V35.4285H248.962V30.9372C248.412 32.4176 247.511 33.638 246.271 34.5983L245.901 33.9781C247.081 33.1578 247.941 32.1175 248.472 30.8472H246.631V30.167H248.962V28.5365H247.711ZM253.243 31.0072H262.105V31.6274H257.894L257.544 32.3876H261.465V34.5983C261.465 35.1284 261.175 35.3985 260.615 35.3985H259.885L259.715 34.7783L260.415 34.8083C260.655 34.8083 260.775 34.6883 260.775 34.4482V32.9978H259.175V35.3385H258.484V32.9978H256.994V35.3385H256.314V32.9978H254.813V35.4385H254.123V32.3876H256.814L257.164 31.6274H253.243V31.0072ZM253.853 26.5959H261.505V27.1861H258.024V27.8163H261.905V29.8569H261.215V28.3865H258.024V30.5771H257.324V28.3865H254.133V29.8569H253.443V27.8163H257.324V27.1861H253.853V26.5959ZM254.973 28.7466C255.594 28.8066 256.194 28.8966 256.774 29.0166L256.584 29.4668C255.994 29.3567 255.374 29.2767 254.733 29.2167L254.973 28.7466ZM256.604 29.8369L256.764 30.297C256.344 30.397 255.684 30.4671 254.763 30.5271L254.603 30.0169C255.504 29.9769 256.174 29.9169 256.604 29.8369ZM258.705 29.4668L258.604 28.9666C259.285 28.9266 259.885 28.8466 260.415 28.7266L260.595 29.2167C260.055 29.3267 259.425 29.4068 258.705 29.4668ZM258.795 29.8469C259.465 29.9069 260.105 30.0069 260.705 30.137L260.505 30.6271C259.885 30.4771 259.245 30.367 258.584 30.287L258.795 29.8469ZM263.696 28.0764H267.677V26.2258H268.417V28.0764H272.238V28.7666H268.417V29.4068C268.687 30.0069 269.007 30.5671 269.388 31.0972C270.108 30.5771 270.718 29.9769 271.228 29.3067L271.768 29.7869C271.218 30.4771 270.558 31.0872 269.788 31.6074C270.538 32.5277 271.468 33.3479 272.569 34.0481L272.068 34.6383C270.468 33.538 269.248 32.1876 268.417 30.5871V34.5082C268.417 35.0684 268.137 35.3485 267.577 35.3485H266.167L266.017 34.6583C266.477 34.6883 266.907 34.7083 267.327 34.7083C267.557 34.7083 267.677 34.5783 267.677 34.3382V28.7666H263.696V28.0764ZM264.716 29.5168C265.456 30.0569 266.087 30.5971 266.587 31.1373L266.097 31.6274C265.637 31.1073 265.016 30.5671 264.226 29.9869L264.716 29.5168ZM269.728 26.3159C270.288 26.726 270.768 27.1361 271.148 27.5462L270.658 28.0364C270.318 27.6362 269.848 27.2161 269.258 26.756L269.728 26.3159ZM266.947 31.5774L267.127 32.2276C266.257 33.1678 265.176 34.0081 263.896 34.7283L263.586 34.0181C264.886 33.3579 266.007 32.5377 266.947 31.5774ZM278.02 28.6765V29.5968H279.781V28.6765H278.02ZM278.02 30.187V31.0772H279.781V30.187H278.02ZM280.441 31.0772H282.581C282.581 33.2179 282.451 34.4682 282.211 34.8283C281.961 35.1884 281.491 35.3685 280.791 35.3685C280.511 35.3685 280.231 35.3585 279.941 35.3485L279.781 34.6983C280.101 34.7183 280.391 34.7383 280.661 34.7383C281.291 34.7383 281.661 34.5282 281.761 34.1281C281.861 33.728 281.921 32.9078 281.921 31.6774H277.35V26.5859H282.511V27.1961H280.441V28.0864H282.321V28.6765H280.441V29.5968H282.351V30.187H280.441V31.0772ZM279.781 27.1961H278.02V28.0864H279.781V27.1961ZM277.28 32.1175L277.84 32.2676C277.7 33.2979 277.52 34.1981 277.3 34.9684L276.69 34.7583C276.91 34.0681 277.11 33.1879 277.28 32.1175ZM278.87 32.2076C278.95 32.7877 279.01 33.588 279.04 34.5983L278.46 34.6683C278.44 33.628 278.39 32.8277 278.33 32.2676L278.87 32.2076ZM280.011 32.1175C280.131 32.7377 280.251 33.4079 280.351 34.1381L279.781 34.2682C279.701 33.4879 279.591 32.8077 279.471 32.2276L280.011 32.1175ZM281.111 31.9675C281.331 32.5477 281.491 33.0878 281.611 33.568L281.091 33.768C280.951 33.1979 280.791 32.6477 280.601 32.1075L281.111 31.9675ZM276.55 27.0661V33.1979H274.739V33.9181H274.059V27.0661H276.55ZM274.739 32.5277H275.879V27.7363H274.739V32.5277ZM288.733 27.1261C289.373 27.1261 289.884 27.2961 290.264 27.6563C290.644 27.9964 290.834 28.4665 290.834 29.0667C290.834 29.5168 290.704 29.9069 290.464 30.237C290.354 30.357 290.084 30.6171 289.643 31.0072C289.423 31.1873 289.273 31.3673 289.173 31.5474C289.043 31.7674 288.983 32.0175 288.983 32.2876V32.5177H288.183V32.2876C288.183 31.9275 288.253 31.6174 288.403 31.3373C288.543 31.0772 288.763 30.8072 289.073 30.5271C289.413 30.227 289.623 30.0169 289.723 29.8969C289.914 29.6468 290.014 29.3868 290.014 29.1067C290.014 28.7066 289.894 28.3965 289.673 28.1764C289.433 27.9363 289.113 27.8263 288.693 27.8263C288.193 27.8263 287.823 27.9863 287.583 28.3164C287.363 28.5965 287.253 28.9766 287.253 29.4668H286.453C286.463 28.7666 286.663 28.2064 287.053 27.7863C287.453 27.3462 288.013 27.1261 288.733 27.1261ZM288.583 33.2179C288.753 33.2179 288.903 33.2679 289.023 33.3879C289.133 33.4979 289.193 33.638 289.193 33.808C289.193 33.9881 289.133 34.1281 289.023 34.2382C288.903 34.3482 288.753 34.4082 288.583 34.4082C288.413 34.4082 288.273 34.3482 288.153 34.2382C288.033 34.1181 287.983 33.9781 287.983 33.808C287.983 33.638 288.033 33.4979 288.153 33.3879C288.273 33.2679 288.413 33.2179 288.583 33.2179Z" fill="#232426"/>
</g>
</g>
<g filter="url(#filter2_d_271_1567)">
<g filter="url(#filter3_d_271_1567)">
<path d="M0 57.2632H242.213C246.948 57.2632 250.787 61.1019 250.787 65.8371V92.9791C250.787 97.7143 246.948 101.553 242.213 101.553H8.5739C3.83867 101.553 0 97.7144 0 92.9791V57.2632Z" fill="white" shape-rendering="crispEdges"/>
<path d="M12.2565 71.8867V72.6169C11.6763 72.807 11.0762 72.987 10.436 73.1571V75.4077C10.436 75.9879 10.1259 76.278 9.5157 76.278H8.40538L8.25534 75.5878C8.60544 75.6178 8.94554 75.6378 9.27563 75.6378C9.55572 75.6378 9.69576 75.4977 9.69576 75.2277V73.3271C9.05557 73.4672 8.40538 73.5972 7.72519 73.7072L7.62516 72.977C8.35537 72.857 9.04557 72.7369 9.69576 72.5969V70.6263H7.63516V69.9361H9.69576V68.5957C9.1656 68.7058 8.61544 68.7958 8.04528 68.8758L7.89524 68.1856C9.31565 68.0256 10.576 67.7355 11.6763 67.3054L11.9164 67.9856C11.4563 68.1456 10.9561 68.2957 10.436 68.4357V69.9361H12.8367C12.7766 69.1259 12.7466 68.2356 12.7466 67.2554H13.4668C13.4768 68.2657 13.5069 69.1559 13.5669 69.9361H16.6578V70.6263H13.6269C13.6969 71.3465 13.7869 71.9467 13.907 72.4369C13.967 72.6969 14.037 72.927 14.107 73.1471C14.5872 72.5669 15.0173 71.9067 15.3774 71.1665L15.9976 71.4966C15.5374 72.4369 14.9973 73.2371 14.3671 73.9073C14.5071 74.2474 14.6472 74.5375 14.8072 74.7675C15.1273 75.2477 15.3874 75.4977 15.5775 75.4977C15.7775 75.4877 15.9476 74.9276 16.1076 73.8073L16.7378 74.1373C16.4977 75.5578 16.1476 76.268 15.6875 76.268C15.2774 76.268 14.8472 75.9679 14.3871 75.3677C14.1871 75.0976 13.997 74.7775 13.837 74.4174C13.1167 75.0576 12.2965 75.5578 11.3862 75.9179L10.9961 75.2977C11.9764 74.9376 12.8267 74.4074 13.5569 73.7172C13.4368 73.3771 13.3268 73.007 13.2268 72.6169C13.0867 72.0467 12.9767 71.3866 12.8967 70.6263H10.436V72.4269C11.0862 72.2568 11.6963 72.0768 12.2565 71.8867ZM14.5672 67.3654C15.2874 67.8455 15.8975 68.3157 16.3977 68.7958L15.8775 69.316C15.4374 68.8558 14.8472 68.3557 14.087 67.8255L14.5672 67.3654ZM22.3994 67.6355H26.2405V72.5969H22.3994V67.6355ZM25.5403 71.9567V71.1165H23.0996V71.9567H25.5403ZM23.0996 70.5263H25.5403V69.7161H23.0996V70.5263ZM23.0996 69.1159H25.5403V68.2757H23.0996V69.1159ZM20.4088 70.2162V72.7469H19.6886V70.0662C19.2585 70.8664 18.7284 71.6066 18.0882 72.2868L17.8181 71.6066C18.5983 70.9064 19.2185 70.0762 19.6686 69.1259H18.0382V68.4657H19.6886V67.3554H20.4088V68.4657H21.7392V69.1259H20.4088V69.596C20.929 69.9661 21.4592 70.3863 21.9993 70.8464L21.5992 71.4466C21.1391 70.9264 20.7389 70.5163 20.4088 70.2162ZM18.9284 73.3171L19.6386 73.4672C19.3786 74.4274 19.0184 75.2677 18.5583 75.9679L17.9381 75.5778C18.3983 74.8976 18.7284 74.1474 18.9284 73.3171ZM23.7898 76.1979H21.2891C20.6489 76.1979 20.3288 75.8578 20.3288 75.1977V73.1871H21.059V75.0476C21.059 75.3477 21.2091 75.4977 21.5092 75.4977H23.6598C23.8799 75.4977 24.0399 75.4377 24.1399 75.3377C24.26 75.2077 24.35 74.8275 24.39 74.2074L25.0702 74.4374C25.0002 75.2677 24.8601 75.7778 24.6401 75.9679C24.46 76.1179 24.1799 76.1979 23.7898 76.1979ZM22.3894 72.997C22.8696 73.5072 23.2497 73.9573 23.5097 74.3374L22.9396 74.7375C22.6595 74.3174 22.2894 73.8473 21.8293 73.3471L22.3894 72.997ZM25.5103 73.047C26.1805 73.8973 26.6907 74.6375 27.0508 75.2777L26.4406 75.7078C26.0605 75.0176 25.5603 74.2574 24.9302 73.4171L25.5103 73.047ZM28.3311 67.6355H37.1737V68.2857H34.2228V69.1759H36.5535V71.6966H32.3923C32.2123 72.0167 32.0422 72.3068 31.8822 72.5869H37.2937V73.2471H35.1431C34.943 73.8473 34.5729 74.3574 34.0428 74.7875C35.0631 75.0976 36.1034 75.4577 37.1637 75.8779L36.7136 76.468C35.6132 75.9979 34.5029 75.5878 33.3926 75.2277C32.4423 75.7378 30.8819 76.1379 28.7212 76.428L28.4512 75.7878C30.2317 75.5778 31.5821 75.2977 32.4823 74.9476C31.6521 74.6975 30.8219 74.4774 29.9916 74.2874C30.2317 73.9373 30.4517 73.5872 30.6718 73.2471H28.2011V72.5869H31.0719C31.252 72.2768 31.422 71.9767 31.5821 71.6966H28.9513V69.1759H31.282V68.2857H28.3311V67.6355ZM33.2726 74.5575C33.8327 74.2074 34.2128 73.7672 34.4129 73.2471H31.492C31.322 73.5172 31.162 73.7672 31.0119 73.9873C31.7521 74.1474 32.5023 74.3374 33.2726 74.5575ZM33.5326 69.1759V68.2857H31.9722V69.1759H33.5326ZM35.8633 71.0765V69.8061H34.2228V71.0765H35.8633ZM33.5326 71.0765V69.8061H31.9722V71.0765H33.5326ZM31.282 71.0765V69.8061H29.6415V71.0765H31.282ZM38.7241 70.7864H39.9645V67.2554H40.6447V70.7864H41.815V70.8264C42.5552 69.9261 43.0554 68.8358 43.3355 67.5554L43.9957 67.7155C43.6756 69.2359 43.0554 70.5163 42.1351 71.5466L41.815 71.1365V71.4366H40.6447V76.338H39.9645V71.4366H38.7241V70.7864ZM41.3949 67.8955L41.9451 67.9656C41.885 68.7958 41.745 69.536 41.5249 70.1762L41.0348 70.0262C41.2249 69.406 41.3449 68.6958 41.3949 67.8955ZM39.1042 68.0256C39.2843 68.6358 39.4343 69.336 39.5644 70.1362L39.0742 70.2562C38.9342 69.536 38.7741 68.8558 38.5741 68.2056L39.1042 68.0256ZM39.0142 72.1468L39.5444 72.2968C39.3943 73.2971 39.2043 74.1674 38.9742 74.9176L38.4341 74.7275C38.6541 74.0473 38.8542 73.1871 39.0142 72.1468ZM41.5349 71.9867C41.755 72.767 41.9651 73.6672 42.1451 74.6875L41.585 74.8275C41.4449 73.8973 41.2649 72.997 41.0548 72.1368L41.5349 71.9867ZM46.5264 71.1565C46.5264 73.2771 46.4764 74.5875 46.3863 75.0876C46.3063 75.8678 45.9362 76.268 45.266 76.268C45.076 76.268 44.7659 76.248 44.3358 76.228L44.1557 75.5678C44.5358 75.5878 44.8759 75.5978 45.156 75.5978C45.4761 75.5978 45.6661 75.3277 45.7162 74.7975C45.7862 74.4774 45.8262 73.4872 45.8462 71.8467H44.3258V72.2168C44.3258 73.7872 43.7356 75.1776 42.5652 76.388L41.9751 75.8779C43.0554 74.8175 43.6055 73.5972 43.6055 72.2168V71.8467H42.6653V71.1565H46.5264ZM44.5258 67.5755H45.8862C46.2063 68.9759 46.7865 70.1062 47.6067 70.9464L47.1566 71.5666C46.3563 70.7264 45.7562 69.616 45.356 68.2256H44.5258V67.5755ZM53.1783 70.7564H50.7876V72.5669H53.1783V70.7564ZM53.9085 72.5669H56.2592V70.7564H53.9085V72.5669ZM51.5678 68.8258C51.1477 69.2859 50.6876 69.7061 50.1974 70.0862H53.6484C54.0486 69.7261 54.4387 69.306 54.8288 68.8258H51.5678ZM50.0574 70.1862C49.7973 70.3863 49.5373 70.5663 49.2772 70.7364L48.797 70.1562C50.0774 69.396 51.1377 68.4057 51.968 67.1753L52.6882 67.3354C52.5081 67.6255 52.3181 67.9055 52.118 68.1656H55.7591V68.7158C55.3789 69.2559 54.9988 69.7061 54.6187 70.0862H56.9894V73.2471H50.7876V75.0876C50.7876 75.3877 50.9577 75.5478 51.2778 75.5478H56.1092C56.4493 75.5378 56.6793 75.4277 56.8094 75.2177C56.9094 75.0476 56.9894 74.6175 57.0594 73.9373L57.7696 74.1574C57.6996 74.8175 57.6096 75.2877 57.4896 75.5678C57.2895 76.0079 56.9094 76.228 56.3292 76.248H50.9977C50.3675 76.248 50.0574 75.9479 50.0574 75.3477V70.1862ZM59.16 68.5557H60.5004C60.3604 68.1556 60.2003 67.7655 60.0103 67.4054L60.7005 67.2153C60.8905 67.6555 61.0406 68.0556 61.1506 68.4157L60.7705 68.5557H62.2109V69.2159H59.16V68.5557ZM59.5401 70.0262H61.8908V70.6463H59.5401V70.0262ZM59.5401 71.3966H61.8908V72.0167H59.5401V71.3966ZM61.9809 72.887V75.7178H60.1203V76.258H59.4501V72.887H61.9809ZM60.1203 75.0976H61.3307V73.4872H60.1203V75.0976ZM64.0114 72.3868H66.5322V74.9276H64.0114V72.3868ZM65.942 74.3474V72.977H64.6016V74.3474H65.942ZM67.8726 67.6255V75.4877C67.8726 76.0579 67.6225 76.348 67.1223 76.348H66.122L65.952 75.6878C66.2921 75.7078 66.6122 75.7278 66.9123 75.7278C67.0923 75.7278 67.1924 75.5678 67.1924 75.2477V71.6266H63.3913V72.7069C63.3813 74.2374 63.1612 75.4777 62.7411 76.438L62.1909 75.9379C62.531 75.0976 62.7111 74.0373 62.7211 72.7469V67.6255H67.8726ZM63.3913 71.0264H64.9617V69.9861H63.3913V71.0264ZM65.6019 71.0264H67.1924V69.9861H65.6019V71.0264ZM63.3913 69.366H64.9617V68.2857H63.3913V69.366ZM65.6019 69.366H67.1924V68.2857H65.6019V69.366ZM73.004 68.9659V75.7878H72.3038V75.2177H70.4833V76.0779H69.7831V68.9659H70.7134C70.9134 68.4057 71.0535 67.8255 71.1435 67.2254L71.8637 67.3254C71.7437 67.9156 71.5936 68.4657 71.3936 68.9659H73.004ZM70.4833 74.5475H72.3038V72.3568H70.4833V74.5475ZM70.4833 71.7066H72.3038V69.6461H70.4833V71.7066ZM74.7445 71.2865C75.4647 72.1168 76.0049 72.847 76.385 73.4672L75.8148 73.8673C75.4047 73.2071 74.8546 72.4669 74.1644 71.6466L74.7445 71.2865ZM78.1755 68.9759C78.1755 72.2968 78.1255 74.3574 78.0255 75.1376C77.9255 75.8979 77.4653 76.288 76.6251 76.288C76.425 76.288 76.0849 76.268 75.6048 76.248L75.4347 75.5878C75.8549 75.6078 76.215 75.6178 76.525 75.6178C76.9952 75.6178 77.2653 75.3577 77.3453 74.8476C77.4053 74.2874 77.4453 72.5569 77.4653 69.6761H74.7145C74.4344 70.3062 74.1043 70.8764 73.7142 71.3866L73.2841 70.8164C73.9843 69.8361 74.4544 68.6358 74.7145 67.2153L75.4247 67.3054C75.3047 67.8955 75.1647 68.4557 74.9846 68.9759H78.1755ZM81.4265 72.5669C80.9963 73.047 80.5062 73.5072 79.966 73.9473L79.746 73.2271C80.9063 72.2468 81.7566 71.1365 82.2867 69.8861L82.9369 70.1862C82.7168 70.6864 82.4568 71.1565 82.1567 71.6166V76.448H81.4265V72.5669ZM87.4182 76.258H85.2076C84.5974 76.258 84.2973 75.9379 84.2973 75.2977V70.0162H85.0275V72.0367L88.3585 71.8367V72.5269L85.0275 72.7069V75.1476C85.0275 75.4277 85.1575 75.5778 85.4276 75.5778H87.2982C87.5382 75.5778 87.7183 75.5077 87.8283 75.3777C87.9684 75.2177 88.0584 74.7375 88.0984 73.9373L88.7886 74.1474C88.7086 75.1476 88.5585 75.7578 88.3385 75.9779C88.1484 76.1579 87.8383 76.258 87.4182 76.258ZM79.956 68.1456H82.1167V67.2153H82.8269V68.1456H84.0172V68.8258H82.8269V69.7061H82.1167V68.8258H79.956V68.1456ZM85.7177 67.2153H86.4279V68.1456H88.5885V68.8258H86.4279V69.7061H85.7177V68.8258H84.5174V68.1456H85.7177V67.2153ZM90.289 68.2657H94.2002V67.2654H94.9404V68.2657H98.8315V68.9559H94.9404V69.9361H98.0913V72.767H95.5505C96.2708 73.7872 97.4911 74.6875 99.1916 75.4877L98.7015 76.1079C96.9309 75.1176 95.6906 74.0073 94.9704 72.767H94.9404V76.398H94.2002V72.767H94.1701C93.4099 74.1273 92.1496 75.2477 90.3791 76.1279L89.9589 75.4677C91.6194 74.7675 92.8298 73.8673 93.58 72.767H91.0693V69.9361H94.2002V68.9559H90.289V68.2657ZM97.3711 72.1068V70.6163H94.9404V72.1068H97.3711ZM94.2002 72.1068V70.6163H91.7895V72.1068H94.2002ZM104.863 71.1165C105.083 71.1165 105.263 71.2065 105.403 71.3966C105.533 71.5766 105.603 71.8067 105.603 72.0968C105.603 72.5369 105.473 72.927 105.213 73.2671C104.953 73.5872 104.603 73.8073 104.183 73.9173V73.4271C104.443 73.3371 104.653 73.1871 104.823 72.987C104.963 72.777 105.033 72.5569 105.033 72.3168C104.993 72.3368 104.913 72.3568 104.813 72.3568C104.643 72.3568 104.503 72.2968 104.383 72.1768C104.263 72.0567 104.213 71.9067 104.213 71.7367C104.213 71.5466 104.273 71.3966 104.393 71.2865C104.503 71.1665 104.663 71.1165 104.863 71.1165ZM110.845 70.6663H114.126C114.326 70.3363 114.506 70.0062 114.646 69.6761L115.356 69.7661C115.226 70.0862 115.086 70.3863 114.926 70.6663H119.597V71.3565H114.496C114.176 71.8167 113.806 72.2368 113.396 72.6369H115.346V71.7367H116.066V72.6369H118.727V75.0276C118.727 75.6578 118.437 75.9779 117.857 75.9779H117.027L116.837 75.2877L117.627 75.3177C117.887 75.3177 118.017 75.1676 118.017 74.8676V73.3071H116.066V76.458H115.346V73.3071H113.546V76.0679H112.826V73.1471C112.305 73.5872 111.725 73.9873 111.105 74.3574L110.675 73.7872C111.915 73.077 112.906 72.2668 113.636 71.3565H110.845V70.6663ZM117.767 67.1953L118.397 67.5855C117.757 67.9956 117.117 68.3557 116.477 68.6558C117.297 68.9559 118.077 69.2659 118.817 69.596L118.427 70.1962C117.487 69.7561 116.547 69.376 115.586 69.0359C114.646 69.396 113.426 69.7561 111.945 70.1262L111.555 69.496C112.665 69.2759 113.686 69.0159 114.606 68.6958C113.766 68.4157 112.916 68.1756 112.065 67.9656L112.435 67.3954C113.526 67.6755 114.566 67.9956 115.566 68.3357C116.367 67.9956 117.097 67.6155 117.767 67.1953ZM121.248 68.2757H123.068C122.968 67.9356 122.868 67.6255 122.758 67.3454L123.469 67.2254C123.569 67.5354 123.669 67.8855 123.759 68.2757H125.319V68.9258H122.548V70.6864C122.548 70.9364 122.668 71.0665 122.928 71.0665H125.069V71.7166H122.748C122.158 71.7166 121.868 71.4266 121.868 70.8464V68.9258H121.248V68.2757ZM125.129 72.997C124.149 73.077 123.149 73.1271 122.108 73.1671L121.888 72.5469C124.609 72.4469 126.87 72.2268 128.69 71.8967L129.03 72.4969C128.01 72.6769 126.94 72.817 125.829 72.927V73.9773H128.98V74.5975H125.829V75.5077H129.86V76.1579H121.098V75.5077H125.129V74.5975H121.998V73.9773H125.129V72.997ZM127.22 69.0159C127.59 69.2759 127.92 69.536 128.2 69.7961C128.51 69.456 128.75 69.0859 128.91 68.6858H126.68C126.339 69.1859 125.919 69.616 125.419 69.9561L125.009 69.456C125.809 68.9058 126.359 68.1656 126.64 67.2454L127.3 67.3654C127.22 67.6055 127.14 67.8355 127.04 68.0456H129.62V68.6458C129.15 70.2162 127.86 71.3165 125.749 71.9567L125.409 71.3365C125.869 71.1965 126.299 71.0465 126.68 70.8664C126.439 70.6263 126.169 70.3963 125.849 70.1562L126.249 69.7761C126.61 70.0462 126.92 70.3162 127.18 70.5963C127.41 70.4563 127.62 70.3162 127.8 70.1662C127.53 69.9161 127.21 69.6561 126.83 69.396L127.22 69.0159ZM134.272 72.5569V73.4471C134.272 73.5072 134.262 73.5572 134.262 73.6172H138.253V72.5569H134.272ZM138.253 71.9267V70.8364H134.272V71.9267H138.253ZM134.212 74.2474C134.072 75.1076 133.732 75.8378 133.201 76.418L132.671 75.9379C133.271 75.2977 133.582 74.4874 133.602 73.4872V71.1565C133.041 71.8467 132.401 72.4869 131.671 73.077L131.211 72.4769C132.461 71.4766 133.431 70.3363 134.122 69.0359H131.471V68.3457H134.452C134.622 67.9556 134.772 67.5655 134.892 67.1753L135.622 67.2554C135.512 67.6355 135.382 67.9956 135.242 68.3457H140.213V69.0359H134.942C134.742 69.436 134.522 69.8261 134.282 70.2062H138.943V75.5578C138.943 76.0979 138.643 76.368 138.063 76.368H137.013L136.842 75.7178C137.203 75.7378 137.543 75.7478 137.853 75.7478C138.113 75.7478 138.253 75.5978 138.253 75.3177V74.2474H134.212ZM146.745 70.7064C147.055 71.5866 147.466 72.3868 147.976 73.1271C148.556 72.1268 148.856 70.9364 148.876 69.556H146.905C146.705 70.0762 146.475 70.5563 146.215 71.0064L146.745 70.7064ZM149.566 69.556C149.526 71.2065 149.136 72.5969 148.416 73.7172C149.066 74.5375 149.836 75.2577 150.736 75.8979L150.266 76.448C149.386 75.8078 148.626 75.0976 147.996 74.3074C147.285 75.1877 146.335 75.8879 145.155 76.408L144.705 75.8178C145.945 75.3177 146.895 74.6175 147.576 73.7372C146.995 72.907 146.545 72.0067 146.205 71.0264C145.995 71.3665 145.775 71.6966 145.545 72.0067L145.115 71.4466C145.955 70.2962 146.525 68.8858 146.815 67.2053L147.526 67.2854C147.426 67.8455 147.295 68.3657 147.145 68.8558H150.426V69.556H149.566ZM141.744 70.8664H143.054V68.6558H141.534V67.9656H145.185V68.6558H143.764V70.8664H144.915V71.5566H143.764V74.0073C144.295 73.8673 144.815 73.7172 145.325 73.5572V74.2374C144.185 74.5975 142.954 74.8976 141.634 75.1376L141.454 74.4474C141.994 74.3674 142.534 74.2774 143.054 74.1674V71.5566H141.744V70.8664ZM152.067 70.9464H153.057V68.5957H151.957V67.9055H154.858V68.5957H153.757V70.9464H154.768V71.6266H153.757V73.9773C154.177 73.8573 154.588 73.7172 154.988 73.5772V74.2774C154.067 74.6075 153.067 74.8776 151.987 75.0976L151.807 74.4074C152.227 74.3374 152.647 74.2574 153.057 74.1574V71.6266H152.067V70.9464ZM155.258 68.1056H156.618C156.768 67.7955 156.878 67.4854 156.958 67.1753L157.678 67.2754C157.598 67.5755 157.478 67.8455 157.338 68.1056H160.129V72.3368H158.449V75.2077C158.449 75.4777 158.559 75.6178 158.799 75.6178H159.809C159.939 75.6178 160.049 75.5878 160.129 75.5378C160.239 75.4577 160.309 75.1977 160.339 74.7375L160.959 74.9376C160.889 75.5578 160.779 75.9379 160.629 76.0779C160.469 76.1779 160.259 76.238 159.979 76.248H158.619C158.059 76.248 157.789 75.9379 157.789 75.3277V72.3368H157.178C157.148 73.4071 156.958 74.2574 156.598 74.8976C156.238 75.4977 155.648 75.9679 154.828 76.308L154.468 75.7278C155.228 75.4077 155.768 74.9776 156.068 74.4474C156.348 73.9073 156.498 73.1971 156.518 72.3368H155.258V68.1056ZM159.449 71.7066V70.5263H158.019V71.7066H159.449ZM157.358 71.7066V70.5263H155.938V71.7066H157.358ZM155.938 69.9261H157.358V68.7458H155.938V69.9261ZM158.019 68.7458V69.9261H159.449V68.7458H158.019ZM160.259 73.1571C160.489 73.6672 160.659 74.1373 160.779 74.5675L160.379 74.7175C160.339 74.5775 160.309 74.4574 160.269 74.3374C159.789 74.5175 159.289 74.6475 158.779 74.7175L158.649 74.3174C158.939 73.8773 159.189 73.2971 159.389 72.5969L159.839 72.7369C159.639 73.3271 159.409 73.8273 159.139 74.2374C159.479 74.1874 159.819 74.0973 160.149 73.9673C160.069 73.7272 159.979 73.4872 159.889 73.2571L160.259 73.1571ZM170.792 67.9156V76.0079H170.092V75.2177H167.661V76.1079H166.971V67.9156H170.792ZM167.661 74.5375H170.092V68.5857H167.661V74.5375ZM162.4 69.9861H164.15V68.5457C163.65 68.6258 163.14 68.6858 162.62 68.7258L162.39 68.0856C163.88 67.9656 165.121 67.7155 166.121 67.3354L166.461 67.9356C165.941 68.1256 165.411 68.2857 164.851 68.4057V69.9861H166.561V70.6563H164.851V71.1565C165.431 71.6666 166.011 72.2468 166.601 72.907L166.181 73.5272C165.661 72.817 165.221 72.2468 164.851 71.8267V76.338H164.15V71.8967C163.72 72.847 163.15 73.7072 162.44 74.4774L162.14 73.6972C163.07 72.817 163.74 71.8267 164.15 70.7264V70.6563H162.4V69.9861ZM174.913 67.9856H176.324V67.2254H177.014V67.9856H179.335V67.2254H180.025V67.9856H181.445V68.6358H180.025V70.0162H178.494V70.7264H181.215V75.5778C181.215 76.1179 180.945 76.388 180.425 76.388H179.515L179.335 75.7478L180.215 75.7778C180.445 75.7778 180.565 75.6578 180.565 75.4377V71.3665H178.494V76.248H177.854V74.8576L177.584 75.2377C177.264 74.8676 177.064 74.3274 176.964 73.6172C176.804 74.3074 176.544 74.8776 176.184 75.3177L175.934 74.8175C176.364 74.3174 176.624 73.6472 176.724 72.797H176.234V72.2968H177.214C177.214 73.4471 177.424 74.2774 177.854 74.7775V71.3665H175.804V76.368H175.154V70.7264H177.854V70.0162H176.324V68.6358H174.913V67.9856ZM177.014 68.6358V69.436H179.335V68.6358H177.014ZM173.073 67.4054C173.723 67.9055 174.263 68.4157 174.703 68.9258L174.233 69.396C173.833 68.9158 173.293 68.3957 172.603 67.8455L173.073 67.4054ZM173.033 69.7961C173.693 70.2862 174.253 70.7764 174.713 71.2665L174.233 71.7467C173.833 71.2865 173.263 70.7864 172.543 70.2562L173.033 69.7961ZM174.143 72.4469L174.763 72.6869C174.333 73.9673 173.863 75.1576 173.353 76.278L172.693 75.9779C173.253 74.8275 173.733 73.6472 174.143 72.4469ZM178.875 72.2968H179.845C179.845 73.3971 180.065 74.1774 180.505 74.6575L180.195 75.0776C179.905 74.7375 179.715 74.2374 179.615 73.5872C179.465 74.2074 179.235 74.7175 178.925 75.1276L178.665 74.6275C179.045 74.1674 179.275 73.5572 179.365 72.797H178.875V72.2968ZM183.086 70.7764H186.717C186.837 70.0962 186.917 69.326 186.967 68.4757H183.346V67.7755H191.248V68.4757H187.697C187.637 69.336 187.557 70.0962 187.437 70.7764H191.538V71.4666H187.857C188.557 73.3671 189.888 74.8376 191.848 75.8578L191.398 76.438C189.338 75.3177 187.957 73.7272 187.247 71.6666C187.077 72.3468 186.867 72.927 186.607 73.3871C185.927 74.5675 184.796 75.5878 183.196 76.438L182.746 75.8478C184.236 75.0876 185.296 74.1774 185.927 73.1171C186.187 72.6769 186.397 72.1268 186.567 71.4666H183.086V70.7764ZM194.839 72.847C194.529 73.4972 194.179 74.0673 193.779 74.5575L193.299 73.9973C193.889 73.3171 194.369 72.4169 194.729 71.3165L195.379 71.4666C195.299 71.7267 195.209 71.9667 195.119 72.2068H197.62V71.4166H198.36V72.2068H201.681V72.847H198.36V73.8473H201.311V74.4674H198.36V75.4877H202.131V76.1479H193.639V75.4877H197.62V74.4674H194.839V73.8473H197.62V72.847H194.839ZM194.539 67.5554H201.051V71.0965H194.539V67.5554ZM200.341 70.4863V69.616H195.249V70.4863H200.341ZM195.249 69.0359H200.341V68.1756H195.249V69.0359ZM207.893 71.1165C208.113 71.1165 208.293 71.2065 208.433 71.3966C208.563 71.5766 208.633 71.8067 208.633 72.0968C208.633 72.5369 208.503 72.927 208.243 73.2671C207.983 73.5872 207.633 73.8073 207.213 73.9173V73.4271C207.473 73.3371 207.683 73.1871 207.853 72.987C207.993 72.777 208.063 72.5569 208.063 72.3168C208.023 72.3368 207.943 72.3568 207.843 72.3568C207.673 72.3568 207.533 72.2968 207.413 72.1768C207.293 72.0567 207.243 71.9067 207.243 71.7367C207.243 71.5466 207.303 71.3966 207.423 71.2865C207.533 71.1665 207.693 71.1165 207.893 71.1165ZM214.105 68.8258H215.715V68.2657H213.745V67.7055H215.715V67.2354H216.355V67.7055H218.216V68.2657H216.355V68.8258H217.966V70.5663H216.355V70.7264C216.946 70.9664 217.546 71.2365 218.146 71.5466L217.776 72.0868C217.216 71.7066 216.736 71.4066 216.355 71.2065V72.2368H215.715V71.0865C215.125 71.5866 214.525 71.9967 213.905 72.3068L213.595 71.7267C214.295 71.4866 214.995 71.0965 215.695 70.5663H214.105V68.8258ZM217.386 70.0762V69.326H216.355V70.0762H217.386ZM215.715 70.0762V69.326H214.685V70.0762H215.715ZM219.536 68.6758C219.266 69.2559 218.926 69.7661 218.516 70.2162L218.106 69.6761C218.716 68.9959 219.136 68.1656 219.356 67.1853L219.996 67.2654C219.936 67.5454 219.856 67.8055 219.776 68.0556H222.507V68.6758H221.927C221.787 69.576 221.487 70.3062 221.027 70.8664C220.997 70.8864 220.977 70.9164 220.957 70.9464C221.447 71.2565 222.017 71.4966 222.677 71.6766L222.307 72.2468C221.587 72.0267 220.967 71.7367 220.447 71.3665C219.966 71.7066 219.336 71.9767 218.576 72.1968L218.326 71.6066C218.986 71.4266 219.526 71.2065 219.936 70.9464C219.566 70.5863 219.266 70.1762 219.026 69.7361L219.566 69.436C219.786 69.8561 220.076 70.2362 220.437 70.5563L220.517 70.4763C220.907 70.0262 221.167 69.426 221.287 68.6758H219.536ZM214.265 72.5669H222.167V73.1971H218.496V74.0573H221.557V74.6775H218.496V75.5378H222.647V76.1879H213.765V75.5378H215.365V73.6772H216.025V75.5378H217.776V73.1971H214.265V72.5669ZM227.439 67.5955V70.2662H227.819V71.8567H227.319V75.6778C227.319 76.1079 227.069 76.328 226.588 76.328H225.898L225.738 75.7478C225.978 75.7578 226.198 75.7678 226.398 75.7678C226.598 75.7678 226.708 75.6678 226.708 75.4677V74.5475C226.318 74.6775 225.878 74.7975 225.398 74.9076L225.248 74.3574C225.778 74.2474 226.268 74.1173 226.708 73.9773V72.1268H225.238V72.787C225.678 72.857 226.118 72.957 226.538 73.077L226.348 73.5572C225.978 73.4371 225.608 73.3471 225.238 73.2771V74.0473C225.228 75.0076 225.008 75.7878 224.578 76.388L224.098 75.9479C224.448 75.4577 224.628 74.8376 224.638 74.0973V71.8867H224.128V70.2662H224.518V67.5955H227.439ZM224.728 71.5766H227.229V70.8164H224.728V71.5766ZM225.118 70.2662H225.708V68.9358H226.838V68.1556H225.118V70.2662ZM226.188 70.2662H226.838V69.446H226.188V70.2662ZM228.269 67.9856H229.479V67.2654H230.099V67.9856H230.86V67.2654H231.48V67.9856H232.71V71.0064H228.269V67.9856ZM232.16 70.5063V69.7461H231.35V70.5063H232.16ZM230.86 70.5063V69.7461H230.099V70.5063H230.86ZM229.609 70.5063V69.7461H228.829V70.5063H229.609ZM228.829 69.2759H229.609V68.5157H228.829V69.2759ZM230.099 68.5157V69.2759H230.86V68.5157H230.099ZM231.35 68.5157V69.2759H232.16V68.5157H231.35ZM228.009 71.5366H232.98V72.1168H228.009V71.5366ZM228.439 72.6769H232.52V74.5675H231.89L231.64 75.4877H233.05V76.0979H227.799V75.4877H229.329L229.049 74.5675H228.439V72.6769ZM229.969 75.4877H231.01L231.26 74.5675H229.689L229.969 75.4877ZM231.9 74.0173V73.1971H229.059V74.0173H231.9ZM9.41568 84.1259H14.167V84.7761H12.1565V85.6964H13.937V88.7072H12.1465V90.1776C12.5866 90.0976 12.9767 90.0176 13.3168 89.9176C13.1968 89.6675 13.0667 89.4374 12.9467 89.2174L13.5269 88.9873C13.917 89.6175 14.2571 90.2877 14.5372 90.9979L13.877 91.268C13.7769 90.9979 13.6869 90.7478 13.5869 90.5077C12.6066 90.7778 11.2062 90.9779 9.38567 91.1179L9.17561 90.4577C10.0359 90.4177 10.7861 90.3577 11.4463 90.2777V88.7072H9.65574V85.6964H11.4363V84.7761H9.41568V84.1259ZM13.2868 88.067V86.3365H12.1365V88.067H13.2868ZM11.4563 88.067V86.3365H10.3259V88.067H11.4563ZM8.23533 82.5755H15.3574V86.9067C15.3574 88.4471 15.3974 89.4474 15.4974 89.8876C15.5775 90.3077 15.6875 90.5277 15.8075 90.5277C15.9676 90.5277 16.0876 90.0276 16.1876 89.0273L16.7778 89.3074C16.6578 90.0976 16.5277 90.6378 16.3777 90.9179C16.2376 91.1679 16.0676 91.298 15.8875 91.298C15.4674 91.298 15.1573 90.9979 14.9673 90.4077C14.7472 89.8275 14.6472 88.6672 14.6472 86.9067V83.2556H8.93554V86.7066C8.91553 88.5772 8.64545 90.1476 8.1153 91.428L7.55514 90.9679C7.99526 89.8376 8.21533 88.4171 8.23533 86.7066V82.5755ZM20.0487 86.2365V91.368H19.3385V86.3465C19.0285 87.2968 18.6183 88.1671 18.1182 88.9473L17.8081 88.1671C18.5083 87.2068 19.0184 86.1165 19.3285 84.8861H18.0082V84.1959H19.3385V82.2454H20.0487V84.1959H21.1391V84.8861H20.0487V85.4263C20.4689 85.9064 20.899 86.4366 21.3291 87.0267L21.3191 87.0367C22.1994 86.6766 22.9696 86.2665 23.6098 85.7964C23.1796 85.3863 22.8195 84.9661 22.5395 84.526C22.2794 84.8661 21.9993 85.1862 21.7092 85.4763L21.2491 84.9261C21.9793 84.2359 22.5695 83.3357 23.0296 82.2254L23.7198 82.3754C23.6198 82.6355 23.5097 82.8855 23.3897 83.1256H26.2105V83.6858C25.8504 84.486 25.3203 85.1962 24.6401 85.8264C25.3103 86.2965 26.1205 86.7066 27.0608 87.0567L26.7407 87.7269C25.7004 87.2868 24.8401 86.7967 24.1399 86.2465C23.3797 86.8367 22.4494 87.3368 21.3591 87.7569L21.089 87.3968L20.939 87.6269C20.5889 87.0467 20.2888 86.5866 20.0487 86.2365ZM26.1905 87.6569V91.388H25.4903V90.9479H22.6595V91.388H21.9593V87.6569H26.1905ZM22.6595 90.2777H25.4903V88.3271H22.6595V90.2777ZM24.0999 85.4063C24.6501 84.9261 25.0902 84.396 25.4203 83.8158H23.0096C22.9696 83.8758 22.9396 83.9458 22.8996 84.0059C23.2097 84.516 23.6098 84.9861 24.0999 85.4063ZM28.3311 82.6355H37.1737V83.2857H34.2228V84.1759H36.5535V86.6966H32.3923C32.2123 87.0167 32.0422 87.3068 31.8822 87.5869H37.2937V88.2471H35.1431C34.943 88.8473 34.5729 89.3574 34.0428 89.7875C35.0631 90.0976 36.1034 90.4577 37.1637 90.8779L36.7136 91.468C35.6132 90.9979 34.5029 90.5878 33.3926 90.2277C32.4423 90.7378 30.8819 91.1379 28.7212 91.428L28.4512 90.7878C30.2317 90.5778 31.5821 90.2977 32.4823 89.9476C31.6521 89.6975 30.8219 89.4774 29.9916 89.2874C30.2317 88.9373 30.4517 88.5872 30.6718 88.2471H28.2011V87.5869H31.0719C31.252 87.2768 31.422 86.9767 31.5821 86.6966H28.9513V84.1759H31.282V83.2857H28.3311V82.6355ZM33.2726 89.5575C33.8327 89.2074 34.2128 88.7672 34.4129 88.2471H31.492C31.322 88.5172 31.162 88.7672 31.0119 88.9873C31.7521 89.1474 32.5023 89.3374 33.2726 89.5575ZM33.5326 84.1759V83.2857H31.9722V84.1759H33.5326ZM35.8633 86.0765V84.8061H34.2228V86.0765H35.8633ZM33.5326 86.0765V84.8061H31.9722V86.0765H33.5326ZM31.282 86.0765V84.8061H29.6415V86.0765H31.282ZM46.8765 87.777L47.3566 88.2571C46.8865 88.7572 46.3563 89.1373 45.7562 89.3974C46.2963 89.9376 46.9265 90.4177 47.6667 90.8278L47.1866 91.378C45.6261 90.4677 44.5258 89.2974 43.9056 87.867L44.4658 87.5469C44.6859 88.037 44.9759 88.4872 45.316 88.9073C45.8662 88.6672 46.3863 88.2971 46.8765 87.777ZM39.3443 82.3854C40.0845 82.8855 40.7047 83.3857 41.2049 83.8858L40.6947 84.396C40.2446 83.9158 39.6244 83.4157 38.8342 82.8855L39.3443 82.3854ZM39.0942 84.7461C39.7944 85.2462 40.3946 85.7364 40.8748 86.2365L40.3646 86.7467C39.9345 86.2765 39.3343 85.7764 38.5741 85.2462L39.0942 84.7461ZM40.5147 87.5169L41.1548 87.777C40.6747 89.0173 40.1345 90.1977 39.5344 91.298L38.8142 90.9779C39.4543 89.8576 40.0245 88.6972 40.5147 87.5169ZM42.4652 85.4863V86.5666H46.0262V85.4863H42.4652ZM46.0262 84.8661V83.7658H42.4652V84.8661H46.0262ZM43.9857 82.1953C44.1557 82.4554 44.3157 82.7655 44.4758 83.1056H46.7264V87.2168H42.4652V90.5478C43.1454 90.3877 43.8156 90.1776 44.4958 89.9276L44.6558 90.5678C43.8756 90.8378 42.9053 91.0979 41.735 91.348L41.565 90.6978C41.705 90.6278 41.775 90.5177 41.775 90.3577V83.1056H43.7456C43.5955 82.8155 43.4355 82.5554 43.2654 82.3154L43.9857 82.1953ZM49.5273 82.3554C50.2275 82.8155 50.8176 83.2857 51.2978 83.7458L50.7976 84.2459C50.3675 83.7958 49.7873 83.3157 49.0471 82.8155L49.5273 82.3554ZM49.3272 84.8161C49.9874 85.2762 50.5476 85.7264 50.9877 86.1765L50.4875 86.6766C50.0974 86.2365 49.5473 85.7764 48.8471 85.2762L49.3272 84.8161ZM50.4275 87.6169L51.0577 87.867C50.6376 89.0673 50.1674 90.1877 49.6473 91.248L48.9771 90.9579C49.5373 89.8676 50.0274 88.7572 50.4275 87.6169ZM56.8394 82.5354V85.3463H56.2092V83.1356H52.8082V85.3563H52.168V82.5354H56.8394ZM53.2183 83.7058H55.7891V84.2059H53.2183V83.7058ZM53.2183 84.6961H55.7891V85.1962H53.2183V84.6961ZM51.5678 85.6864H57.4495V87.7069H51.5678V85.6864ZM56.7894 87.1568V86.2265H55.649V87.1568H56.7894ZM55.0288 87.1568V86.2265H53.9885V87.1568H55.0288ZM53.3684 87.1568V86.2265H52.218V87.1568H53.3684ZM51.5678 88.2471H57.1695V88.7872C56.6793 89.3274 56.0892 89.7775 55.399 90.1576C56.1592 90.3977 57.0194 90.5978 57.9797 90.7478L57.5696 91.348C56.4393 91.1479 55.459 90.8678 54.6387 90.5277C53.7185 90.9179 52.6382 91.2079 51.4178 91.388L51.1077 90.7578C52.128 90.6278 53.0283 90.4277 53.8285 90.1476C53.1283 89.7775 52.5581 89.3474 52.118 88.8673H51.5678V88.2471ZM52.8782 88.8673C53.3384 89.2474 53.8985 89.5775 54.5687 89.8576C55.1789 89.5775 55.709 89.2474 56.1692 88.8673H52.8782ZM67.2624 83.5157V88.2271H68.1926V88.9173H59.1V88.2271H60.0703V83.5157H62.2109V82.1653H62.9011V83.5157H64.4416V82.1653H65.1318V83.5157H67.2624ZM60.7705 88.2271H62.2109V86.4666H60.7705V88.2271ZM62.9011 88.2271H64.4416V86.4666H62.9011V88.2271ZM65.1318 88.2271H66.5622V86.4666H65.1318V88.2271ZM60.7705 85.8164H62.2109V84.1859H60.7705V85.8164ZM62.9011 84.1859V85.8164H64.4416V84.1859H62.9011ZM65.1318 84.1859V85.8164H66.5622V84.1859H65.1318ZM64.9817 89.1474C66.122 89.6175 67.1523 90.1877 68.0926 90.8578L67.7125 91.468C66.7022 90.7078 65.6719 90.1176 64.6216 89.6975L64.9817 89.1474ZM62.321 89.1574L62.7611 89.6675C61.9108 90.3877 60.8505 90.9979 59.5802 91.488L59.2601 90.8178C60.5004 90.3977 61.5207 89.8376 62.321 89.1574ZM74.6945 86.6266V87.947H76.1549V86.6266H74.6945ZM74.6945 88.5972V90.1076H76.1549V88.5972H74.6945ZM74.6945 90.7678V91.388H74.0343V85.8664C73.8043 86.3565 73.5642 86.7867 73.3041 87.1668L72.844 86.7367C72.874 86.6766 72.904 86.6266 72.924 86.5866H72.6039V90.5277C72.6039 91.0679 72.3338 91.348 71.8137 91.348H70.9234L70.7734 90.6778C71.0535 90.7078 71.3135 90.7278 71.5736 90.7278C71.8037 90.7278 71.9237 90.5978 71.9237 90.3577V86.7767C71.4136 88.3971 70.7234 89.6675 69.8431 90.5678L69.323 90.0876C70.2132 89.1273 70.8934 87.967 71.3536 86.5866H69.6431C69.9031 85.3863 70.0932 84.316 70.2332 83.3757H69.6931V82.7155H73.3241V83.3757H72.6039V85.9364H73.2641C73.7743 84.8561 74.1644 83.6158 74.4344 82.1953L75.1146 82.3754C74.9946 82.9356 74.8646 83.4657 74.7245 83.9659H76.1649C76.0249 83.4357 75.8549 82.9156 75.6548 82.4154L76.335 82.2254C76.5351 82.8155 76.6951 83.3557 76.8051 83.8458L76.485 83.9659H78.3556V84.626H76.8351V85.9664H78.1955V86.6266H76.8351V87.947H78.2155V88.5972H76.8351V90.1076H78.5356V90.7678H74.6945ZM76.1549 84.626H74.6945V85.9664H76.1549V84.626ZM71.9237 85.9364V83.3757H70.9134C70.7534 84.346 70.5933 85.1962 70.4233 85.9364H71.9237Z" fill="#232426"/>
</g>
</g>
</g>
<defs>
<filter id="filter0_d_271_1567" x="50.0742" y="-8.73682" width="270.787" height="64.29" filterUnits="userSpaceOnUse" color-interpolation-filters="sRGB">
<feFlood flood-opacity="0" result="BackgroundImageFix"/>
<feColorMatrix in="SourceAlpha" type="matrix" values="0 0 0 0 0 0 0 0 0 0 0 0 0 0 0 0 0 0 127 0" result="hardAlpha"/>
<feOffset/>
<feGaussianBlur stdDeviation="5"/>
<feComposite in2="hardAlpha" operator="out"/>
<feColorMatrix type="matrix" values="0 0 0 0 0 0 0 0 0 0 0 0 0 0 0 0 0 0 0.06 0"/>
<feBlend mode="normal" in2="BackgroundImageFix" result="effect1_dropShadow_271_1567"/>
<feBlend mode="normal" in="SourceGraphic" in2="effect1_dropShadow_271_1567" result="shape"/>
</filter>
<filter id="filter1_d_271_1567" x="45.7844" y="-5.88174" width="279.366" height="72.8697" filterUnits="userSpaceOnUse" color-interpolation-filters="sRGB">
<feFlood flood-opacity="0" result="BackgroundImageFix"/>
<feColorMatrix in="SourceAlpha" type="matrix" values="0 0 0 0 0 0 0 0 0 0 0 0 0 0 0 0 0 0 127 0" result="hardAlpha"/>
<feOffset dy="7.14492"/>
<feGaussianBlur stdDeviation="7.14492"/>
<feComposite in2="hardAlpha" operator="out"/>
<feColorMatrix type="matrix" values="0 0 0 0 0 0 0 0 0 0 0 0 0 0 0 0 0 0 0.01 0"/>
<feBlend mode="normal" in2="BackgroundImageFix" result="effect1_dropShadow_271_1567"/>
<feBlend mode="normal" in="SourceGraphic" in2="effect1_dropShadow_271_1567" result="shape"/>
</filter>
<filter id="filter2_d_271_1567" x="-10" y="47.2632" width="270.787" height="64.29" filterUnits="userSpaceOnUse" color-interpolation-filters="sRGB">
<feFlood flood-opacity="0" result="BackgroundImageFix"/>
<feColorMatrix in="SourceAlpha" type="matrix" values="0 0 0 0 0 0 0 0 0 0 0 0 0 0 0 0 0 0 127 0" result="hardAlpha"/>
<feOffset/>
<feGaussianBlur stdDeviation="5"/>
<feComposite in2="hardAlpha" operator="out"/>
<feColorMatrix type="matrix" values="0 0 0 0 0 0 0 0 0 0 0 0 0 0 0 0 0 0 0.06 0"/>
<feBlend mode="normal" in2="BackgroundImageFix" result="effect1_dropShadow_271_1567"/>
<feBlend mode="normal" in="SourceGraphic" in2="effect1_dropShadow_271_1567" result="shape"/>
</filter>
<filter id="filter3_d_271_1567" x="-14.2898" y="50.1183" width="279.366" height="72.8697" filterUnits="userSpaceOnUse" color-interpolation-filters="sRGB">
<feFlood flood-opacity="0" result="BackgroundImageFix"/>
<feColorMatrix in="SourceAlpha" type="matrix" values="0 0 0 0 0 0 0 0 0 0 0 0 0 0 0 0 0 0 127 0" result="hardAlpha"/>
<feOffset dy="7.14492"/>
<feGaussianBlur stdDeviation="7.14492"/>
<feComposite in2="hardAlpha" operator="out"/>
<feColorMatrix type="matrix" values="0 0 0 0 0 0 0 0 0 0 0 0 0 0 0 0 0 0 0.01 0"/>
<feBlend mode="normal" in2="BackgroundImageFix" result="effect1_dropShadow_271_1567"/>
<feBlend mode="normal" in="SourceGraphic" in2="effect1_dropShadow_271_1567" result="shape"/>
</filter>
<clipPath id="clip0_271_1567">
<rect width="311" height="101" fill="white" transform="translate(0 0.263184)"/>
</clipPath>
</defs>
</svg>
