<svg width="135" height="135" viewBox="0 0 135 135" fill="none" xmlns="http://www.w3.org/2000/svg">
<path d="M115.058 58.0956V42.8548C115.058 34.2448 115.058 29.9398 112.937 27.1311C110.815 24.3223 106.018 22.9587 96.4243 20.2316C89.8697 18.3684 84.0915 16.1236 79.4752 14.0743C73.181 11.2803 70.0341 9.8833 67.8081 9.8833C65.5821 9.8833 62.4353 11.2803 56.1411 14.0743C51.5247 16.1236 45.7468 18.3683 39.1921 20.2316C29.5982 22.9587 24.8013 24.3223 22.6797 27.1311C20.5581 29.9398 20.5581 34.2448 20.5581 42.8548V58.0956C20.5581 87.6279 47.1376 105.347 60.4266 112.36C63.6139 114.042 65.2073 114.883 67.8081 114.883C70.409 114.883 72.0023 114.042 75.1896 112.36C88.4784 105.347 115.058 87.6279 115.058 58.0956Z" fill="url(#paint0_linear_265_1507)"/>
<g filter="url(#filter0_d_265_1507)">
<path d="M67.4995 47.25C61.7004 47.25 56.9995 50.7757 56.9995 55.125C56.9995 59.4741 61.7004 63 67.4995 63C73.2987 63 77.9995 66.5259 77.9995 70.875C77.9995 75.2241 73.2987 78.75 67.4995 78.75M67.4995 47.25C72.0712 47.25 75.9604 49.4414 77.4021 52.5M67.4995 47.25V42M67.4995 78.75C62.9278 78.75 59.0386 76.5586 57.597 73.5M67.4995 78.75V84" stroke="white" stroke-width="6.075" stroke-linecap="round" shape-rendering="crispEdges"/>
</g>
<defs>
<filter id="filter0_d_265_1507" x="45.8619" y="30.8624" width="43.2752" height="64.2752" filterUnits="userSpaceOnUse" color-interpolation-filters="sRGB">
<feFlood flood-opacity="0" result="BackgroundImageFix"/>
<feColorMatrix in="SourceAlpha" type="matrix" values="0 0 0 0 0 0 0 0 0 0 0 0 0 0 0 0 0 0 127 0" result="hardAlpha"/>
<feOffset/>
<feGaussianBlur stdDeviation="4.05"/>
<feComposite in2="hardAlpha" operator="out"/>
<feColorMatrix type="matrix" values="0 0 0 0 0 0 0 0 0 0 0 0 0 0 0 0 0 0 0.08 0"/>
<feBlend mode="normal" in2="BackgroundImageFix" result="effect1_dropShadow_265_1507"/>
<feBlend mode="normal" in="SourceGraphic" in2="effect1_dropShadow_265_1507" result="shape"/>
</filter>
<linearGradient id="paint0_linear_265_1507" x1="67.8081" y1="9.8833" x2="67.8081" y2="114.883" gradientUnits="userSpaceOnUse">
<stop stop-color="#1AAEC0" stop-opacity="0.4"/>
<stop offset="1" stop-color="#1AAEC0"/>
</linearGradient>
</defs>
</svg>
