<svg width="223" height="134" viewBox="0 0 223 134" fill="none" xmlns="http://www.w3.org/2000/svg">
<g filter="url(#filter0_d_271_1540)">
<rect x="12" y="11.6104" width="181.7" height="110.6" rx="11.203" fill="white"/>
<rect x="25.2966" y="31.2173" width="61.7937" height="72.4888" rx="8.40226" fill="#75E1EB"/>
<path d="M67.9839 58.422C68.0235 63.246 65.1911 67.3949 61.0937 69.2643C69.1013 71.1179 75.4538 77.3825 77.4261 85.3732C77.8221 86.9777 76.5263 88.4045 74.8768 88.4045H37.8534C36.2032 88.4045 34.8839 86.9766 35.2548 85.3717C37.1004 77.3852 43.3491 71.1182 51.3207 69.2695C47.1927 67.4001 44.2922 63.2512 44.2526 58.4272C44.1986 51.848 49.4672 46.5151 56.0206 46.5151C62.574 46.5151 67.93 51.848 67.9839 58.422Z" fill="#232426"/>
<path d="M51.9131 62.2739C52.3288 63.2282 53.7725 65.1367 56.2215 65.1367C58.6704 65.1367 60.0763 63.2282 60.4731 62.2739" stroke="#75E1EB" stroke-width="2.80076" stroke-linecap="round"/>
<rect opacity="0.8" x="96.2036" y="32.4966" width="22.7125" height="22.7125" rx="2.80076" fill="#C9F2FF"/>
<rect x="122.794" y="49.8779" width="37.6696" height="4.43171" rx="2.21586" fill="#EBE9E9"/>
<rect x="122.794" y="32.2373" width="55.3964" height="13.2951" rx="2.80076" fill="#EBE9E9"/>
<rect x="96.2036" y="64.0728" width="34.0688" height="6.81376" rx="2.80076" fill="#EBE9E9"/>
<rect x="137.086" y="64.0728" width="40.8825" height="6.81376" rx="2.80076" fill="#EBE9E9"/>
<rect x="96.2036" y="79.9751" width="18.17" height="6.81376" rx="2.80076" fill="#EBE9E9"/>
<rect x="121.186" y="79.9751" width="56.7813" height="6.81376" rx="2.80076" fill="#EBE9E9"/>
<rect x="96.2036" y="95.8726" width="81.7651" height="6.81376" rx="2.80076" fill="#EBE9E9"/>
<rect x="26.4038" y="94.8516" width="152.894" height="17.3415" rx="5.60151" fill="#EBE9E9"/>
</g>
<circle cx="193" cy="29.2632" r="23" fill="#5E5E5E"/>
<path d="M183.604 31.3388C183.604 31.3388 185.933 31.3388 188.157 35.575C188.157 35.575 195.117 24.9847 201.396 22.8667" stroke="white" stroke-width="3.8125" stroke-linecap="round" stroke-linejoin="round"/>
<defs>
<filter id="filter0_d_271_1540" x="0.499925" y="0.110276" width="204.7" height="133.6" filterUnits="userSpaceOnUse" color-interpolation-filters="sRGB">
<feFlood flood-opacity="0" result="BackgroundImageFix"/>
<feColorMatrix in="SourceAlpha" type="matrix" values="0 0 0 0 0 0 0 0 0 0 0 0 0 0 0 0 0 0 127 0" result="hardAlpha"/>
<feOffset/>
<feGaussianBlur stdDeviation="5.75004"/>
<feComposite in2="hardAlpha" operator="out"/>
<feColorMatrix type="matrix" values="0 0 0 0 0 0 0 0 0 0 0 0 0 0 0 0 0 0 0.06 0"/>
<feBlend mode="normal" in2="BackgroundImageFix" result="effect1_dropShadow_271_1540"/>
<feBlend mode="normal" in="SourceGraphic" in2="effect1_dropShadow_271_1540" result="shape"/>
</filter>
</defs>
</svg>
